<svg xmlns="http://www.w3.org/2000/svg" viewBox="0 0 1595.96 195.67"><defs><style>.cls-1{opacity:0.4;}.cls-2{fill:#fff;}</style></defs><g id="Layer_2" data-name="Layer 2"><g id="Layer_1-2" data-name="Layer 1"><g class="cls-1"><path class="cls-2" d="M121.23,195.67c-43.12,0-70.73-4.23-89.51-13.69C10.08,171.07,0,153.13,0,125.54v-1H71.94v1c0,8.6,8.84,14.33,52,14.33,40.14,0,46.61-2.56,46.61-8.68,0-7-6-8.17-49.33-9.49-45-1.43-73.13-6-91.06-14.93C11.41,97.47,2.69,82.66,2.69,60.18,2.69,19.68,40.59,0,118.54,0,157.16,0,185.11,4.91,204,15,224.45,26,234.4,42.94,234.4,66.9v1H162.46v-1c0-9.33-17.32-11.1-49.29-11.1-33.23,0-38.55,1.87-38.55,7.87,0,5.6,4.4,6,38.8,7.31l7.85.3c75.41,3,121.2,8.43,121.2,58.29C242.47,184.43,194,195.67,121.23,195.67ZM2,126.54c.54,55.86,46.06,67.13,119.23,67.13,42.58,0,69.91-4,88.64-13,20.88-10,30.6-26.25,30.6-51.12,0-48.07-45.06-53.33-119.28-56.29L113.34,73c-34.5-1.33-40.72-1.57-40.72-9.3,0-8.64,8.64-9.87,40.55-9.87,33,0,50.21,1.9,51.25,12.1h68c-.27-22.62-9.88-38.7-29.35-49.12C184.46,6.83,156.82,2,118.54,2,41.93,2,4.69,21,4.69,60.18c0,41.74,29.42,56.76,116.58,59.52,44.17,1.34,51.26,2.23,51.26,11.49,0,8-7,10.68-48.61,10.68-43.45,0-53.34-5.84-53.95-15.33Z"/><path class="cls-2" d="M498.77,193H419.66l-12.92-33.89H328L315.05,193H235.94L314.77,2.69H419.94ZM421,191h74.75L418.6,4.69H316.11L238.93,191h74.75l12.91-33.89h81.53Zm-30.44-80.31H344.12l23.23-61.39Zm-43.57-2h40.67L367.35,54.93Z"/><path class="cls-2" d="M615.28,193H543.35V63.87h-80.7V2.69H696V63.87h-80.7Zm-69.93-2h67.93V61.87H694V4.69H464.65V61.87h80.7Z"/><path class="cls-2" d="M889.59,193H784.42L705.59,2.69h79.12L837,140.74l52.3-138h79.12Zm-103.83-2H888.25L965.43,4.69H890.68L837,146.38,783.32,4.69H708.58Z"/><path class="cls-2" d="M1050,193H978V2.69H1050ZM980,191H1048V4.69H980Z"/><path class="cls-2" d="M1325.09,193h-99.81l-59.91-59.37-28,23.06V193h-71.93V2.69h71.93V75.23l85.25-72.54h102.69L1215.65,92.5Zm-99-2H1320L1212.6,92.41,1319.72,4.69h-96.36l-88,74.86V4.69h-67.93V191h67.93V155.73l30.12-24.81Z"/><path class="cls-2" d="M1596,193h-79.11l-12.91-33.89h-78.78L1412.25,193h-79.12L1412,2.69h105.16Zm-77.73-2H1593L1515.79,4.69H1413.3L1336.13,191h74.74l12.91-33.89h81.54Zm-30.45-80.31h-46.47l23.24-61.39Zm-43.57-2h40.68l-20.34-53.74Z"/></g></g></g></svg>