<svg xmlns="http://www.w3.org/2000/svg" viewBox="0 0 207.54 96.5"><defs><style>.cls-1{fill:#86868b;}.cls-2{fill:#f5f5f7;}.cls-3{fill:#ccc;}</style></defs><g id="Layer_2" data-name="Layer 2"><g id="Layer_1-2" data-name="Layer 1"><path class="cls-1" d="M3.65,0H8.48a4.81,4.81,0,0,1,2,.35,2.45,2.45,0,0,1,1.47,2.46,2.76,2.76,0,0,1-.39,1.53,2.67,2.67,0,0,1-1.08,1,2.09,2.09,0,0,1,.92.65,2.29,2.29,0,0,1,.34,1.31l.05,1.4a5,5,0,0,0,.1.89.9.9,0,0,0,.46.64v.23H10.58a1.3,1.3,0,0,1-.12-.35,6.45,6.45,0,0,1-.07-.82l-.08-1.74a1.49,1.49,0,0,0-.76-1.37A3.28,3.28,0,0,0,8.28,6H5.07v4.47H3.65ZM8.33,4.77A2.79,2.79,0,0,0,9.9,4.38a1.65,1.65,0,0,0,.58-1.44,1.53,1.53,0,0,0-.81-1.51,2.55,2.55,0,0,0-1.16-.22H5.07V4.77Z"/><path class="cls-1" d="M15.08,2.82V7.87a2.06,2.06,0,0,0,.19,1,1.28,1.28,0,0,0,1.26.68,1.8,1.8,0,0,0,1.82-1.19,4.67,4.67,0,0,0,.26-1.76V2.82h1.28v7.6H18.68l0-1.12a2.59,2.59,0,0,1-.62.73,2.71,2.71,0,0,1-1.77.6,2.32,2.32,0,0,1-2.22-1.09A3.28,3.28,0,0,1,13.78,8V2.82Z"/><path class="cls-1" d="M21.88,2.82H23.1V3.9a3.56,3.56,0,0,1,1.14-1,3.1,3.1,0,0,1,1.34-.29,2.21,2.21,0,0,1,2.18,1.13,4,4,0,0,1,.32,1.77v4.87h-1.3V5.63a2.54,2.54,0,0,0-.21-1.12,1.25,1.25,0,0,0-1.23-.71,2.6,2.6,0,0,0-.75.09,2,2,0,0,0-.92.63,1.87,1.87,0,0,0-.41.77,4.87,4.87,0,0,0-.1,1.15v4H21.88Z"/><path class="cls-1" d="M30,2.82h1.22V3.9a3.46,3.46,0,0,1,1.14-1,3.1,3.1,0,0,1,1.34-.29,2.21,2.21,0,0,1,2.18,1.13,4,4,0,0,1,.31,1.77v4.87H34.86V5.63a2.54,2.54,0,0,0-.21-1.12,1.25,1.25,0,0,0-1.23-.71,2.6,2.6,0,0,0-.75.09,2,2,0,0,0-.92.63,2,2,0,0,0-.42.77,5.6,5.6,0,0,0-.09,1.15v4H30Z"/><path class="cls-1" d="M38,0h1.3V1.45H38Zm0,2.86h1.3v7.56H38Z"/><path class="cls-1" d="M41.27,2.82h1.21V3.9a3.56,3.56,0,0,1,1.14-1A3.1,3.1,0,0,1,45,2.65a2.22,2.22,0,0,1,2.19,1.13,4,4,0,0,1,.31,1.77v4.87h-1.3V5.63A2.71,2.71,0,0,0,46,4.51a1.26,1.26,0,0,0-1.24-.71,2.53,2.53,0,0,0-.74.09,2,2,0,0,0-.92.63,1.79,1.79,0,0,0-.42.77,5.47,5.47,0,0,0-.1,1.15v4H41.27Z"/><path class="cls-1" d="M53.59,3.13a3.53,3.53,0,0,1,.74.72v-1H55.5V9.8a5.17,5.17,0,0,1-.42,2.29,3.05,3.05,0,0,1-3,1.54A3.67,3.67,0,0,1,50,13.08a2.13,2.13,0,0,1-.93-1.72h1.3a1.45,1.45,0,0,0,.36.79,1.92,1.92,0,0,0,1.37.43,1.87,1.87,0,0,0,1.92-1,5.92,5.92,0,0,0,.25-2.18,2.56,2.56,0,0,1-.93.87,3,3,0,0,1-1.42.28,3.06,3.06,0,0,1-2.16-.87,3.85,3.85,0,0,1-.93-2.9,4.35,4.35,0,0,1,.94-3A2.89,2.89,0,0,1,52,2.69,2.74,2.74,0,0,1,53.59,3.13Zm.16,1.37a1.86,1.86,0,0,0-1.49-.68,1.82,1.82,0,0,0-1.84,1.26,4.86,4.86,0,0,0-.26,1.77,3.12,3.12,0,0,0,.52,2,1.66,1.66,0,0,0,1.4.67A2,2,0,0,0,54,8.23a4,4,0,0,0,.32-1.64A3.2,3.2,0,0,0,53.75,4.5Z"/><path class="cls-1" d="M61.77,0h4.69A3.2,3.2,0,0,1,68.7.78,2.86,2.86,0,0,1,69.55,3a3.17,3.17,0,0,1-.76,2.12A2.88,2.88,0,0,1,66.46,6H63.18v4.4H61.77Zm5.5,1.43A3.17,3.17,0,0,0,66,1.21H63.18V4.82H66a2.67,2.67,0,0,0,1.54-.4A1.6,1.6,0,0,0,68.12,3,1.57,1.57,0,0,0,67.27,1.43Z"/><path class="cls-1" d="M71.19,2.82H72.4V4.14a2.87,2.87,0,0,1,.73-.94,1.94,1.94,0,0,1,1.34-.55h.12l.29,0V4a.76.76,0,0,0-.21,0h-.21A1.84,1.84,0,0,0,73,4.62a2.21,2.21,0,0,0-.52,1.43v4.37H71.19Z"/><path class="cls-1" d="M81.54,3.58a3.87,3.87,0,0,1,1,2.88,5,5,0,0,1-.89,3,3.24,3.24,0,0,1-2.78,1.2,3.17,3.17,0,0,1-2.49-1.06,4.23,4.23,0,0,1-.92-2.85,4.52,4.52,0,0,1,1-3A3.26,3.26,0,0,1,79.05,2.6,3.47,3.47,0,0,1,81.54,3.58Zm-.79,5.06a4.87,4.87,0,0,0,.47-2.14,3.88,3.88,0,0,0-.34-1.73,1.92,1.92,0,0,0-1.86-1,1.81,1.81,0,0,0-1.7.89,4.12,4.12,0,0,0-.54,2.16,3.56,3.56,0,0,0,.54,2A1.85,1.85,0,0,0,79,9.6,1.78,1.78,0,0,0,80.75,8.64Z"/><path class="cls-1" d="M82.86,12.34a2.61,2.61,0,0,0,1-.15q.18-.12.18-.78V2.86h1.27v8.69a2.41,2.41,0,0,1-.26,1.24,1.88,1.88,0,0,1-1.7.69h-.19l-.33,0ZM85.34,1.48H84.07V0h1.27Z"/><path class="cls-1" d="M92,3a3,3,0,0,1,1.15,1,3.28,3.28,0,0,1,.51,1.35A8.23,8.23,0,0,1,93.81,7H88.24a3.13,3.13,0,0,0,.55,1.85,1.81,1.81,0,0,0,1.58.7A2,2,0,0,0,92,8.92,2.25,2.25,0,0,0,92.45,8H93.7a2.49,2.49,0,0,1-.33.93,3.54,3.54,0,0,1-.63.84,3,3,0,0,1-1.44.77,4.61,4.61,0,0,1-1,.11,3.16,3.16,0,0,1-2.4-1,4,4,0,0,1-1-2.89,4.41,4.41,0,0,1,1-3,3.28,3.28,0,0,1,2.6-1.14A3.52,3.52,0,0,1,92,3Zm.47,3a3.4,3.4,0,0,0-.37-1.33,1.84,1.84,0,0,0-1.75-.92,1.92,1.92,0,0,0-1.47.63A2.44,2.44,0,0,0,88.27,6Z"/><path class="cls-1" d="M100.39,3.23a3,3,0,0,1,1,2.15h-1.24a2.33,2.33,0,0,0-.52-1.17,1.63,1.63,0,0,0-1.3-.46,1.78,1.78,0,0,0-1.74,1.19,4.66,4.66,0,0,0-.34,1.91,3.6,3.6,0,0,0,.48,1.92,1.87,1.87,0,0,0,2.78.29,2.68,2.68,0,0,0,.64-1.33h1.24a3.34,3.34,0,0,1-1.06,2.21,3.32,3.32,0,0,1-2.18.7,2.91,2.91,0,0,1-2.38-1.09,4.15,4.15,0,0,1-.88-2.72,4.56,4.56,0,0,1,1-3.11A3.12,3.12,0,0,1,98.3,2.6,3.27,3.27,0,0,1,100.39,3.23Z"/><path class="cls-1" d="M102.89.7h1.29V2.82h1.22V3.87h-1.22v5a.54.54,0,0,0,.27.54,1.23,1.23,0,0,0,.5.07h.2l.25,0v1a3.4,3.4,0,0,1-.46.09,4.12,4.12,0,0,1-.51,0,1.39,1.39,0,0,1-1.22-.46,2,2,0,0,1-.32-1.18v-5h-1V2.82h1Z"/><path class="cls-1" d="M107.43,8a2,2,0,0,0,.32,1,2,2,0,0,0,1.68.61,2.4,2.4,0,0,0,1.24-.31,1,1,0,0,0,.54-1,.82.82,0,0,0-.43-.75,5.56,5.56,0,0,0-1.09-.36l-1-.25a5,5,0,0,1-1.43-.54A1.61,1.61,0,0,1,106.42,5a2.2,2.2,0,0,1,.78-1.75,3.09,3.09,0,0,1,2.08-.67,2.91,2.91,0,0,1,2.48,1A2.19,2.19,0,0,1,112.22,5H111a1.55,1.55,0,0,0-.31-.79,1.92,1.92,0,0,0-1.52-.5,1.86,1.86,0,0,0-1.1.27.87.87,0,0,0-.37.73.89.89,0,0,0,.49.8,2.84,2.84,0,0,0,.83.31l.85.21a6.46,6.46,0,0,1,1.84.64,1.71,1.71,0,0,1,.75,1.54,2.34,2.34,0,0,1-.77,1.75,3.31,3.31,0,0,1-2.35.74,3.15,3.15,0,0,1-2.4-.77,2.89,2.89,0,0,1-.75-1.9Z"/><path class="cls-2" d="M22.49,31.46q2.84,4.95,2.83,14t-2.83,14q-2.82,4.92-9.83,4.91T2.82,59.49Q0,54.58,0,45.49t2.82-14q2.82-4.93,9.84-4.93T22.49,31.46ZM8.41,55.17q1,3.36,4.25,3.36c2.14,0,3.55-1.12,4.21-3.36a35.63,35.63,0,0,0,1-9.68,35.25,35.25,0,0,0-1-9.82,4.07,4.07,0,0,0-4.21-3.19,4.14,4.14,0,0,0-4.25,3.19c-.7,2.12-1,5.4-1,9.82A34.2,34.2,0,0,0,8.41,55.17Z"/><path class="cls-2" d="M31.88,53.67a7,7,0,0,0,1.65,3.63,4.63,4.63,0,0,0,3.53,1.28,4.75,4.75,0,0,0,4.08-1.89A7.68,7.68,0,0,0,42.54,52a8.22,8.22,0,0,0-1.31-4.75,4.61,4.61,0,0,0-4.09-1.94,6.93,6.93,0,0,0-2.27.33,4.59,4.59,0,0,0-2.56,2.25l-6.46-.3,2.57-20.28h20.2v6.13h-15l-1.32,8A15.21,15.21,0,0,1,34.92,40a11,11,0,0,1,3.82-.58,11.44,11.44,0,0,1,7.93,3.06q3.39,3.07,3.39,8.91a14,14,0,0,1-3.26,9.09q-3.27,4-9.76,4a12.92,12.92,0,0,1-8.6-2.81,11,11,0,0,1-3.75-8Z"/><path class="cls-2" d="M55.63,55.89V51.07h7.56V43.51H68v7.56h7.57v4.82H68v7.6H63.19v-7.6Z"/><path class="cls-2" d="M104,52.73a9.43,9.43,0,0,1-6.23,1.82H92.54v8.94H87.38V38.63H98.05a8.58,8.58,0,0,1,5.89,1.93q2.19,1.92,2.19,5.95C106.13,49.44,105.41,51.52,104,52.73Zm-4-8.95A4.2,4.2,0,0,0,97.22,43H92.54v7.32h4.68a4,4,0,0,0,2.77-.89,3.69,3.69,0,0,0,1-2.84A3.44,3.44,0,0,0,100,43.78Z"/><path class="cls-2" d="M118.4,44.68l.41,0v4.92l-.81-.07-.57,0q-2.91,0-3.9,1.89a7.38,7.38,0,0,0-.56,3.28v8.78h-4.84V45.11h4.59v3.2a10.22,10.22,0,0,1,1.94-2.51,5.3,5.3,0,0,1,3.51-1.13Z"/><path class="cls-2" d="M135.23,61.24q-2.32,2.88-7.07,2.88t-7.06-2.88a11.4,11.4,0,0,1,0-13.81q2.33-2.91,7.06-2.91t7.07,2.91a11.44,11.44,0,0,1,0,13.81Zm-3.85-2.65a6.92,6.92,0,0,0,1.13-4.26,6.9,6.9,0,0,0-1.13-4.26,4.27,4.27,0,0,0-6.48,0,6.9,6.9,0,0,0-1.14,4.26,6.92,6.92,0,0,0,1.14,4.26,4.27,4.27,0,0,0,6.48,0Z"/><path class="cls-2" d="M137.18,67l.57,0h.3a1.48,1.48,0,0,0,1.07-.35,1.82,1.82,0,0,0,.37-1.34V45.19h4.8V65.46a6.42,6.42,0,0,1-1.09,4.12c-.73.89-2.17,1.33-4.3,1.33-.15,0-.37,0-.65,0l-1.07,0Zm7.11-24.1h-4.8V38.48h4.8Z"/><path class="cls-2" d="M159.11,45.48a7.44,7.44,0,0,1,3.18,2.72,9.16,9.16,0,0,1,1.47,3.8,22.89,22.89,0,0,1,.15,3.65H150.53a4.4,4.4,0,0,0,1.92,3.88,4.89,4.89,0,0,0,2.65.69,4.1,4.1,0,0,0,2.67-.84,4.25,4.25,0,0,0,1-1.27h4.9a6,6,0,0,1-1.78,3.32A8.93,8.93,0,0,1,155,64.12a10,10,0,0,1-6.48-2.27c-1.87-1.5-2.8-4-2.8-7.36q0-4.77,2.53-7.32a8.86,8.86,0,0,1,6.57-2.55A10.51,10.51,0,0,1,159.11,45.48Zm-7.19,4.15a5.1,5.1,0,0,0-1.28,2.85h8.28a4,4,0,0,0-1.28-2.91,4.19,4.19,0,0,0-2.85-1A3.82,3.82,0,0,0,151.92,49.63Z"/><path class="cls-2" d="M175.61,51.7a4.28,4.28,0,0,0-.69-1.85,2.91,2.91,0,0,0-2.52-1.11,3.32,3.32,0,0,0-3.33,2.41,9.86,9.86,0,0,0-.47,3.39,9.12,9.12,0,0,0,.47,3.25,3.22,3.22,0,0,0,3.25,2.29,2.87,2.87,0,0,0,2.4-.91,4.5,4.5,0,0,0,.86-2.36h4.91A8.15,8.15,0,0,1,178.9,61a7.73,7.73,0,0,1-6.7,3.16q-4.44,0-6.53-2.64a10.58,10.58,0,0,1-2.1-6.82q0-4.72,2.31-7.36a8.09,8.09,0,0,1,6.39-2.63,9.65,9.65,0,0,1,5.66,1.55c1.47,1,2.34,2.86,2.61,5.48Z"/><path class="cls-2" d="M180.21,48.7V45.28h2.56V40.15h4.76v5.13h3V48.7h-3v9.72c0,.75.09,1.22.29,1.4s.77.28,1.75.28H190l.48,0v3.59l-2.27.08c-2.27.08-3.83-.31-4.66-1.18a3.51,3.51,0,0,1-.81-2.54V48.7Z"/><path class="cls-2" d="M195.6,57.62a3.16,3.16,0,0,0,.66,1.82,4.49,4.49,0,0,0,3.32,1,5,5,0,0,0,2.26-.43,1.41,1.41,0,0,0,.17-2.49A27.24,27.24,0,0,0,197,56a10.61,10.61,0,0,1-4.42-1.94,4.24,4.24,0,0,1-1.28-3.31,5.7,5.7,0,0,1,2-4.37,8,8,0,0,1,5.63-1.83A10.33,10.33,0,0,1,204.54,46,5.87,5.87,0,0,1,207,50.71h-4.8a2.8,2.8,0,0,0-.53-1.47,3.3,3.3,0,0,0-2.7-1,3.93,3.93,0,0,0-2.24.49,1.41,1.41,0,0,0-.67,1.15,1.27,1.27,0,0,0,.71,1.2,32,32,0,0,0,5,1.33,9.19,9.19,0,0,1,4.3,2,4.61,4.61,0,0,1,1.42,3.46,5.59,5.59,0,0,1-2,4.46q-2,1.72-6.29,1.73c-2.9,0-5-.62-6.41-1.83a6,6,0,0,1-2.07-4.67Z"/><path class="cls-3" d="M6.4,85.39H4.35V83.52H6.4Zm-2.05.92H6.4V94H4.35Z"/><path class="cls-3" d="M14.59,86.75a2.54,2.54,0,0,1,.76,2.08V94H13.28v-4.7a2.15,2.15,0,0,0-.16-.94A1.13,1.13,0,0,0,12,87.81a1.4,1.4,0,0,0-1.4.87,3.07,3.07,0,0,0-.19,1.18V94h-2V86.32h2v1.13a3.32,3.32,0,0,1,.74-.86,2.55,2.55,0,0,1,1.57-.47A2.93,2.93,0,0,1,14.59,86.75Z"/><path class="cls-3" d="M29.23,84.7a2.63,2.63,0,0,1,.48,1.59,2.33,2.33,0,0,1-.48,1.54,2.61,2.61,0,0,1-.8.6,2.36,2.36,0,0,1,1.21.92,2.77,2.77,0,0,1,.4,1.53,3.06,3.06,0,0,1-.46,1.67,2.92,2.92,0,0,1-.74.82,3,3,0,0,1-1.18.53,7.67,7.67,0,0,1-1.48.14H21.47V83.58h5.05A3.2,3.2,0,0,1,29.23,84.7Zm-5.68.7v2.31h2.54a2.12,2.12,0,0,0,1.11-.26,1,1,0,0,0,.42-.92.94.94,0,0,0-.56-1,4.17,4.17,0,0,0-1.23-.16Zm0,4v2.78h2.54A2.53,2.53,0,0,0,27.15,92a1.32,1.32,0,0,0,.69-1.31,1.14,1.14,0,0,0-.67-1.12,2.65,2.65,0,0,0-1-.17Z"/><path class="cls-3" d="M33.84,85.39H31.79V83.52h2.05Zm-2.05.92h2.05V94H31.79Z"/><path class="cls-3" d="M41.35,86.35a2.31,2.31,0,0,1,1,.76,2.11,2.11,0,0,1,.39.89,12.58,12.58,0,0,1,.07,1.5V94H40.7V89.33a2.13,2.13,0,0,0-.21-1,1.05,1.05,0,0,0-1-.54,1.44,1.44,0,0,0-1.21.54,2.51,2.51,0,0,0-.41,1.53V94h-2V83.62h2v3.69a2.49,2.49,0,0,1,1-.94,2.86,2.86,0,0,1,1.22-.27A3.37,3.37,0,0,1,41.35,86.35Z"/><path class="cls-3" d="M47.73,89.34a3.3,3.3,0,0,0,.81-.18.6.6,0,0,0,.43-.58.68.68,0,0,0-.33-.65,2.11,2.11,0,0,0-1-.18,1.3,1.3,0,0,0-1,.35,1.54,1.54,0,0,0-.29.71h-2A3,3,0,0,1,45,87.15a3.31,3.31,0,0,1,2.77-1,4.85,4.85,0,0,1,2.26.51,1.93,1.93,0,0,1,1,1.9v3.55c0,.24,0,.54,0,.89a1.07,1.07,0,0,0,.12.54.69.69,0,0,0,.29.23V94H49.22a1.66,1.66,0,0,1-.13-.44c0-.14,0-.29-.06-.47a4.37,4.37,0,0,1-1,.78,2.93,2.93,0,0,1-1.48.37,2.56,2.56,0,0,1-1.75-.6,2.12,2.12,0,0,1-.69-1.7,2.19,2.19,0,0,1,1.11-2.06,5,5,0,0,1,1.79-.5Zm1.24.94a2.4,2.4,0,0,1-.39.2,3.46,3.46,0,0,1-.55.13l-.46.09a2.86,2.86,0,0,0-.93.28.91.91,0,0,0-.47.85.87.87,0,0,0,.29.75,1.06,1.06,0,0,0,.71.23,2.07,2.07,0,0,0,1.22-.38A1.65,1.65,0,0,0,49,91Z"/><path class="cls-3" d="M57,86.13h.18v2.07l-.34,0h-.24A1.68,1.68,0,0,0,55,89a3,3,0,0,0-.24,1.37V94h-2V86.31h1.93v1.35a4.23,4.23,0,0,1,.81-1.06A2.21,2.21,0,0,1,57,86.12Z"/><path class="cls-3" d="M57.5,95.72a1.54,1.54,0,0,0,.9-.57A2.09,2.09,0,0,0,58.73,94H57.5V91.92h2.18v1.83a4.49,4.49,0,0,1-.12,1,2.1,2.1,0,0,1-.48.91,2.35,2.35,0,0,1-.88.62,2.28,2.28,0,0,1-.7.21Z"/><path class="cls-3" d="M72,83.81a3.46,3.46,0,0,1,1.78,1.33,4.84,4.84,0,0,1,.75,1.69,8.18,8.18,0,0,1,.19,1.73,7,7,0,0,1-.83,3.53,3.79,3.79,0,0,1-3.51,2H65.84V83.58h4.51A5.57,5.57,0,0,1,72,83.81ZM68,85.4v6.82h2a2.17,2.17,0,0,0,2.16-1.52,5.42,5.42,0,0,0,.33-2,4.89,4.89,0,0,0-.5-2.46,2.12,2.12,0,0,0-2-.85Z"/><path class="cls-3" d="M81.21,86.46a3.2,3.2,0,0,1,1.33,1.15,3.7,3.7,0,0,1,.62,1.6,10.25,10.25,0,0,1,.07,1.53H77.6a1.85,1.85,0,0,0,.8,1.63,2,2,0,0,0,1.12.29,1.69,1.69,0,0,0,1.12-.35,1.76,1.76,0,0,0,.42-.53h2.06a2.44,2.44,0,0,1-.75,1.39,3.72,3.72,0,0,1-2.91,1.13,4.18,4.18,0,0,1-2.72-1,3.72,3.72,0,0,1-1.18-3.09,4.21,4.21,0,0,1,1.06-3.09,3.76,3.76,0,0,1,2.77-1.07A4.45,4.45,0,0,1,81.21,86.46Zm-3,1.75a2.15,2.15,0,0,0-.53,1.2h3.48a1.68,1.68,0,0,0-.54-1.22,1.76,1.76,0,0,0-1.2-.42A1.63,1.63,0,0,0,78.18,88.21Z"/><path class="cls-3" d="M86.31,94h-2V83.58h2Z"/><path class="cls-3" d="M93.84,86.35a2.31,2.31,0,0,1,1,.76,2.11,2.11,0,0,1,.39.89,12.58,12.58,0,0,1,.07,1.5V94H93.19V89.33a2.13,2.13,0,0,0-.21-1,1.05,1.05,0,0,0-1-.54,1.44,1.44,0,0,0-1.21.54,2.51,2.51,0,0,0-.41,1.53V94h-2V83.62h2v3.69a2.49,2.49,0,0,1,1-.94,2.85,2.85,0,0,1,1.21-.27A3.38,3.38,0,0,1,93.84,86.35Z"/><path class="cls-3" d="M99.24,85.39h-2V83.52h2Zm-2,.92h2V94h-2Z"/><path class="cls-3" d="M105.54,89.67a5.07,5.07,0,0,1,1.53-1.33l.22-.14a4.63,4.63,0,0,1-.7-1,2.72,2.72,0,0,1-.25-1.11,2.2,2.2,0,0,1,.78-1.79,3,3,0,0,1,2-.64,2.68,2.68,0,0,1,1.86.66,2.16,2.16,0,0,1,.74,1.68,2.41,2.41,0,0,1-.44,1.5,4.35,4.35,0,0,1-1.3,1.07l1.5,1.82a2.61,2.61,0,0,0,.4-.8,3.41,3.41,0,0,0,.15-.92h1.79a5.49,5.49,0,0,1-.46,1.93,5.25,5.25,0,0,1-.73,1.21l1.9,2.27h-2.45l-.73-.89a4.45,4.45,0,0,1-1,.73,4,4,0,0,1-1.88.42,3.34,3.34,0,0,1-2.51-.93,2.92,2.92,0,0,1-.91-2.08A2.79,2.79,0,0,1,105.54,89.67Zm2,2.5a1.47,1.47,0,0,0,1.1.44,2.08,2.08,0,0,0,.95-.23,2.67,2.67,0,0,0,.74-.51l-2-2.38a3.45,3.45,0,0,0-1,.89,1.46,1.46,0,0,0-.25.84A1.31,1.31,0,0,0,107.52,92.17Zm.89-5.6a9.09,9.09,0,0,0,.57.74,3.21,3.21,0,0,0,.63-.51A1.15,1.15,0,0,0,110,86a.82.82,0,0,0-.89-.84,1,1,0,0,0-.52.15.75.75,0,0,0-.37.7A1,1,0,0,0,108.41,86.57Z"/><path class="cls-3" d="M119.92,83.58h2.22V90a3.65,3.65,0,0,0,.25,1.57,2.13,2.13,0,0,0,3.45,0,3.65,3.65,0,0,0,.25-1.57V83.58h2.22V90a5.35,5.35,0,0,1-.52,2.6c-.64,1.13-1.86,1.7-3.67,1.7s-3-.57-3.68-1.7a5.35,5.35,0,0,1-.52-2.6Z"/><path class="cls-3" d="M130.21,91.92h2.15V94h-2.15Z"/><path class="cls-3" d="M141.47,89.51a4,4,0,0,1-2.63.77h-2.17V94H134.5V83.58H139a3.6,3.6,0,0,1,2.47.81,3.16,3.16,0,0,1,.92,2.51A3.24,3.24,0,0,1,141.47,89.51Zm-1.67-3.76a1.78,1.78,0,0,0-1.16-.35h-2v3.08h2a1.69,1.69,0,0,0,1.16-.38,1.54,1.54,0,0,0,.41-1.19A1.46,1.46,0,0,0,139.8,85.75Z"/></g></g></svg>