<?xml version="1.0" encoding="utf-8"?>
<!-- Generator: Adobe Illustrator 26.0.1, SVG Export Plug-In . SVG Version: 6.00 Build 0)  -->
<svg version="1.1" id="Layer_1" xmlns="http://www.w3.org/2000/svg" xmlns:xlink="http://www.w3.org/1999/xlink" x="0px" y="0px"
	 viewBox="0 0 207.5 96.5" style="enable-background:new 0 0 207.5 96.5;" xml:space="preserve">
<style type="text/css">
	.st0{fill:#86868B;}
	.st1{fill:#F5F5F7;}
	.st2{fill:#CCCCCC;}
</style>
<g id="Layer_2_00000108308336356664845770000007212790888580738494_">
	<g id="Layer_1-2">
		<path class="st0" d="M3.7,0h4.8c0.7,0,1.4,0.1,2,0.3c1,0.4,1.6,1.4,1.5,2.5c0,0.5-0.1,1.1-0.4,1.5c-0.3,0.4-0.6,0.8-1.1,1
			c0.4,0.1,0.7,0.4,0.9,0.7c0.2,0.4,0.4,0.8,0.3,1.3l0.1,1.4c0,0.3,0,0.6,0.1,0.9c0,0.3,0.2,0.5,0.5,0.6v0.2h-1.8
			c-0.1-0.1-0.1-0.2-0.1-0.4c0-0.3-0.1-0.5-0.1-0.8l-0.1-1.7c0-0.6-0.3-1.1-0.8-1.4C9.1,6,8.7,6,8.3,6H5.1v4.5H3.7V0z M8.3,4.8
			c0.6,0,1.1-0.1,1.6-0.4C10.3,4,10.5,3.5,10.5,3c0.1-0.6-0.3-1.2-0.8-1.5C9.3,1.3,8.9,1.2,8.5,1.2H5.1v3.6H8.3z"/>
		<path class="st0" d="M15.1,2.8v5.1c0,0.3,0,0.7,0.2,1c0.2,0.5,0.7,0.7,1.3,0.7c0.8,0.1,1.5-0.4,1.8-1.2c0.2-0.6,0.3-1.2,0.3-1.8
			V2.8H20v7.6h-1.2V9.3c-0.2,0.3-0.4,0.5-0.6,0.7c-0.5,0.4-1.1,0.6-1.8,0.6c-0.9,0.1-1.8-0.3-2.2-1.1C14,9,13.9,8.5,13.9,8V2.8H15.1
			z"/>
		<path class="st0" d="M21.9,2.8h1.2v1.1c0.3-0.4,0.7-0.8,1.1-1s0.9-0.3,1.3-0.3c0.9-0.1,1.7,0.3,2.2,1.1C27.9,4.3,28,4.9,28,5.5
			v4.9h-1.3V5.6c0-0.4-0.1-0.8-0.2-1.1c-0.2-0.5-0.7-0.8-1.2-0.7c-0.3,0-0.5,0-0.8,0.1c-0.4,0.1-0.7,0.3-0.9,0.6
			c-0.2,0.2-0.3,0.5-0.4,0.8c-0.1,0.4-0.1,0.8-0.1,1.2v4h-1.3L21.9,2.8L21.9,2.8z"/>
		<path class="st0" d="M30,2.8h1.2v1.1c0.3-0.4,0.7-0.8,1.1-1c0.4-0.2,0.9-0.3,1.3-0.3c0.9-0.1,1.7,0.3,2.2,1.1
			c0.2,0.6,0.3,1.2,0.3,1.8v4.9h-1.3V5.6c0-0.4-0.1-0.8-0.2-1.1c-0.2-0.5-0.7-0.8-1.2-0.7c-0.3,0-0.5,0-0.8,0.1
			C32.3,4,32,4.2,31.8,4.5c-0.2,0.2-0.3,0.5-0.4,0.8c-0.1,0.4-0.1,0.8-0.1,1.2v4H30V2.8z"/>
		<path class="st0" d="M38,0h1.3v1.5H38V0z M38,2.9h1.3v7.6H38V2.9z"/>
		<path class="st0" d="M41.3,2.8h1.2v1.1c0.3-0.4,0.7-0.8,1.1-1C44,2.7,44.5,2.6,45,2.7c0.9-0.1,1.8,0.3,2.2,1.1
			c0.2,0.6,0.3,1.2,0.3,1.8v4.9h-1.3V5.6c0-0.4-0.1-0.8-0.2-1.1c-0.2-0.5-0.7-0.8-1.2-0.7c-0.2,0-0.5,0-0.7,0.1
			c-0.4,0.1-0.7,0.3-0.9,0.6C43,4.7,42.9,5,42.8,5.3c-0.1,0.4-0.1,0.8-0.1,1.2v4h-1.3L41.3,2.8L41.3,2.8z"/>
		<path class="st0" d="M53.6,3.1c0.3,0.2,0.5,0.4,0.7,0.7v-1h1.2v6.9c0,0.8-0.1,1.6-0.4,2.3c-0.6,1.1-1.8,1.7-3,1.5
			c-0.7,0-1.5-0.2-2.1-0.6c-0.6-0.4-0.9-1-0.9-1.7h1.3c0,0.3,0.2,0.6,0.4,0.8c0.4,0.3,0.9,0.5,1.4,0.4c0.8,0.1,1.6-0.3,1.9-1
			c0.2-0.7,0.3-1.4,0.2-2.2c-0.2,0.4-0.6,0.7-0.9,0.9c-0.4,0.2-0.9,0.3-1.4,0.3c-0.8,0-1.6-0.3-2.2-0.9c-0.7-0.8-1-1.8-0.9-2.9
			c-0.1-1.1,0.3-2.2,0.9-3c0.5-0.7,1.4-1.1,2.2-1.1C52.6,2.7,53.1,2.8,53.6,3.1z M53.8,4.5c-0.4-0.4-0.9-0.7-1.5-0.7
			c-0.8,0-1.6,0.5-1.8,1.3c-0.2,0.6-0.3,1.2-0.3,1.8c-0.1,0.7,0.1,1.4,0.5,2c0.3,0.4,0.9,0.7,1.4,0.7c0.8,0,1.6-0.5,1.9-1.3
			c0.2-0.5,0.3-1.1,0.3-1.6C54.4,5.8,54.2,5.1,53.8,4.5z"/>
		<path class="st0" d="M61.8,0h4.7c0.8,0,1.6,0.2,2.2,0.8s0.9,1.4,0.9,2.2s-0.3,1.5-0.8,2.1c-0.6,0.6-1.5,1-2.3,0.9h-3.3v4.4h-1.4
			C61.8,10.4,61.8,0,61.8,0z M67.3,1.4c-0.4-0.2-0.8-0.2-1.3-0.2h-2.8v3.6H66c0.5,0,1.1-0.1,1.5-0.4C68,4.1,68.2,3.5,68.1,3
			C68.2,2.4,67.9,1.7,67.3,1.4z"/>
		<path class="st0" d="M71.2,2.8h1.2v1.3c0.2-0.4,0.4-0.7,0.7-0.9c0.4-0.3,0.8-0.5,1.3-0.5h0.1h0.3V4c-0.1,0-0.1,0-0.2,0h-0.2
			c-0.6,0-1.1,0.2-1.5,0.6C72.7,5,72.5,5.5,72.5,6v4.4h-1.3V2.8z"/>
		<path class="st0" d="M81.5,3.6c0.7,0.8,1.1,1.8,1,2.9c0,1.1-0.3,2.1-0.9,3c-0.7,0.8-1.7,1.3-2.8,1.2c-0.9,0-1.9-0.4-2.5-1.1
			c-0.6-0.8-1-1.8-0.9-2.8c0-1.1,0.3-2.2,1-3C77,3,78,2.6,79,2.6C80,2.6,80.9,2.9,81.5,3.6z M80.8,8.6c0.3-0.7,0.5-1.4,0.5-2.1
			c0-0.6-0.1-1.2-0.3-1.7c-0.4-0.7-1.1-1.1-1.9-1c-0.7-0.1-1.4,0.3-1.7,0.9c-0.4,0.7-0.6,1.4-0.5,2.2c0,0.7,0.2,1.4,0.5,2
			c0.4,0.5,1,0.8,1.7,0.8C79.7,9.7,80.4,9.3,80.8,8.6z"/>
		<path class="st0" d="M82.9,12.3c0.3,0,0.7,0,1-0.1c0.1-0.1,0.2-0.3,0.2-0.8V2.9h1.3v8.7c0,0.4-0.1,0.9-0.3,1.2
			c-0.4,0.5-1.1,0.8-1.7,0.7h-0.2h-0.3V12.3z M85.3,1.5H84V0h1.3V1.5z"/>
		<path class="st0" d="M92,3c0.5,0.2,0.9,0.6,1.2,1c0.3,0.4,0.4,0.9,0.5,1.3c0.1,0.5,0.2,1.1,0.1,1.7h-5.6c0,0.7,0.2,1.3,0.6,1.9
			c0.4,0.5,1,0.7,1.6,0.7c0.6,0,1.2-0.2,1.6-0.7c0.2-0.3,0.4-0.6,0.4-0.9h1.2c0,0.3-0.2,0.6-0.3,0.9c-0.2,0.3-0.4,0.6-0.6,0.8
			c-0.4,0.4-0.9,0.7-1.4,0.8c-0.3,0.1-0.7,0.1-1,0.1c-0.9,0-1.8-0.3-2.4-1c-0.7-0.8-1.1-1.8-1-2.9c0-1.1,0.3-2.2,1-3
			c0.6-0.8,1.6-1.2,2.6-1.1C91,2.6,91.5,2.8,92,3z M92.5,6c0-0.5-0.2-0.9-0.4-1.3c-0.4-0.6-1-1-1.8-0.9c-0.6,0-1.1,0.2-1.5,0.6
			s-0.6,1-0.6,1.6C88.2,6,92.5,6,92.5,6z"/>
		<path class="st0" d="M100.4,3.2c0.6,0.5,1,1.3,1,2.2h-1.2c-0.1-0.4-0.2-0.8-0.5-1.2c-0.3-0.3-0.8-0.5-1.3-0.5
			c-0.8,0-1.5,0.5-1.7,1.2c-0.2,0.6-0.4,1.3-0.3,1.9c0,0.7,0.1,1.3,0.5,1.9c0.6,0.8,1.8,1,2.6,0.4c0.1,0,0.1-0.1,0.2-0.1
			c0.3-0.4,0.6-0.8,0.6-1.3h1.2c-0.1,0.8-0.4,1.6-1.1,2.2c-0.6,0.5-1.4,0.7-2.2,0.7c-0.9,0-1.8-0.4-2.4-1.1
			c-0.6-0.8-0.9-1.7-0.9-2.7c-0.1-1.1,0.3-2.2,1-3.1c0.6-0.7,1.5-1.1,2.4-1.1C99,2.6,99.8,2.8,100.4,3.2z"/>
		<path class="st0" d="M102.9,0.7h1.3v2.1h1.2v1h-1.2v5c0,0.2,0.1,0.4,0.3,0.5c0.2,0.1,0.3,0.1,0.5,0.1h0.2h0.2v1
			c-0.2,0-0.3,0.1-0.5,0.1s-0.3,0-0.5,0c-0.5,0.1-0.9-0.1-1.2-0.5c-0.2-0.4-0.3-0.8-0.3-1.2v-5h-1v-1h1V0.7z"/>
		<path class="st0" d="M107.4,8c0,0.4,0.1,0.7,0.3,1c0.4,0.5,1.1,0.7,1.7,0.6c0.4,0,0.9-0.1,1.2-0.3c0.4-0.2,0.6-0.6,0.5-1
			c0-0.3-0.2-0.6-0.4-0.8c-0.3-0.2-0.7-0.3-1.1-0.4l-1-0.2c-0.5-0.1-1-0.3-1.4-0.5c-0.5-0.3-0.8-0.8-0.8-1.4c0-0.7,0.3-1.3,0.8-1.8
			c0.6-0.5,1.3-0.7,2.1-0.7c0.9-0.1,1.9,0.3,2.5,1c0.3,0.4,0.5,0.9,0.5,1.4H111c0-0.3-0.1-0.6-0.3-0.8c-0.4-0.4-1-0.6-1.5-0.5
			c-0.4,0-0.8,0.1-1.1,0.3c-0.2,0.2-0.4,0.4-0.4,0.7s0.2,0.6,0.5,0.8c0.3,0.1,0.5,0.3,0.8,0.3l0.8,0.2c0.6,0.1,1.3,0.3,1.8,0.6
			c0.5,0.3,0.8,0.9,0.8,1.5c0,0.7-0.3,1.3-0.8,1.8c-0.7,0.5-1.5,0.8-2.3,0.7c-0.9,0.1-1.7-0.2-2.4-0.8c-0.5-0.5-0.7-1.2-0.8-1.9
			L107.4,8z"/>
		<path class="st1" d="M55.6,55.9v-4.8h7.6v-7.6H68v7.6h7.6v4.8H68v7.6h-4.8v-7.6H55.6z"/>
		<path class="st1" d="M104,52.7c-1.8,1.3-4,2-6.2,1.8h-5.2v8.9h-5.2V38.6h10.7c2.1-0.1,4.2,0.6,5.9,1.9c1.5,1.3,2.2,3.3,2.2,6
			C106.1,49.4,105.4,51.5,104,52.7z M100,43.8c-0.8-0.6-1.8-0.9-2.8-0.8h-4.7v7.3h4.7c1,0.1,2-0.3,2.8-0.9c0.7-0.8,1.1-1.8,1-2.8
			C101.1,45.6,100.7,44.5,100,43.8z"/>
		<path class="st1" d="M118.4,44.7h0.4v4.9l-0.8-0.1h-0.6c-1.9,0-3.2,0.6-3.9,1.9c-0.4,1-0.6,2.2-0.6,3.3v8.8h-4.8V45.1h4.6v3.2
			c0.5-0.9,1.2-1.8,1.9-2.5c1-0.8,2.2-1.2,3.5-1.1H118.4z"/>
		<path class="st1" d="M135.2,61.2c-1.5,1.9-3.9,2.9-7.1,2.9c-3.2,0-5.5-1-7.1-2.9c-3.1-4.1-3.1-9.7,0-13.8c1.6-1.9,3.9-2.9,7.1-2.9
			s5.5,1,7.1,2.9C138.3,51.5,138.3,57.2,135.2,61.2z M131.4,58.6c0.8-1.3,1.2-2.8,1.1-4.3c0.1-1.5-0.3-3-1.1-4.3
			c-1.5-1.8-4.2-2-6-0.5c-0.2,0.1-0.3,0.3-0.5,0.5c-0.8,1.3-1.2,2.8-1.1,4.3c-0.1,1.5,0.3,3,1.1,4.3c1.5,1.8,4.2,2,6,0.5
			C131.1,58.9,131.2,58.8,131.4,58.6z"/>
		<path class="st1" d="M137.2,67h0.6h0.3c0.4,0,0.8-0.1,1.1-0.3c0.3-0.4,0.4-0.9,0.4-1.3V45.2h4.8v20.3c0.1,1.5-0.3,2.9-1.1,4.1
			c-0.7,0.9-2.2,1.3-4.3,1.3c-0.1,0-0.4,0-0.6,0h-1.1L137.2,67z M144.3,42.9h-4.8v-4.4h4.8V42.9z"/>
		<path class="st1" d="M159.1,45.5c1.3,0.6,2.4,1.5,3.2,2.7c0.8,1.1,1.3,2.4,1.5,3.8c0.1,1.2,0.2,2.4,0.1,3.7h-13.4
			c-0.1,1.5,0.6,3,1.9,3.9c0.8,0.5,1.7,0.7,2.6,0.7c1,0,1.9-0.3,2.7-0.8c0.4-0.4,0.8-0.8,1-1.3h4.9c-0.2,1.3-0.8,2.4-1.8,3.3
			c-1.8,1.9-4.3,2.8-6.9,2.7c-2.4,0-4.7-0.8-6.5-2.3c-1.9-1.5-2.8-4-2.8-7.4c0-3.2,0.8-5.6,2.5-7.3s4.1-2.6,6.6-2.5
			C156.3,44.6,157.8,44.9,159.1,45.5z M151.9,49.6c-0.7,0.8-1.2,1.8-1.3,2.8h8.3c0-1.1-0.5-2.2-1.3-2.9s-1.8-1-2.9-1
			C153.7,48.5,152.7,48.9,151.9,49.6z"/>
		<path class="st1" d="M175.6,51.7c-0.1-0.7-0.3-1.3-0.7-1.8c-0.6-0.8-1.5-1.2-2.5-1.1c-1.5-0.1-2.9,0.9-3.3,2.4
			c-0.4,1.1-0.5,2.2-0.5,3.4c0,1.1,0.1,2.2,0.5,3.2c0.4,1.4,1.8,2.4,3.2,2.3c0.9,0.1,1.8-0.2,2.4-0.9c0.5-0.7,0.8-1.5,0.9-2.4h4.9
			c-0.1,1.5-0.7,3-1.6,4.2c-1.6,2.1-4.1,3.3-6.7,3.2c-3,0-5.1-0.9-6.5-2.6c-1.5-2-2.2-4.4-2.1-6.8c0-3.1,0.8-5.6,2.3-7.4
			c1.6-1.8,4-2.8,6.4-2.6c2-0.1,4,0.5,5.7,1.5c1.5,1,2.3,2.9,2.6,5.5L175.6,51.7z"/>
		<path class="st1" d="M180.2,48.7v-3.4h2.6v-5.1h4.8v5.1h3v3.4h-3v9.7c0,0.8,0.1,1.2,0.3,1.4s0.8,0.3,1.8,0.3h0.4h0.5v3.6l-2.3,0.1
			c-2.3,0.1-3.8-0.3-4.7-1.2c-0.6-0.7-0.9-1.6-0.8-2.5V48.7H180.2z"/>
		<path class="st1" d="M195.6,57.6c0,0.7,0.3,1.3,0.7,1.8c0.9,0.8,2.1,1.1,3.3,1c0.8,0,1.6-0.1,2.3-0.4c0.7-0.3,1-1.1,0.7-1.9
			c-0.1-0.3-0.3-0.5-0.5-0.6c-1.6-0.7-3.3-1.2-5-1.5c-1.6-0.3-3.1-1-4.4-1.9c-0.9-0.9-1.4-2.1-1.3-3.3c0-1.7,0.7-3.3,2-4.4
			c1.6-1.3,3.6-2,5.6-1.8c2-0.1,3.9,0.4,5.6,1.5c1.5,1.1,2.4,2.8,2.5,4.7h-4.8c0-0.5-0.2-1-0.5-1.5c-0.7-0.7-1.7-1.1-2.7-1
			c-0.8-0.1-1.6,0.1-2.2,0.5c-0.4,0.2-0.7,0.7-0.7,1.2s0.3,1,0.7,1.2c1.6,0.6,3.3,1,5,1.3c1.6,0.3,3.1,1,4.3,2
			c0.9,0.9,1.5,2.2,1.4,3.5c0.1,1.7-0.7,3.4-2,4.5s-3.4,1.7-6.3,1.7c-2.9,0-5-0.6-6.4-1.8s-2.1-2.9-2.1-4.7L195.6,57.6z"/>
		<g>
			<path class="st2" d="M8,83.2H6.1v-1.7H8V83.2z M6.1,84H8v7.2H6.1V84z"/>
			<path class="st2" d="M15.6,84.4c0.5,0.4,0.7,1,0.7,1.9v4.9h-1.9v-4.4c0-0.4-0.1-0.7-0.2-0.9c-0.2-0.4-0.5-0.6-1.1-0.6
				s-1.1,0.3-1.3,0.8c-0.1,0.3-0.2,0.7-0.2,1.1v3.9H9.8V84h1.8v1.1c0.2-0.4,0.5-0.6,0.7-0.8c0.4-0.3,0.9-0.4,1.5-0.4
				C14.5,83.8,15.1,84,15.6,84.4z"/>
			<path class="st2" d="M30.8,84c0.3,0.1,0.6,0.3,0.8,0.6c0.2,0.3,0.3,0.6,0.4,0.9c0,0.2,0.1,0.6,0.1,1.1v4.5h-1.9v-4.6
				c0-0.3,0-0.5-0.1-0.7c-0.2-0.3-0.5-0.5-0.9-0.5c-0.5,0-0.9,0.2-1.1,0.6c-0.1,0.2-0.2,0.5-0.2,0.8V91H26v-4.3c0-0.4,0-0.7-0.1-0.9
				c-0.2-0.3-0.5-0.5-0.9-0.5c-0.5,0-0.9,0.2-1.1,0.5c-0.1,0.2-0.2,0.5-0.2,0.9V91h-1.9v-7h1.8v1.1c0.2-0.4,0.5-0.6,0.7-0.8
				c0.4-0.3,0.8-0.4,1.4-0.4s1,0.1,1.3,0.4c0.3,0.2,0.5,0.5,0.6,0.9c0.2-0.4,0.6-0.7,0.9-0.9c0.4-0.2,0.8-0.3,1.3-0.3
				C30.2,83.9,30.5,83.9,30.8,84z"/>
			<path class="st2" d="M36.7,86.8c0.4,0,0.6-0.1,0.8-0.2c0.3-0.1,0.4-0.3,0.4-0.5c0-0.3-0.1-0.5-0.3-0.6s-0.5-0.2-0.9-0.2
				c-0.5,0-0.8,0.1-1,0.3c-0.1,0.2-0.2,0.4-0.3,0.7h-1.8c0-0.6,0.2-1.1,0.5-1.6c0.5-0.6,1.4-1,2.6-1c0.8,0,1.5,0.2,2.1,0.5
				s0.9,0.9,0.9,1.8v3.3c0,0.2,0,0.5,0,0.8c0,0.2,0.1,0.4,0.1,0.5c0.1,0.1,0.2,0.2,0.3,0.2v0.3h-2C38,91,38,90.8,38,90.7
				s0-0.3-0.1-0.4c-0.3,0.3-0.6,0.5-0.9,0.7c-0.4,0.2-0.9,0.4-1.4,0.4c-0.7,0-1.2-0.2-1.6-0.6c-0.4-0.4-0.6-0.9-0.6-1.6
				c0-0.9,0.3-1.5,1-1.9c0.4-0.2,0.9-0.4,1.7-0.5L36.7,86.8z M37.9,87.7c-0.1,0.1-0.2,0.1-0.4,0.2c-0.1,0-0.3,0.1-0.5,0.1l-0.4,0.1
				c-0.4,0.1-0.7,0.2-0.9,0.3c-0.3,0.2-0.4,0.4-0.4,0.8c0,0.3,0.1,0.6,0.3,0.7s0.4,0.2,0.7,0.2c0.4,0,0.8-0.1,1.1-0.4
				c0.3-0.2,0.5-0.7,0.5-1.3C37.9,88.4,37.9,87.7,37.9,87.7z"/>
			<path class="st2" d="M40.6,92.6c0.1,0,0.2,0,0.2,0h0.1c0.2,0,0.3,0,0.4-0.1c0.1-0.1,0.1-0.3,0.1-0.5v-7.9h1.9V92
				c0,0.7-0.1,1.3-0.4,1.6c-0.3,0.3-0.8,0.5-1.7,0.5c-0.1,0-0.1,0-0.3,0c-0.1,0-0.3,0-0.4,0v-1.5H40.6z M43.4,83.2h-1.9v-1.7h1.9
				V83.2z"/>
			<path class="st2" d="M51.2,90.3c-0.6,0.8-1.5,1.1-2.8,1.1c-1.2,0-2.2-0.4-2.8-1.1c-0.6-0.8-0.9-1.7-0.9-2.7s0.3-1.9,0.9-2.7
				c0.6-0.8,1.5-1.1,2.8-1.1c1.2,0,2.2,0.4,2.8,1.1c0.6,0.8,0.9,1.7,0.9,2.7C52.1,88.7,51.8,89.6,51.2,90.3z M49.7,89.3
				c0.3-0.4,0.4-0.9,0.4-1.7S50,86.4,49.7,86s-0.7-0.6-1.3-0.6s-1,0.2-1.3,0.6s-0.4,0.9-0.4,1.7s0.1,1.3,0.4,1.7
				c0.3,0.4,0.7,0.6,1.3,0.6C48.9,89.9,49.4,89.7,49.7,89.3z"/>
			<path class="st2" d="M57.4,83.8c0,0,0.1,0,0.2,0v1.9c-0.1,0-0.2,0-0.3,0s-0.2,0-0.2,0c-0.8,0-1.3,0.2-1.5,0.7
				c-0.1,0.3-0.2,0.7-0.2,1.3v3.4h-1.9V84h1.8v1.3c0.3-0.5,0.5-0.8,0.8-1C56.3,84,56.8,83.8,57.4,83.8L57.4,83.8z"/>
			<path class="st2" d="M106.8,90.3c-0.6,0.8-1.5,1.1-2.8,1.1c-1.2,0-2.2-0.4-2.8-1.1c-0.6-0.8-0.9-1.7-0.9-2.7s0.3-1.9,0.9-2.7
				c0.6-0.8,1.5-1.1,2.8-1.1c1.2,0,2.2,0.4,2.8,1.1s0.9,1.7,0.9,2.7C107.7,88.7,107.4,89.6,106.8,90.3z M105.3,89.3
				c0.3-0.4,0.4-0.9,0.4-1.7s-0.1-1.3-0.4-1.7c-0.3-0.4-0.7-0.6-1.3-0.6c-0.6,0-1,0.2-1.3,0.6s-0.4,0.9-0.4,1.7s0.1,1.3,0.4,1.7
				c0.3,0.4,0.7,0.6,1.3,0.6S105,89.7,105.3,89.3z"/>
			<path class="st2" d="M112,81.4c0.1,0,0.2,0,0.4,0V83c-0.1,0-0.3,0-0.5,0s-0.4,0-0.5,0.2c-0.1,0.1-0.1,0.2-0.1,0.4
				c0,0.1,0,0.3,0,0.6h1.2v1.3h-1.2v5.8h-1.9v-5.8h-1.1v-1.3h1v-0.5c0-0.8,0.1-1.3,0.4-1.6c0.3-0.4,0.9-0.6,2-0.6
				C111.8,81.4,111.9,81.4,112,81.4z"/>
			<path class="st2" d="M124.7,82.5c0.3,0.4,0.4,0.9,0.4,1.5s-0.2,1.1-0.5,1.4c-0.2,0.2-0.4,0.4-0.7,0.6c0.5,0.2,0.9,0.5,1.1,0.9
				c0.3,0.4,0.4,0.9,0.4,1.4c0,0.6-0.1,1.1-0.4,1.6c-0.2,0.3-0.4,0.6-0.7,0.8c-0.3,0.2-0.7,0.4-1.1,0.5c-0.4,0.1-0.9,0.1-1.4,0.1
				h-4.4v-9.7h4.7C123.4,81.5,124.2,81.8,124.7,82.5z M119.4,83.2v2.1h2.4c0.4,0,0.8-0.1,1-0.2c0.3-0.2,0.4-0.4,0.4-0.9
				s-0.2-0.8-0.5-0.9s-0.7-0.2-1.2-0.2L119.4,83.2L119.4,83.2z M119.4,86.9v2.6h2.4c0.4,0,0.8-0.1,1-0.2c0.4-0.2,0.6-0.6,0.6-1.2
				c0-0.5-0.2-0.9-0.6-1c-0.2-0.1-0.6-0.2-1-0.2C121.8,86.9,119.4,86.9,119.4,86.9z"/>
			<path class="st2" d="M129,83.2h-1.9v-1.7h1.9V83.2z M127.1,84h1.9v7.2h-1.9V84z"/>
			<path class="st2" d="M136,84.1c0.4,0.2,0.7,0.4,0.9,0.7c0.2,0.3,0.3,0.5,0.4,0.8c0,0.3,0.1,0.7,0.1,1.4v4.2h-2v-4.4
				c0-0.4-0.1-0.7-0.2-0.9c-0.2-0.3-0.5-0.5-1-0.5s-0.9,0.2-1.1,0.5s-0.4,0.8-0.4,1.4v3.9h-1.9v-9.7h1.9V85c0.3-0.4,0.6-0.7,0.9-0.9
				c0.4-0.2,0.7-0.2,1.1-0.2C135.3,83.8,135.7,83.9,136,84.1z"/>
			<path class="st2" d="M142,86.8c0.4,0,0.6-0.1,0.8-0.2c0.3-0.1,0.4-0.3,0.4-0.5c0-0.3-0.1-0.5-0.3-0.6s-0.5-0.2-0.9-0.2
				c-0.5,0-0.8,0.1-1,0.3c-0.1,0.2-0.2,0.4-0.3,0.7h-1.8c0-0.6,0.2-1.1,0.5-1.6c0.5-0.6,1.4-1,2.6-1c0.8,0,1.5,0.2,2.1,0.5
				s0.9,0.9,0.9,1.8v3.3c0,0.2,0,0.5,0,0.8c0,0.2,0.1,0.4,0.1,0.5c0.1,0.1,0.2,0.2,0.3,0.2v0.3h-2c-0.1-0.1-0.1-0.3-0.1-0.4
				s0-0.3-0.1-0.4c-0.3,0.3-0.6,0.5-0.9,0.7c-0.4,0.2-0.9,0.4-1.4,0.4c-0.7,0-1.2-0.2-1.6-0.6c-0.4-0.4-0.6-0.9-0.6-1.6
				c0-0.9,0.3-1.5,1-1.9c0.4-0.2,0.9-0.4,1.7-0.5L142,86.8z M143.1,87.7c-0.1,0.1-0.2,0.1-0.4,0.2c-0.1,0-0.3,0.1-0.5,0.1l-0.4,0.1
				c-0.4,0.1-0.7,0.2-0.9,0.3c-0.3,0.2-0.4,0.4-0.4,0.8c0,0.3,0.1,0.6,0.3,0.7s0.4,0.2,0.7,0.2c0.4,0,0.8-0.1,1.1-0.4
				s0.5-0.7,0.5-1.3L143.1,87.7L143.1,87.7z"/>
			<path class="st2" d="M150.7,83.8c0,0,0.1,0,0.2,0v1.9c-0.1,0-0.2,0-0.3,0s-0.2,0-0.2,0c-0.8,0-1.3,0.2-1.5,0.7
				c-0.1,0.3-0.2,0.7-0.2,1.3v3.4h-1.9V84h1.8v1.3c0.3-0.5,0.5-0.8,0.8-1C149.6,84,150,83.8,150.7,83.8
				C150.6,83.8,150.6,83.8,150.7,83.8z"/>
			<g>
				<path class="st2" d="M149.9,89.5h1.8v1.8h-1.8V89.5z"/>
			</g>
		</g>
		<g>
			<path class="st1" d="M22.4,32c1.9,3.2,2.8,7.9,2.8,13.8c0,6-0.9,10.6-2.8,13.8c-1.9,3.2-5.1,4.8-9.7,4.8S4.9,62.8,3,59.6
				s-2.8-7.8-2.8-13.8S1.1,35.2,3,32s5.1-4.9,9.7-4.9C17.3,27.2,20.5,28.8,22.4,32z M8.5,55.4c0.7,2.2,2.1,3.3,4.2,3.3
				s3.5-1.1,4.2-3.3c0.7-2.2,1-5.4,1-9.6c0-4.4-0.3-7.6-1-9.7c-0.7-2.1-2-3.1-4.2-3.1c-2.1,0-3.5,1-4.2,3.1s-1,5.3-1,9.7
				C7.5,50,7.8,53.2,8.5,55.4z"/>
			<path class="st1" d="M31.9,30.7c2.2-2.4,5.1-3.6,8.7-3.6c5.5,0,9.3,2.4,11.3,7.3c1.2,2.8,1.7,6.4,1.7,10.9c0,4.4-0.6,8-1.7,11
				c-2.1,5.6-6,8.4-11.7,8.4c-2.7,0-5.2-0.8-7.3-2.4c-2.2-1.6-3.4-3.9-3.7-7h7.1c0.2,1.1,0.6,1.9,1.3,2.6c0.7,0.7,1.7,1,2.9,1
				c2.3,0,4-1.3,4.9-3.9c0.5-1.4,0.8-3.5,1-6.3c-0.6,0.8-1.3,1.4-2.1,1.9c-1.3,0.8-3,1.2-4.9,1.2c-2.9,0-5.4-1-7.7-3
				c-2.2-2-3.3-4.9-3.3-8.6C28.6,36.3,29.7,33.1,31.9,30.7z M43.9,45.1c1.6-1,2.4-2.8,2.4-5.4c0-2-0.5-3.7-1.4-4.9
				c-1-1.2-2.3-1.8-3.9-1.8c-1.2,0-2.3,0.3-3.1,1c-1.4,1.1-2,2.9-2,5.4c0,2.1,0.4,3.8,1.3,4.8c0.9,1.1,2.2,1.6,4,1.6
				C42.1,46,43,45.7,43.9,45.1z"/>
		</g>
	</g>
</g>
<g>
	<path class="st2" d="M66.7,86.5c0-0.3-0.1-0.5-0.3-0.7c-0.2-0.3-0.6-0.4-1-0.4c-0.6,0-1.1,0.3-1.3,1c-0.1,0.3-0.2,0.8-0.2,1.4
		c0,0.5,0.1,1,0.2,1.3c0.2,0.6,0.7,0.9,1.3,0.9c0.4,0,0.8-0.1,1-0.4c0.2-0.2,0.3-0.6,0.3-0.9h2c0,0.6-0.3,1.1-0.6,1.7
		c-0.6,0.8-1.5,1.3-2.7,1.3s-2-0.3-2.6-1c-0.6-0.7-0.8-1.6-0.8-2.7c0-1.3,0.3-2.2,0.9-2.9c0.6-0.7,1.5-1,2.5-1
		c0.9,0,1.7,0.2,2.3,0.6c0.6,0.4,0.9,1.1,1,2.2H66.7z"/>
	<path class="st2" d="M71.9,83H70v-1.8h1.9V83z M70,83.9h1.9v7.3H70V83.9z"/>
	<path class="st2" d="M73,85.3v-1.4h1v-2h1.9v2h1.2v1.4h-1.2v3.9c0,0.3,0,0.5,0.1,0.6s0.3,0.1,0.7,0.1c0.1,0,0.1,0,0.2,0
		c0.1,0,0.1,0,0.2,0v1.4l-0.9,0c-0.9,0-1.5-0.1-1.9-0.5c-0.2-0.2-0.3-0.6-0.3-1v-4.5H73z"/>
	<path class="st2" d="M80.3,83h-1.9v-1.8h1.9V83z M78.4,83.9h1.9v7.3h-1.9V83.9z"/>
	<path class="st2" d="M87,84c0.5,0.2,0.9,0.6,1.3,1.1c0.3,0.4,0.5,0.9,0.6,1.5c0.1,0.3,0.1,0.8,0.1,1.5h-5.3c0,0.7,0.3,1.3,0.8,1.5
		c0.3,0.2,0.6,0.3,1.1,0.3c0.4,0,0.8-0.1,1.1-0.3c0.1-0.1,0.3-0.3,0.4-0.5h2c-0.1,0.4-0.3,0.9-0.7,1.3c-0.7,0.7-1.6,1.1-2.8,1.1
		c-1,0-1.8-0.3-2.6-0.9s-1.1-1.6-1.1-2.9c0-1.3,0.3-2.2,1-2.9c0.7-0.7,1.5-1,2.6-1C85.9,83.7,86.5,83.8,87,84z M84.1,85.7
		c-0.3,0.3-0.4,0.7-0.5,1.1h3.3c0-0.5-0.2-0.9-0.5-1.2c-0.3-0.3-0.7-0.4-1.1-0.4C84.8,85.3,84.4,85.4,84.1,85.7z"/>
	<path class="st2" d="M91.3,88.9c0,0.3,0.1,0.6,0.3,0.7c0.2,0.3,0.7,0.4,1.3,0.4c0.4,0,0.7-0.1,0.9-0.2s0.3-0.3,0.3-0.5
		c0-0.2-0.1-0.4-0.3-0.5s-0.8-0.3-2-0.6c-0.8-0.2-1.4-0.5-1.8-0.8c-0.3-0.3-0.5-0.7-0.5-1.3c0-0.7,0.3-1.3,0.8-1.7
		c0.5-0.5,1.3-0.7,2.2-0.7c0.9,0,1.7,0.2,2.2,0.5c0.6,0.4,0.9,1,1,1.9H94c0-0.2-0.1-0.4-0.2-0.6c-0.2-0.3-0.6-0.4-1.1-0.4
		c-0.4,0-0.7,0.1-0.9,0.2c-0.2,0.1-0.3,0.3-0.3,0.5c0,0.2,0.1,0.4,0.3,0.5c0.2,0.1,0.9,0.3,2,0.5c0.8,0.2,1.3,0.5,1.7,0.8
		c0.4,0.4,0.6,0.8,0.6,1.4c0,0.7-0.3,1.3-0.8,1.8c-0.5,0.5-1.4,0.7-2.5,0.7c-1.2,0-2-0.2-2.6-0.7c-0.6-0.5-0.8-1.1-0.8-1.9H91.3z"/>
</g>
<text transform="matrix(1 0 0 1 64.957 135.8353)" class="st2" style="font-family:'Helvetica-Bold'; font-size:13.7821px;">cities</text>
</svg>
