<svg xmlns="http://www.w3.org/2000/svg" viewBox="0 0 216.84 97.2"><defs><style>.cls-1{fill:#86868b;}.cls-2{fill:#f5f5f7;}.cls-3{fill:#ccc;}</style></defs><g id="Layer_2" data-name="Layer 2"><g id="Layer_1-2" data-name="Layer 1"><path class="cls-1" d="M3.82,0H5.25v4.3h5.42V0h1.42V10.46H10.67V5.58H5.25v4.88H3.82Z"/><path class="cls-1" d="M19.65,3.62a3.8,3.8,0,0,1,1,2.88,4.91,4.91,0,0,1-.9,3A3.22,3.22,0,0,1,17,10.73a3.14,3.14,0,0,1-2.49-1.06,4.21,4.21,0,0,1-.92-2.85,4.54,4.54,0,0,1,1-3.05,3.28,3.28,0,0,1,2.61-1.13A3.39,3.39,0,0,1,19.65,3.62Zm-.79,5.05a4.71,4.71,0,0,0,.48-2.14A3.77,3.77,0,0,0,19,4.8a1.89,1.89,0,0,0-1.85-1,1.85,1.85,0,0,0-1.71.9A4.15,4.15,0,0,0,14.9,6.8a3.61,3.61,0,0,0,.53,2,1.88,1.88,0,0,0,1.69.81A1.75,1.75,0,0,0,18.86,8.67Z"/><path class="cls-1" d="M22.19,2.86h1.26V3.94a4.18,4.18,0,0,1,.82-.82,2.47,2.47,0,0,1,1.44-.43,2.31,2.31,0,0,1,1.46.44,2.63,2.63,0,0,1,.56.76,2.86,2.86,0,0,1,1-.91A2.91,2.91,0,0,1,30,2.69a2.12,2.12,0,0,1,2.09,1.1,3.64,3.64,0,0,1,.3,1.61v5.06H31.08V5.18a1.19,1.19,0,0,0-.38-1,1.49,1.49,0,0,0-.92-.29,1.82,1.82,0,0,0-1.3.51A2.2,2.2,0,0,0,27.94,6v4.42h-1.3v-5a2.64,2.64,0,0,0-.18-1.13,1.13,1.13,0,0,0-1.09-.53,1.83,1.83,0,0,0-1.31.56,2.72,2.72,0,0,0-.6,2v4H22.19Z"/><path class="cls-1" d="M39,3.07a2.87,2.87,0,0,1,1.15,1,3.39,3.39,0,0,1,.52,1.34,9.35,9.35,0,0,1,.11,1.67H35.23a3.23,3.23,0,0,0,.55,1.86,1.81,1.81,0,0,0,1.58.7A2,2,0,0,0,39,9a2.29,2.29,0,0,0,.49-.89h1.25a2.49,2.49,0,0,1-.33.93,3,3,0,0,1-.63.85,3,3,0,0,1-1.44.76,4.1,4.1,0,0,1-1,.11,3.18,3.18,0,0,1-2.4-1,4,4,0,0,1-1-2.89,4.37,4.37,0,0,1,1-3,3.3,3.3,0,0,1,2.6-1.14A3.4,3.4,0,0,1,39,3.07Zm.47,3a3.45,3.45,0,0,0-.37-1.33,1.86,1.86,0,0,0-1.75-.92,1.91,1.91,0,0,0-1.47.64,2.36,2.36,0,0,0-.63,1.61Z"/><path class="cls-1" d="M43.13,8.07a1.83,1.83,0,0,0,.31,1,2,2,0,0,0,1.68.62,2.44,2.44,0,0,0,1.25-.31,1,1,0,0,0,.54-.95.82.82,0,0,0-.44-.75,5.56,5.56,0,0,0-1.09-.36l-1-.26a5,5,0,0,1-1.44-.54,1.62,1.62,0,0,1-.82-1.43,2.17,2.17,0,0,1,.78-1.74A3.07,3.07,0,0,1,45,2.66a2.89,2.89,0,0,1,2.47,1A2.14,2.14,0,0,1,47.91,5h-1.2a1.48,1.48,0,0,0-.31-.78,1.92,1.92,0,0,0-1.52-.51,1.81,1.81,0,0,0-1.1.28.86.86,0,0,0-.37.73.88.88,0,0,0,.49.79,2.89,2.89,0,0,0,.84.32l.84.2a6.27,6.27,0,0,1,1.84.65,1.7,1.7,0,0,1,.75,1.54A2.36,2.36,0,0,1,47.4,10a3.29,3.29,0,0,1-2.35.74,3.15,3.15,0,0,1-2.4-.77,2.91,2.91,0,0,1-.75-1.91Z"/><path class="cls-1" d="M53.9,0h4.22a4,4,0,0,1,3.33,1.52,5.6,5.6,0,0,1,1.06,3.53,7.15,7.15,0,0,1-.62,3,3.86,3.86,0,0,1-3.78,2.37H53.9Zm3.94,9.21A3.82,3.82,0,0,0,59,9.1,2.58,2.58,0,0,0,60.36,8,4.28,4.28,0,0,0,61,6.42a5.44,5.44,0,0,0,.11-1.09,5.11,5.11,0,0,0-.77-3,2.85,2.85,0,0,0-2.48-1.07h-2.5v8Z"/><path class="cls-1" d="M68.89,3.07a2.87,2.87,0,0,1,1.15,1,3.23,3.23,0,0,1,.51,1.34,8.3,8.3,0,0,1,.12,1.67H65.1a3.23,3.23,0,0,0,.55,1.86,1.81,1.81,0,0,0,1.58.7A2,2,0,0,0,68.82,9a2.29,2.29,0,0,0,.49-.89h1.25a2.49,2.49,0,0,1-.33.93,3.19,3.19,0,0,1-.63.85,3,3,0,0,1-1.44.76,4.1,4.1,0,0,1-1,.11,3.18,3.18,0,0,1-2.4-1,4,4,0,0,1-1-2.89,4.37,4.37,0,0,1,1-3,3.3,3.3,0,0,1,2.6-1.14A3.4,3.4,0,0,1,68.89,3.07Zm.47,3A3.45,3.45,0,0,0,69,4.72a1.86,1.86,0,0,0-1.75-.92,1.91,1.91,0,0,0-1.47.64,2.36,2.36,0,0,0-.63,1.61Z"/><path class="cls-1" d="M72.27,0h1.28V10.46H72.27Z"/><path class="cls-1" d="M75.46,0h1.3V1.48h-1.3Zm0,2.85h1.3v7.57h-1.3Z"/><path class="cls-1" d="M79.31,2.86l2,6.18,2.12-6.18h1.4L82,10.46H80.63l-2.8-7.6Z"/><path class="cls-1" d="M90.69,3.07a2.87,2.87,0,0,1,1.15,1,3.23,3.23,0,0,1,.51,1.34,8.3,8.3,0,0,1,.12,1.67H86.9a3.23,3.23,0,0,0,.54,1.86,1.83,1.83,0,0,0,1.59.7A2,2,0,0,0,90.62,9a2.14,2.14,0,0,0,.48-.89h1.26A2.49,2.49,0,0,1,92,9a3.42,3.42,0,0,1-.63.85,3,3,0,0,1-1.44.76,4.15,4.15,0,0,1-1,.11,3.2,3.2,0,0,1-2.41-1,4,4,0,0,1-1-2.89,4.37,4.37,0,0,1,1-3,3.28,3.28,0,0,1,2.6-1.14A3.4,3.4,0,0,1,90.69,3.07Zm.46,3a3.29,3.29,0,0,0-.36-1.33A1.86,1.86,0,0,0,89,3.8a1.93,1.93,0,0,0-1.48.64,2.45,2.45,0,0,0-.63,1.61Z"/><path class="cls-1" d="M94.07,2.86h1.21V4.17A2.86,2.86,0,0,1,96,3.24a1.89,1.89,0,0,1,1.34-.55h.12l.29,0V4.07l-.21,0h-.21a1.81,1.81,0,0,0-1.48.62,2.19,2.19,0,0,0-.52,1.43v4.37H94.07Z"/><path class="cls-1" d="M103.6,3.07a2.9,2.9,0,0,1,1.16,1,3.53,3.53,0,0,1,.51,1.34,9.35,9.35,0,0,1,.11,1.67H99.81a3.31,3.31,0,0,0,.55,1.86,1.82,1.82,0,0,0,1.58.7,2.05,2.05,0,0,0,1.6-.66,2.26,2.26,0,0,0,.48-.89h1.26A2.9,2.9,0,0,1,105,9a3.42,3.42,0,0,1-.63.85,3,3,0,0,1-1.44.76,4.2,4.2,0,0,1-1,.11,3.2,3.2,0,0,1-2.41-1,4,4,0,0,1-1-2.89,4.37,4.37,0,0,1,1-3A3.28,3.28,0,0,1,102,2.69,3.37,3.37,0,0,1,103.6,3.07Zm.47,3a3.29,3.29,0,0,0-.36-1.33A1.87,1.87,0,0,0,102,3.8a1.93,1.93,0,0,0-1.48.64,2.36,2.36,0,0,0-.63,1.61Z"/><path class="cls-1" d="M111.14,3.09a3.3,3.3,0,0,1,.78.75V0h1.22V10.46H112V9.4a2.66,2.66,0,0,1-1,1,3,3,0,0,1-1.4.31,2.82,2.82,0,0,1-2.2-1.06,4.17,4.17,0,0,1-.93-2.84,4.87,4.87,0,0,1,.85-2.88,3,3,0,0,1,3.88-.85Zm-2.86,5.7a1.8,1.8,0,0,0,1.66.82,1.73,1.73,0,0,0,1.45-.76A3.62,3.62,0,0,0,112,6.66a3.24,3.24,0,0,0-.58-2.13,1.86,1.86,0,0,0-1.46-.69,1.9,1.9,0,0,0-1.56.74,3.36,3.36,0,0,0-.6,2.17A3.73,3.73,0,0,0,108.28,8.79Z"/><path class="cls-2" d="M26,32.94a45.38,45.38,0,0,0-4.52,5.69,49.72,49.72,0,0,0-4.84,8.44,48.68,48.68,0,0,0-2.79,8.35,34.75,34.75,0,0,0-1.25,8.11H5.14Q5.47,53.65,11.63,43a48.6,48.6,0,0,1,6.66-9.21H0L.1,27.3H26Z"/><path class="cls-2" d="M47.75,31.5q2.82,4.94,2.82,14t-2.82,14c-1.89,3.27-5.16,4.91-9.84,4.91S30,62.8,28.07,59.53s-2.82-8-2.82-14,.94-10.74,2.82-14,5.16-4.94,9.84-4.94S45.86,28.21,47.75,31.5ZM33.66,55.21c.69,2.24,2.11,3.35,4.25,3.35s3.55-1.11,4.22-3.35a36.09,36.09,0,0,0,1-9.68,35.73,35.73,0,0,0-1-9.83,4.1,4.1,0,0,0-4.22-3.19,4.15,4.15,0,0,0-4.25,3.19c-.7,2.13-1,5.4-1,9.83A34.25,34.25,0,0,0,33.66,55.21Z"/><path class="cls-2" d="M72.69,31.5q2.84,4.94,2.83,14t-2.83,14q-2.82,4.91-9.83,4.91T53,59.53q-2.82-4.92-2.82-14T53,31.5q2.82-4.93,9.84-4.94T72.69,31.5ZM58.6,55.21c.7,2.24,2.11,3.35,4.26,3.35a4.11,4.11,0,0,0,4.21-3.35,35.68,35.68,0,0,0,1-9.68,35.34,35.34,0,0,0-1-9.83,4.08,4.08,0,0,0-4.21-3.19A4.16,4.16,0,0,0,58.6,35.7a34.36,34.36,0,0,0-1,9.83A34.69,34.69,0,0,0,58.6,55.21Z"/><path class="cls-2" d="M80.88,55.92V51.11h7.56V43.54H93.3v7.57h7.56v4.81H93.3v7.61H88.44V55.92Z"/><path class="cls-2" d="M112.48,63.53V38.67h5.16v9.48h9.66V38.67h5.16V63.53H127.3V52.43h-9.66v11.1Z"/><path class="cls-2" d="M150.67,61.28q-2.32,2.86-7.07,2.87t-7.06-2.87a11.4,11.4,0,0,1,0-13.81c1.55-1.94,3.9-2.92,7.06-2.92s5.52,1,7.07,2.92a11.4,11.4,0,0,1,0,13.81Zm-3.84-2.66A7,7,0,0,0,148,54.36a6.94,6.94,0,0,0-1.13-4.25,4.28,4.28,0,0,0-6.49,0,6.87,6.87,0,0,0-1.14,4.25,6.92,6.92,0,0,0,1.14,4.26,4.26,4.26,0,0,0,6.49,0Z"/><path class="cls-2" d="M177.65,45.21a5.48,5.48,0,0,1,2.14,1.65,5.4,5.4,0,0,1,1,2.37,15.39,15.39,0,0,1,.17,2.71l0,11.59H176V51.82a3.94,3.94,0,0,0-.33-1.72,2.42,2.42,0,0,0-2.37-1.28,2.75,2.75,0,0,0-2.74,1.65,5.2,5.2,0,0,0-.39,2.11v11h-4.84v-11A6.07,6.07,0,0,0,165,50.2a2.36,2.36,0,0,0-2.38-1.33,2.84,2.84,0,0,0-2.76,1.33,5.12,5.12,0,0,0-.39,2.26V63.53h-4.87V45.18h4.67v2.68a7.63,7.63,0,0,1,1.68-2,6.68,6.68,0,0,1,7-.15,5.43,5.43,0,0,1,1.58,2.21A6,6,0,0,1,172,45.5a7.07,7.07,0,0,1,3.3-.76A6.53,6.53,0,0,1,177.65,45.21Z"/><path class="cls-2" d="M195.67,45.52a7.49,7.49,0,0,1,3.18,2.72,9,9,0,0,1,1.46,3.8,22.52,22.52,0,0,1,.16,3.64H187.08A4.43,4.43,0,0,0,189,59.56a4.92,4.92,0,0,0,2.66.69,4.06,4.06,0,0,0,2.66-.84,3.8,3.8,0,0,0,1-1.26h4.91a6,6,0,0,1-1.78,3.32,8.93,8.93,0,0,1-6.92,2.68,10,10,0,0,1-6.47-2.26q-2.81-2.27-2.81-7.36c0-3.18.85-5.63,2.53-7.33a8.86,8.86,0,0,1,6.58-2.54A10.35,10.35,0,0,1,195.67,45.52Zm-7.19,4.15a5,5,0,0,0-1.28,2.84h8.28a4,4,0,0,0-1.28-2.9,4.23,4.23,0,0,0-2.85-1A3.82,3.82,0,0,0,188.48,49.67Z"/><path class="cls-2" d="M204.9,57.66a3.19,3.19,0,0,0,.66,1.82,4.49,4.49,0,0,0,3.32,1,5.14,5.14,0,0,0,2.27-.42,1.42,1.42,0,0,0,.16-2.5,28.15,28.15,0,0,0-5-1.45,10.25,10.25,0,0,1-4.41-1.94,4.17,4.17,0,0,1-1.29-3.3,5.72,5.72,0,0,1,2-4.38,8,8,0,0,1,5.63-1.83A10.33,10.33,0,0,1,213.84,46a5.85,5.85,0,0,1,2.49,4.74h-4.8a2.76,2.76,0,0,0-.53-1.46,3.27,3.27,0,0,0-2.7-1,3.85,3.85,0,0,0-2.24.49,1.39,1.39,0,0,0-.67,1.14,1.26,1.26,0,0,0,.71,1.2,30.79,30.79,0,0,0,5,1.33,9.19,9.19,0,0,1,4.3,2A4.64,4.64,0,0,1,216.84,58a5.57,5.57,0,0,1-2,4.46q-2,1.72-6.29,1.73t-6.41-1.83A5.94,5.94,0,0,1,200,57.66Z"/><path class="cls-3" d="M4.78,94.08V83.62H7v4H11v-4h2.17V94.08H11V89.41H7v4.67Z"/><path class="cls-3" d="M18.18,89.37A3,3,0,0,0,19,89.2a.62.62,0,0,0,.43-.58.68.68,0,0,0-.33-.66,2.11,2.11,0,0,0-1-.18,1.27,1.27,0,0,0-1,.36,1.49,1.49,0,0,0-.29.71H14.84a2.93,2.93,0,0,1,.57-1.67,3.34,3.34,0,0,1,2.77-1,5,5,0,0,1,2.26.5,1.94,1.94,0,0,1,1,1.9v3.55c0,.25,0,.54,0,.89a1.1,1.1,0,0,0,.13.54.64.64,0,0,0,.29.24v.3h-2.2a2.25,2.25,0,0,1-.12-.44,3.16,3.16,0,0,1-.06-.47,4.07,4.07,0,0,1-1,.77,2.94,2.94,0,0,1-1.48.38,2.56,2.56,0,0,1-1.75-.6,2.14,2.14,0,0,1-.69-1.7A2.21,2.21,0,0,1,15.7,90a5,5,0,0,1,1.79-.49Zm1.24.95a2.09,2.09,0,0,1-.4.19,2.94,2.94,0,0,1-.54.14l-.46.08a3.14,3.14,0,0,0-.93.28.93.93,0,0,0-.48.86.9.9,0,0,0,.3.75,1.12,1.12,0,0,0,.71.23,2.11,2.11,0,0,0,1.22-.39,1.63,1.63,0,0,0,.58-1.39Z"/><path class="cls-3" d="M29.7,87.17a4.14,4.14,0,0,1,.94,2.94,4.6,4.6,0,0,1-.92,3.11,3,3,0,0,1-2.38,1.07,2.47,2.47,0,0,1-1.54-.46,2.7,2.7,0,0,1-.66-.74v4h-2V86.34h1.94v1.15a3.11,3.11,0,0,1,.7-.8,2.61,2.61,0,0,1,1.61-.52A3.08,3.08,0,0,1,29.7,87.17Zm-1.55,1.46a1.44,1.44,0,0,0-1.34-.69,1.53,1.53,0,0,0-1.53,1,4,4,0,0,0-.21,1.41,2.22,2.22,0,0,0,.72,1.89,1.7,1.7,0,0,0,1,.32,1.49,1.49,0,0,0,1.3-.65,3.42,3.42,0,0,0,0-3.32Z"/><path class="cls-3" d="M38.57,87.17a4.14,4.14,0,0,1,1,2.94,4.6,4.6,0,0,1-.93,3.11,3,3,0,0,1-2.38,1.07,2.47,2.47,0,0,1-1.54-.46,3.07,3.07,0,0,1-.66-.74v4H32V86.34H34v1.15a3.11,3.11,0,0,1,.7-.8,2.61,2.61,0,0,1,1.61-.52A3.08,3.08,0,0,1,38.57,87.17ZM37,88.63a1.43,1.43,0,0,0-1.34-.69,1.52,1.52,0,0,0-1.52,1,3.79,3.79,0,0,0-.22,1.41,2.19,2.19,0,0,0,.73,1.89,1.65,1.65,0,0,0,1,.32A1.48,1.48,0,0,0,37,92a3,3,0,0,0,.45-1.74A3,3,0,0,0,37,88.63Z"/><path class="cls-3" d="M41.25,95.56h.25a3.54,3.54,0,0,0,.57,0,1.09,1.09,0,0,0,.46-.16,1.23,1.23,0,0,0,.33-.51,1.31,1.31,0,0,0,.13-.46l-2.84-8.08h2.24l1.69,5.71,1.6-5.71h2.15L45.18,94A10.47,10.47,0,0,1,44,96.67a2.28,2.28,0,0,1-1.79.53h-.43l-.49,0Z"/><path class="cls-3" d="M57.68,89.12a1.64,1.64,0,0,0-.29-.78,1.21,1.21,0,0,0-1.06-.47,1.4,1.4,0,0,0-1.4,1,4.31,4.31,0,0,0-.2,1.43,4,4,0,0,0,.2,1.37,1.35,1.35,0,0,0,1.37,1,1.23,1.23,0,0,0,1-.38,1.9,1.9,0,0,0,.36-1h2.06A3.38,3.38,0,0,1,59.07,93a3.25,3.25,0,0,1-2.82,1.33,3.3,3.3,0,0,1-2.75-1.11,4.45,4.45,0,0,1-.88-2.87,4.51,4.51,0,0,1,1-3.09,3.38,3.38,0,0,1,2.69-1.11,4.08,4.08,0,0,1,2.38.65,3,3,0,0,1,1.09,2.31Z"/><path class="cls-3" d="M63.2,94.08h-2V83.62h2Z"/><path class="cls-3" d="M67.25,85.42h-2V83.56h2Zm-2,.92h2v7.74h-2Z"/><path class="cls-3" d="M74.25,86.5a3.1,3.1,0,0,1,1.33,1.14,3.75,3.75,0,0,1,.62,1.6,10.48,10.48,0,0,1,.07,1.54H70.64a1.87,1.87,0,0,0,.8,1.63,2.1,2.1,0,0,0,1.12.29,1.69,1.69,0,0,0,1.12-.36,1.54,1.54,0,0,0,.42-.53h2.06a2.46,2.46,0,0,1-.75,1.4,3.76,3.76,0,0,1-2.91,1.13,4.23,4.23,0,0,1-2.72-1,3.75,3.75,0,0,1-1.18-3.1,4.17,4.17,0,0,1,1.06-3.08,3.76,3.76,0,0,1,2.77-1.07A4.45,4.45,0,0,1,74.25,86.5Zm-3,1.75a2.08,2.08,0,0,0-.53,1.19h3.48a1.72,1.72,0,0,0-.54-1.22,1.76,1.76,0,0,0-1.2-.42A1.6,1.6,0,0,0,71.22,88.25Z"/><path class="cls-3" d="M83.52,86.79a2.54,2.54,0,0,1,.76,2.08v5.21H82.21V89.37a2.1,2.1,0,0,0-.16-.93,1.14,1.14,0,0,0-1.13-.6,1.39,1.39,0,0,0-1.4.87,3.05,3.05,0,0,0-.2,1.18v4.19h-2V86.36h2v1.13a3.16,3.16,0,0,1,.74-.86,2.53,2.53,0,0,1,1.57-.47A2.93,2.93,0,0,1,83.52,86.79Z"/><path class="cls-3" d="M85.37,87.85V86.42h1.08V84.26h2v2.16H89.7v1.43H88.45v4.09a.91.91,0,0,0,.12.59c.08.08.32.12.73.12h.4v1.51l-1,0a2.59,2.59,0,0,1-1.95-.49,1.49,1.49,0,0,1-.34-1.08V87.85Z"/><path class="cls-3" d="M92.57,91.61a1.25,1.25,0,0,0,.28.76,1.86,1.86,0,0,0,1.39.41,2.09,2.09,0,0,0,1-.18.57.57,0,0,0,.36-.53.58.58,0,0,0-.29-.52,11.49,11.49,0,0,0-2.11-.61,4.39,4.39,0,0,1-1.86-.82,1.76,1.76,0,0,1-.54-1.39,2.43,2.43,0,0,1,.84-1.84A3.43,3.43,0,0,1,94,86.12a4.42,4.42,0,0,1,2.37.58,2.48,2.48,0,0,1,1,2h-2a1.12,1.12,0,0,0-.22-.62A1.39,1.39,0,0,0,94,87.67a1.65,1.65,0,0,0-1,.21.59.59,0,0,0-.28.48.52.52,0,0,0,.3.5,12.26,12.26,0,0,0,2.11.56,3.87,3.87,0,0,1,1.81.86,1.94,1.94,0,0,1,.6,1.45,2.35,2.35,0,0,1-.86,1.88,5.13,5.13,0,0,1-5.34,0,2.52,2.52,0,0,1-.87-2Z"/><path class="cls-3" d="M106.18,89.37a3,3,0,0,0,.8-.17.63.63,0,0,0,.44-.58.68.68,0,0,0-.33-.66,2.16,2.16,0,0,0-1-.18,1.26,1.26,0,0,0-1,.36,1.4,1.4,0,0,0-.29.71h-2a2.93,2.93,0,0,1,.57-1.67,3.32,3.32,0,0,1,2.76-1,5,5,0,0,1,2.27.5,1.94,1.94,0,0,1,1,1.9v3.55c0,.25,0,.54,0,.89a1.26,1.26,0,0,0,.12.54.73.73,0,0,0,.3.24v.3h-2.2a3.45,3.45,0,0,1-.13-.44c0-.14,0-.3,0-.47a4.27,4.27,0,0,1-1,.77,3,3,0,0,1-1.49.38,2.56,2.56,0,0,1-1.74-.6,2.14,2.14,0,0,1-.69-1.7A2.21,2.21,0,0,1,103.7,90a5,5,0,0,1,1.78-.49Zm1.23.95a2.33,2.33,0,0,1-.39.19,2.94,2.94,0,0,1-.54.14l-.46.08a3.14,3.14,0,0,0-.93.28,1.05,1.05,0,0,0-.19,1.61,1.14,1.14,0,0,0,.71.23,2.08,2.08,0,0,0,1.22-.39,1.58,1.58,0,0,0,.58-1.39Z"/><path class="cls-3" d="M117.43,86.79a2.58,2.58,0,0,1,.76,2.08v5.21h-2.07V89.37a2.08,2.08,0,0,0-.17-.93,1.12,1.12,0,0,0-1.12-.6,1.39,1.39,0,0,0-1.4.87,3.05,3.05,0,0,0-.2,1.18v4.19h-2V86.36h2v1.13a3.15,3.15,0,0,1,.73-.86,2.56,2.56,0,0,1,1.58-.47A3,3,0,0,1,117.43,86.79Z"/><path class="cls-3" d="M124.17,86.47a2.39,2.39,0,0,1,.88.85V83.63h2V94.08h-2V93a2.79,2.79,0,0,1-1,1,2.72,2.72,0,0,1-1.37.32,2.86,2.86,0,0,1-2.28-1.1,4.2,4.2,0,0,1-.93-2.81,4.85,4.85,0,0,1,.91-3.12,3,3,0,0,1,2.44-1.13A2.47,2.47,0,0,1,124.17,86.47Zm.49,5.51a2.83,2.83,0,0,0,.45-1.66,2.54,2.54,0,0,0-.72-2,1.55,1.55,0,0,0-1-.36,1.42,1.42,0,0,0-1.3.67,3.05,3.05,0,0,0-.41,1.66,3.09,3.09,0,0,0,.42,1.71,1.42,1.42,0,0,0,1.28.64A1.48,1.48,0,0,0,124.66,92Z"/><path class="cls-3" d="M135.13,94.08H133V83.62h2.17Z"/><path class="cls-3" d="M143.25,86.79a2.58,2.58,0,0,1,.76,2.08v5.21h-2.07V89.37a2.08,2.08,0,0,0-.17-.93,1.12,1.12,0,0,0-1.12-.6,1.39,1.39,0,0,0-1.4.87,2.88,2.88,0,0,0-.2,1.18v4.19h-2V86.36H139v1.13a3.34,3.34,0,0,1,.74-.86,2.55,2.55,0,0,1,1.57-.47A3,3,0,0,1,143.25,86.79Z"/><path class="cls-3" d="M150.65,86.34h2.17L150,94.08H147.9l-2.78-7.74h2.27L149,92.05Z"/><path class="cls-3" d="M159,86.5a3.13,3.13,0,0,1,1.34,1.14,3.88,3.88,0,0,1,.62,1.6,10.76,10.76,0,0,1,.06,1.54h-5.63a1.85,1.85,0,0,0,.81,1.63,2.08,2.08,0,0,0,1.11.29,1.72,1.72,0,0,0,1.13-.36,1.65,1.65,0,0,0,.41-.53h2.07a2.59,2.59,0,0,1-.75,1.4,3.79,3.79,0,0,1-2.91,1.13,4.26,4.26,0,0,1-2.73-1,3.79,3.79,0,0,1-1.18-3.1,4.18,4.18,0,0,1,1.07-3.08,3.74,3.74,0,0,1,2.76-1.07A4.41,4.41,0,0,1,159,86.5Zm-3,1.75a2,2,0,0,0-.54,1.19h3.48a1.65,1.65,0,0,0-.54-1.22,1.75,1.75,0,0,0-1.19-.42A1.58,1.58,0,0,0,156,88.25Z"/><path class="cls-3" d="M163.61,91.61a1.32,1.32,0,0,0,.28.76,1.89,1.89,0,0,0,1.4.41,2.12,2.12,0,0,0,1-.18.58.58,0,0,0,.35-.53.57.57,0,0,0-.28-.52,11.73,11.73,0,0,0-2.12-.61,4.39,4.39,0,0,1-1.86-.82,1.79,1.79,0,0,1-.53-1.39,2.43,2.43,0,0,1,.84-1.84,3.4,3.4,0,0,1,2.37-.77,4.39,4.39,0,0,1,2.36.58,2.48,2.48,0,0,1,1,2h-2a1.2,1.2,0,0,0-.22-.62,1.4,1.4,0,0,0-1.14-.41,1.61,1.61,0,0,0-.94.21.56.56,0,0,0-.28.48.52.52,0,0,0,.3.5,12.26,12.26,0,0,0,2.11.56,3.92,3.92,0,0,1,1.81.86,2,2,0,0,1,.59,1.45,2.34,2.34,0,0,1-.85,1.88,5.15,5.15,0,0,1-5.35,0,2.52,2.52,0,0,1-.87-2Z"/><path class="cls-3" d="M169.33,87.85V86.42h1.08V84.26h2v2.16h1.25v1.43h-1.25v4.09a.91.91,0,0,0,.12.59c.08.08.32.12.73.12h.4v1.51l-.95,0a2.6,2.6,0,0,1-2-.49,1.49,1.49,0,0,1-.34-1.08V87.85Z"/><path class="cls-3" d="M181.41,93.13a4.26,4.26,0,0,1-5.95,0,4.84,4.84,0,0,1,0-5.81,4.24,4.24,0,0,1,5.95,0,4.8,4.8,0,0,1,0,5.81ZM179.79,92a3.58,3.58,0,0,0,0-3.58,1.61,1.61,0,0,0-1.36-.63,1.62,1.62,0,0,0-1.37.63,3.58,3.58,0,0,0,0,3.58,1.62,1.62,0,0,0,1.37.63A1.61,1.61,0,0,0,179.79,92Z"/><path class="cls-3" d="M188.13,86.16h.17v2.08l-.34,0h-.24a1.68,1.68,0,0,0-1.64.79,3.21,3.21,0,0,0-.23,1.38v3.7h-2V86.34h1.93v1.35a4.41,4.41,0,0,1,.82-1.06,2.25,2.25,0,0,1,1.47-.47Z"/><path class="cls-3" d="M191.05,91.61a1.39,1.39,0,0,0,.28.76,1.89,1.89,0,0,0,1.4.41,2.09,2.09,0,0,0,1-.18.56.56,0,0,0,.35-.53.57.57,0,0,0-.28-.52,11.44,11.44,0,0,0-2.12-.61,4.39,4.39,0,0,1-1.85-.82,1.76,1.76,0,0,1-.54-1.39,2.43,2.43,0,0,1,.84-1.84,3.4,3.4,0,0,1,2.37-.77,4.42,4.42,0,0,1,2.37.58,2.5,2.5,0,0,1,1,2h-2a1.2,1.2,0,0,0-.22-.62,1.4,1.4,0,0,0-1.14-.41,1.61,1.61,0,0,0-.94.21.56.56,0,0,0-.28.48.52.52,0,0,0,.3.5,12.26,12.26,0,0,0,2.11.56,3.87,3.87,0,0,1,1.81.86,1.94,1.94,0,0,1,.6,1.45,2.35,2.35,0,0,1-.86,1.88,5.13,5.13,0,0,1-5.34,0,2.49,2.49,0,0,1-.88-2Z"/><path class="cls-3" d="M197.53,92h2.15v2.13h-2.15Z"/></g></g></svg>