<?xml version="1.0" encoding="utf-8"?>
<!-- Generator: Adobe Illustrator 26.0.1, SVG Export Plug-In . SVG Version: 6.00 Build 0)  -->
<svg version="1.1" id="Layer_1" xmlns="http://www.w3.org/2000/svg" xmlns:xlink="http://www.w3.org/1999/xlink" x="0px" y="0px"
	 viewBox="0 0 185.3 97.2" style="enable-background:new 0 0 185.3 97.2;" xml:space="preserve">
<style type="text/css">
	.st0{fill:#86868B;}
	.st1{fill:#F5F5F7;}
	.st2{fill:#CCCCCC;}
</style>
<g id="Layer_2_00000019643088320705843480000001381216155859936183_">
	<g id="Layer_1-2">
		<path class="st0" d="M0.7,0.2h1.6l3,5l3-5H10L6.1,6.4v4.2H4.6V6.4L0.7,0.2z"/>
		<path class="st0" d="M14.4,3.2c0.5,0.2,0.9,0.6,1.2,1C15.8,4.6,16,5,16.1,5.5c0.1,0.6,0.1,1.1,0.1,1.7h-5.6c0,0.6,0.2,1.3,0.5,1.8
			c0.4,0.5,1,0.7,1.6,0.7c0.6,0,1.2-0.2,1.6-0.7c0.2-0.3,0.4-0.6,0.5-0.9h1.3c0,0.3-0.2,0.6-0.3,0.9c-0.2,0.3-0.4,0.6-0.6,0.8
			c-0.4,0.4-0.9,0.6-1.4,0.8c-0.3,0.1-0.7,0.1-1,0.1c-0.9,0-1.8-0.3-2.4-1C9.6,9,9.2,8,9.3,6.9c0-1.1,0.3-2.2,1-3
			c0.6-0.8,1.6-1.2,2.6-1.1C13.4,2.8,13.9,2.9,14.4,3.2z M14.9,6.2c0-0.5-0.1-0.9-0.4-1.3c-0.4-0.6-1-1-1.8-0.9
			c-0.6,0-1.1,0.2-1.5,0.6c-0.4,0.4-0.6,1-0.6,1.6H14.9z"/>
		<path class="st0" d="M21.8,6c0.2,0,0.5-0.1,0.6-0.4c0.1-0.2,0.1-0.3,0.1-0.5c0.1-0.4-0.1-0.8-0.5-1c-0.4-0.2-0.9-0.3-1.3-0.3
			c-0.5-0.1-1.1,0.1-1.4,0.5C19.1,4.7,19,5,19,5.3h-1.2c-0.1-0.8,0.3-1.5,0.9-2c0.6-0.4,1.3-0.6,2-0.5c0.8,0,1.5,0.1,2.2,0.5
			c0.5,0.3,0.9,0.9,0.8,1.6v4.4c0,0.1,0,0.2,0.1,0.3c0,0.1,0.2,0.1,0.3,0.1h0.2h0.2v0.9c-0.1,0-0.3,0.1-0.5,0.1h-0.4
			c-0.4,0-0.7-0.1-1-0.5c-0.1-0.2-0.2-0.5-0.2-0.7c-0.3,0.4-0.7,0.7-1.1,0.9c-0.5,0.3-1.1,0.4-1.6,0.4c-0.6,0-1.3-0.2-1.7-0.6
			c-0.4-0.4-0.7-1-0.7-1.6C17.4,8,17.6,7.4,18,7c0.5-0.4,1.1-0.7,1.7-0.7L21.8,6z M19.2,9.4c0.3,0.2,0.6,0.3,1,0.3
			c0.5,0,0.9-0.1,1.3-0.3c0.7-0.3,1.1-1,1.1-1.7v-1c-0.2,0.1-0.4,0.2-0.6,0.2c-0.2,0.1-0.5,0.1-0.7,0.1l-0.8,0.1
			c-0.3,0-0.7,0.1-1,0.3c-0.4,0.2-0.6,0.6-0.6,1.1C18.8,8.9,18.9,9.2,19.2,9.4z"/>
		<path class="st0" d="M25.9,3h1.2v1.3c0.2-0.4,0.4-0.7,0.7-0.9c0.4-0.3,0.8-0.5,1.3-0.5h0.1h0.3v1.4h-0.2h-0.2
			c-0.6,0-1.1,0.2-1.5,0.6c-0.3,0.4-0.5,0.9-0.5,1.4v4.4h-1.3V3z"/>
		<path class="st0" d="M31.5,8.2c0,0.4,0.1,0.7,0.3,1c0.4,0.5,1,0.7,1.7,0.6c0.4,0,0.9-0.1,1.2-0.3c0.4-0.2,0.6-0.6,0.5-1
			c0-0.3-0.2-0.6-0.4-0.8c-0.4-0.2-0.7-0.3-1.1-0.4l-1-0.2c-0.5-0.1-1-0.3-1.4-0.5c-0.5-0.3-0.8-0.8-0.8-1.4c0-0.7,0.3-1.3,0.8-1.7
			c0.6-0.5,1.3-0.7,2.1-0.7c0.9-0.1,1.9,0.3,2.5,1c0.3,0.4,0.5,0.9,0.5,1.4H35c0-0.3-0.1-0.6-0.3-0.8c-0.4-0.4-1-0.6-1.5-0.5
			c-0.4,0-0.8,0.1-1.1,0.3c-0.4,0.3-0.5,0.9-0.2,1.3c0.1,0.1,0.2,0.2,0.3,0.3c0.3,0.1,0.5,0.3,0.8,0.3l0.8,0.2
			c0.6,0.1,1.3,0.3,1.8,0.6c0.5,0.3,0.8,0.9,0.7,1.5c0,0.7-0.3,1.3-0.8,1.8c-0.7,0.5-1.5,0.8-2.3,0.7c-0.9,0.1-1.7-0.2-2.4-0.8
			c-0.5-0.5-0.7-1.2-0.8-1.9L31.5,8.2z"/>
		<path class="st0" d="M47.5,3.7c0.7,0.8,1.1,1.8,1,2.9c0,1.1-0.3,2.1-0.9,3c-0.7,0.8-1.7,1.3-2.8,1.2c-0.9,0-1.9-0.4-2.5-1.1
			c-0.6-0.8-1-1.8-0.9-2.8c-0.1-1.1,0.3-2.2,1-3c0.6-0.8,1.6-1.2,2.6-1.1C46,2.7,46.9,3.1,47.5,3.7z M46.7,8.8
			c0.3-0.7,0.5-1.4,0.5-2.1c0-0.6-0.1-1.2-0.3-1.7c-0.4-0.7-1.1-1.1-1.9-1c-0.7,0-1.4,0.3-1.7,0.9c-0.4,0.7-0.6,1.4-0.5,2.2
			c0,0.7,0.2,1.4,0.5,2c0.4,0.5,1,0.8,1.7,0.8C45.7,9.8,46.4,9.4,46.7,8.8z"/>
		<path class="st0" d="M50.7,0.6c0.4-0.5,1.1-0.7,1.7-0.6h0.2h0.3v1.2h-0.3h-0.2c-0.4,0-0.6,0.1-0.7,0.3c-0.1,0.5-0.1,1-0.1,1.5h1.3
			v1h-1.3v6.6h-1.3V4h-1.1V3h1.1V1.8C50.4,1.4,50.5,1,50.7,0.6z"/>
		<path class="st0" d="M58.4,0.2H66v1.3h-6.2v3.2h5.8v1.2h-5.8v3.5h6.3v1.2h-7.7V0.2z"/>
		<path class="st0" d="M67.1,3h1.7l1.7,2.7L72.3,3h1.6l-2.6,3.7l2.7,3.9h-1.6l-1.9-2.8l-1.8,2.8H67l2.7-3.9L67.1,3z"/>
		<path class="st0" d="M75,3h1.2v1c0.2-0.3,0.5-0.6,0.8-0.8c0.5-0.3,1-0.4,1.5-0.4c0.8,0,1.6,0.4,2.2,1c0.6,0.8,1,1.8,0.9,2.8
			c0.1,1.3-0.3,2.6-1.3,3.5c-0.5,0.4-1.2,0.7-1.9,0.7c-0.5,0-1-0.1-1.5-0.4c-0.3-0.2-0.5-0.4-0.8-0.7v3.9H75V3z M79.8,9
			c0.4-0.7,0.7-1.4,0.6-2.2c0-0.5-0.1-1.1-0.3-1.6c-0.4-1-1.5-1.5-2.5-1.1c-0.6,0.2-1,0.7-1.2,1.2c-0.2,0.6-0.3,1.1-0.3,1.7
			c0,0.5,0.1,1,0.3,1.5c0.4,1,1.5,1.4,2.5,1C79.3,9.4,79.6,9.2,79.8,9L79.8,9z"/>
		<path class="st0" d="M87.9,3.2c0.5,0.2,0.9,0.6,1.2,1c0.3,0.4,0.4,0.9,0.5,1.3c0.1,0.6,0.1,1.1,0.1,1.7h-5.6
			c0,0.6,0.2,1.3,0.6,1.8c0.4,0.5,1,0.7,1.6,0.7c0.6,0,1.2-0.2,1.6-0.7c0.2-0.3,0.4-0.6,0.5-0.9h1.3c-0.1,0.3-0.2,0.6-0.3,0.9
			c-0.2,0.3-0.4,0.6-0.6,0.8c-0.4,0.4-0.9,0.6-1.4,0.8c-0.3,0.1-0.7,0.1-1,0.1c-0.9,0-1.8-0.3-2.4-1c-0.7-0.8-1.1-1.8-1-2.9
			c0-1.1,0.3-2.2,1-3c0.6-0.7,1.6-1.1,2.6-1.1C86.9,2.8,87.4,2.9,87.9,3.2z M88.4,6.2c0-0.5-0.2-0.9-0.4-1.3c-0.4-0.6-1-1-1.8-0.9
			c-0.6,0-1.1,0.2-1.5,0.6c-0.4,0.4-0.6,1-0.6,1.6L88.4,6.2z"/>
		<path class="st0" d="M91.3,3h1.2v1.3c0.2-0.4,0.4-0.7,0.7-0.9c0.4-0.4,0.8-0.5,1.3-0.5h0.1H95v1.4h-0.2h-0.2
			c-0.6,0-1.1,0.2-1.5,0.6c-0.3,0.4-0.5,0.9-0.5,1.4v4.4h-1.3V3z"/>
		<path class="st0" d="M96.1,0.2h1.3v1.5h-1.3V0.2z M96.1,3h1.3v7.6h-1.3V3z"/>
		<path class="st0" d="M104.1,3.2c0.5,0.2,0.9,0.6,1.2,1c0.3,0.4,0.4,0.9,0.5,1.3c0.1,0.6,0.1,1.1,0.1,1.7h-5.6
			c0,0.6,0.2,1.3,0.5,1.8c0.4,0.5,1,0.7,1.6,0.7c0.6,0,1.2-0.2,1.6-0.6c0.2-0.3,0.4-0.6,0.5-0.9h1.3c0,0.3-0.2,0.6-0.3,0.9
			c-0.2,0.3-0.4,0.6-0.6,0.8c-0.4,0.4-0.9,0.6-1.4,0.8c-0.3,0.1-0.7,0.1-1,0.1c-0.9,0-1.8-0.3-2.4-1c-0.7-0.8-1.1-1.8-1-2.9
			c0-1.1,0.3-2.2,1-3c0.6-0.8,1.6-1.2,2.6-1.1C103.1,2.8,103.6,2.9,104.1,3.2z M104.5,6.2c0-0.5-0.1-0.9-0.4-1.3
			c-0.4-0.6-1-1-1.8-0.9c-0.6,0-1.1,0.2-1.5,0.6c-0.4,0.4-0.6,1-0.6,1.6H104.5z"/>
		<path class="st0" d="M107.4,3h1.2v1.1c0.3-0.4,0.7-0.8,1.1-1c0.4-0.2,0.9-0.3,1.3-0.3c0.9-0.1,1.8,0.3,2.2,1.1
			c0.2,0.6,0.3,1.2,0.3,1.8v4.9h-1.3V5.8c0-0.4-0.1-0.8-0.2-1.1c-0.2-0.5-0.7-0.7-1.2-0.7c-0.3,0-0.5,0-0.8,0.1
			c-0.4,0.1-0.7,0.3-0.9,0.6c-0.2,0.2-0.3,0.5-0.4,0.8c-0.1,0.4-0.1,0.8-0.1,1.2v4h-1.3V3z"/>
		<path class="st0" d="M120.5,3.4c0.6,0.5,1,1.3,1,2.2h-1.2c-0.1-0.4-0.2-0.8-0.5-1.2c-0.3-0.3-0.8-0.5-1.3-0.5
			c-0.8,0-1.5,0.5-1.7,1.2c-0.2,0.6-0.4,1.2-0.3,1.9c0,0.7,0.1,1.3,0.5,1.9c0.3,0.5,0.9,0.8,1.5,0.8c0.5,0,0.9-0.2,1.3-0.5
			c0.3-0.4,0.6-0.8,0.6-1.3h1.2c-0.1,0.8-0.4,1.6-1.1,2.2c-0.6,0.5-1.4,0.7-2.2,0.7c-0.9,0-1.8-0.4-2.4-1.1C115.3,8.9,115,8,115,7
			c-0.1-1.1,0.3-2.2,1-3.1c0.6-0.7,1.5-1.1,2.5-1.1C119.2,2.7,119.9,3,120.5,3.4z"/>
		<path class="st0" d="M127.5,3.2c0.5,0.2,0.9,0.6,1.1,1c0.3,0.4,0.4,0.9,0.5,1.3c0.1,0.6,0.1,1.1,0.1,1.7h-5.6
			c0,0.6,0.2,1.3,0.6,1.8c0.4,0.5,1,0.7,1.6,0.7c0.6,0,1.2-0.2,1.6-0.7c0.2-0.3,0.4-0.6,0.5-0.9h1.2c0,0.3-0.2,0.6-0.3,0.9
			c-0.2,0.3-0.4,0.6-0.6,0.8c-0.4,0.4-0.9,0.7-1.4,0.8c-0.3,0.1-0.7,0.1-1,0.1c-0.9,0-1.8-0.3-2.4-1c-0.7-0.8-1.1-1.8-1-2.9
			c0-1.1,0.3-2.2,1-3c0.7-0.8,1.6-1.2,2.6-1.1C126.5,2.8,127,2.9,127.5,3.2z M127.9,6.2c0-0.5-0.2-0.9-0.4-1.3c-0.4-0.6-1-1-1.8-0.9
			c-0.6,0-1.1,0.2-1.5,0.6c-0.4,0.4-0.6,1-0.6,1.6H127.9z"/>
		<path class="st1" d="M0,38.3v-4.9c1.6,0,3.2-0.2,4.8-0.4c1.4-0.3,2.6-1,3.5-2c0.7-0.7,1.2-1.6,1.4-2.6c0.2-0.5,0.2-1,0.3-1.5h6
			v36.7H8.6V38.3H0z"/>
		<path class="st1" d="M53.7,56v-4.8h7.6v-7.6h4.8v7.6h7.6V56h-7.6v7.6h-4.8V56H53.7z"/>
		<path class="st1" d="M99.5,38.8h5.9L97,54.3v9.3h-5.2v-9.3l-8.6-15.5h6.1l5.2,10.8L99.5,38.8z"/>
		<path class="st1" d="M116.3,45.6c1.3,0.6,2.4,1.5,3.2,2.7c0.8,1.1,1.3,2.4,1.5,3.8c0.1,1.2,0.2,2.4,0.2,3.7h-13.4
			c-0.1,1.5,0.6,3,1.9,3.9c0.8,0.5,1.7,0.7,2.7,0.7c1,0,1.9-0.3,2.7-0.8c0.4-0.3,0.8-0.8,1-1.3h4.9c-0.2,1.3-0.9,2.4-1.8,3.3
			c-1.8,1.9-4.3,2.8-6.9,2.7c-2.4,0-4.7-0.8-6.5-2.3c-1.9-1.5-2.8-4-2.8-7.4c0-3.2,0.8-5.6,2.5-7.3c1.8-1.7,4.1-2.7,6.6-2.5
			C113.5,44.8,114.9,45,116.3,45.6z M109.1,49.8c-0.7,0.8-1.2,1.8-1.3,2.8h8.3c0-1.1-0.5-2.2-1.3-2.9c-0.8-0.7-1.8-1-2.8-1
			C110.9,48.7,109.9,49,109.1,49.8z"/>
		<path class="st1" d="M129.1,52.5c0.7-0.1,1.3-0.2,1.9-0.5c0.6-0.2,1-0.7,1-1.4c0.1-0.6-0.3-1.2-0.8-1.6c-0.7-0.3-1.5-0.5-2.3-0.4
			c-0.9-0.1-1.8,0.2-2.4,0.8c-0.4,0.5-0.6,1.1-0.7,1.7h-4.6c0-1.4,0.5-2.8,1.4-4c1.3-1.6,3.5-2.4,6.6-2.4c1.9,0,3.7,0.4,5.4,1.2
			c1.6,0.8,2.4,2.3,2.4,4.5V59c0,0.6,0,1.3,0,2.1c0,0.4,0.1,0.9,0.3,1.3c0.2,0.2,0.4,0.4,0.7,0.5v0.7h-5.2c-0.1-0.3-0.2-0.7-0.3-1
			c-0.1-0.3-0.1-0.7-0.1-1.1c-0.7,0.7-1.4,1.3-2.3,1.8c-1.1,0.6-2.3,0.9-3.5,0.9c-1.5,0.1-3-0.4-4.2-1.4c-1.1-1-1.7-2.5-1.6-4
			c-0.1-2,0.9-3.9,2.6-4.9c1.3-0.7,2.8-1.1,4.2-1.2L129.1,52.5z M132,54.7c-0.3,0.2-0.6,0.3-0.9,0.5c-0.4,0.1-0.9,0.2-1.3,0.3
			l-1.1,0.2c-0.8,0.1-1.5,0.3-2.2,0.7c-0.7,0.4-1.2,1.2-1.1,2c-0.1,0.7,0.2,1.3,0.7,1.8c0.5,0.4,1.1,0.6,1.7,0.5
			c1,0,2.1-0.3,2.9-0.9c1-0.8,1.5-2,1.4-3.3V54.7z"/>
		<path class="st1" d="M149.5,44.8h0.4v4.9c-0.3,0-0.6-0.1-0.8-0.1h-0.6c-1.9,0-3.2,0.6-3.9,1.9c-0.4,1-0.6,2.2-0.6,3.3v8.8h-4.8
			V45.3h4.6v3.2c0.5-0.9,1.2-1.7,1.9-2.5c1-0.8,2.2-1.2,3.5-1.1L149.5,44.8z"/>
		<path class="st1" d="M154.7,57.8c0,0.7,0.3,1.3,0.7,1.8c0.9,0.8,2.1,1.1,3.3,1c0.8,0,1.5-0.1,2.3-0.4c0.5-0.2,0.8-0.7,0.8-1.3
			c0-0.5-0.2-1-0.7-1.2c-1.6-0.6-3.3-1.1-5-1.5c-1.6-0.3-3.1-1-4.4-1.9c-0.9-0.9-1.4-2.1-1.3-3.3c0-1.7,0.7-3.3,2-4.4
			c1.6-1.3,3.5-2,5.6-1.9c2-0.1,3.9,0.4,5.6,1.4c1.5,1.1,2.5,2.9,2.5,4.8h-4.8c0-0.5-0.2-1-0.5-1.5c-0.7-0.7-1.7-1.1-2.7-1
			c-0.8-0.1-1.6,0.1-2.2,0.5c-0.4,0.2-0.7,0.7-0.7,1.2c0,0.5,0.3,1,0.7,1.2c1.6,0.6,3.3,1,5,1.3c1.6,0.3,3.1,1,4.3,2
			c0.9,0.9,1.4,2.2,1.4,3.5c0.1,1.7-0.7,3.4-2,4.5c-1.3,1.2-3.4,1.7-6.3,1.7s-5-0.6-6.4-1.8c-1.4-1.2-2.1-2.9-2.1-4.7L154.7,57.8z"
			/>
		<path class="st2" d="M10.3,84.8c0.3,0.5,0.5,1,0.5,1.6c0,0.6-0.1,1.1-0.5,1.6c-0.2,0.3-0.5,0.5-0.8,0.6c0.5,0.2,0.9,0.5,1.2,0.9
			c0.3,0.4,0.4,1,0.4,1.5c0,0.6-0.1,1.2-0.5,1.7c-0.4,0.7-1.1,1.2-1.9,1.3c-0.5,0.1-1,0.1-1.5,0.1H2.5V83.7h5.1
			C8.6,83.6,9.6,84.1,10.3,84.8z M4.6,85.5v2.3h2.5c0.4,0,0.8-0.1,1.1-0.2c0.3-0.2,0.5-0.6,0.4-0.9c0.1-0.4-0.2-0.8-0.6-1
			c-0.4-0.1-0.8-0.2-1.2-0.2L4.6,85.5z M4.6,89.5v2.8h2.5c0.4,0,0.7,0,1.1-0.2c0.5-0.3,0.7-0.8,0.7-1.3c0-0.5-0.2-0.9-0.7-1.1
			c-0.3-0.1-0.7-0.2-1-0.2H4.6z"/>
		<path class="st2" d="M17.9,86.6c0.5,0.3,1,0.7,1.3,1.2c0.3,0.5,0.5,1,0.6,1.6c0.1,0.5,0.1,1,0.1,1.5h-5.6c0,0.6,0.3,1.3,0.8,1.6
			c0.3,0.2,0.7,0.3,1.1,0.3c0.6,0,1.3-0.3,1.5-0.9h2.1c-0.1,0.5-0.4,1-0.8,1.4c-0.8,0.8-1.8,1.2-2.9,1.1c-1,0-2-0.4-2.7-1
			c-0.9-0.8-1.3-1.9-1.2-3.1c-0.1-1.1,0.3-2.2,1.1-3.1c0.7-0.7,1.7-1.1,2.8-1.1C16.7,86.2,17.3,86.3,17.9,86.6z M14.9,88.4
			c-0.3,0.3-0.5,0.8-0.5,1.2h3.5c0-0.5-0.2-0.9-0.5-1.2c-0.3-0.3-0.8-0.4-1.2-0.4C15.6,87.9,15.2,88.1,14.9,88.4L14.9,88.4z"/>
		<path class="st2" d="M27.1,86.9c0.6,0.5,0.8,1.3,0.8,2.1v5.2h-2.1v-4.7c0-0.3,0-0.6-0.2-0.9c-0.2-0.4-0.7-0.7-1.1-0.6
			c-0.6,0-1.2,0.3-1.4,0.9C23,89.2,23,89.6,23,90v4.2h-2v-7.7h2v1.1c0.2-0.3,0.4-0.6,0.7-0.9c0.5-0.3,1-0.5,1.6-0.5
			C26,86.3,26.6,86.5,27.1,86.9z"/>
		<path class="st2" d="M34.4,89.2c0-0.3-0.1-0.5-0.3-0.8c-0.3-0.3-0.7-0.5-1.1-0.5c-0.6,0-1.2,0.4-1.4,1c-0.1,0.5-0.2,0.9-0.2,1.4
			c0,0.5,0.1,0.9,0.2,1.4c0.2,0.6,0.7,1,1.4,1c0.4,0,0.7-0.1,1-0.4c0.2-0.3,0.3-0.6,0.4-1h2.1c-0.1,0.6-0.3,1.2-0.7,1.7
			c-0.7,0.9-1.7,1.4-2.8,1.3c-1,0.1-2.1-0.3-2.8-1.1c-0.6-0.8-0.9-1.8-0.9-2.9c-0.1-1.1,0.3-2.2,1-3.1c0.7-0.7,1.6-1.1,2.6-1.1
			c0.8,0,1.7,0.2,2.4,0.7c0.7,0.6,1.1,1.4,1.1,2.3L34.4,89.2z"/>
		<path class="st2" d="M43.4,86.5c0.4,0.2,0.7,0.4,1,0.8c0.2,0.3,0.3,0.6,0.4,0.9c0.1,0.5,0.1,1,0.1,1.5v4.6h-2.1v-4.7
			c0-0.3-0.1-0.7-0.2-1c-0.2-0.4-0.6-0.6-1-0.5c-0.5,0-0.9,0.2-1.2,0.5c-0.3,0.4-0.5,1-0.5,1.5v4.2h-2V83.8h2v3.7
			c0.2-0.4,0.6-0.7,1-0.9c0.4-0.2,0.8-0.3,1.2-0.3C42.6,86.2,43,86.3,43.4,86.5z"/>
		<path class="st2" d="M56.4,86.5c0.7,0.3,1.2,0.9,1.3,1.7c0.1,0.4,0.1,0.8,0.1,1.2v4.9h-2.1v-4.9c0-0.3,0-0.5-0.2-0.7
			c-0.2-0.4-0.6-0.6-1-0.5c-0.5,0-1,0.2-1.2,0.7c-0.1,0.3-0.2,0.6-0.2,0.9v4.6h-2v-4.6c0-0.3,0-0.7-0.2-1c-0.2-0.4-0.6-0.6-1-0.6
			c-0.5-0.1-0.9,0.2-1.2,0.6c-0.1,0.3-0.2,0.7-0.2,1v4.7h-2v-7.8h2v1.1c0.2-0.3,0.4-0.6,0.7-0.9c0.4-0.3,1-0.5,1.5-0.4
			c0.5,0,1,0.1,1.4,0.4c0.3,0.2,0.5,0.6,0.7,0.9c0.2-0.4,0.6-0.8,1-1c0.4-0.2,0.9-0.3,1.4-0.3C55.8,86.3,56.1,86.4,56.4,86.5z"/>
		<path class="st2" d="M62.7,89.5c0.3,0,0.5-0.1,0.8-0.2c0.3-0.1,0.4-0.3,0.4-0.6c0-0.3-0.1-0.5-0.3-0.7c-0.3-0.1-0.7-0.2-1-0.2
			c-0.4,0-0.7,0.1-1,0.3c-0.2,0.2-0.3,0.5-0.3,0.7h-2c0-0.6,0.3-1.2,0.6-1.7c0.7-0.7,1.7-1.1,2.8-1c0.8,0,1.6,0.2,2.3,0.5
			c0.7,0.4,1.1,1.1,1,1.9v3.5c0,0.2,0,0.6,0,0.9c0,0.2,0,0.4,0.1,0.5c0.1,0.1,0.2,0.2,0.3,0.2v0.3h-2.2c-0.1-0.1-0.1-0.3-0.1-0.4
			c0-0.1,0-0.3-0.1-0.5c-0.3,0.3-0.6,0.6-1,0.8c-0.5,0.3-1,0.4-1.5,0.4c-0.6,0-1.3-0.2-1.8-0.6c-0.9-1-0.9-2.5,0.1-3.5
			c0.1-0.1,0.2-0.2,0.4-0.3c0.6-0.3,1.2-0.4,1.8-0.5L62.7,89.5z M64,90.4c-0.1,0.1-0.3,0.1-0.4,0.2c-0.2,0.1-0.4,0.1-0.5,0.1
			l-0.5,0.1c-0.3,0-0.6,0.1-0.9,0.3c-0.3,0.2-0.5,0.5-0.5,0.9c0,0.3,0.1,0.6,0.3,0.8c0.2,0.2,0.5,0.2,0.7,0.2c0.4,0,0.9-0.1,1.2-0.4
			c0.4-0.3,0.6-0.9,0.6-1.4L64,90.4z"/>
		<path class="st2" d="M72,86.3h0.2v2.1h-0.3h-0.2c-0.7-0.1-1.3,0.2-1.6,0.8c-0.2,0.4-0.3,0.9-0.2,1.4v3.7h-2v-7.8h1.9v1.3
			c0.2-0.4,0.5-0.7,0.8-1C70.9,86.5,71.4,86.3,72,86.3L72,86.3z"/>
		<path class="st2" d="M73.4,83.8h2v5.6l2.6-2.9h2.5l-2.8,2.9l2.9,4.8h-2.5l-1.9-3.3l-0.8,0.9v2.4h-2L73.4,83.8z"/>
		<path class="st2" d="M89.6,86.6c0.4,0.2,0.7,0.5,0.9,0.9v-3.7h2.1v10.4h-2v-1.1c-0.2,0.4-0.6,0.8-1,1c-0.4,0.2-0.9,0.3-1.4,0.3
			c-0.9,0-1.7-0.4-2.3-1.1c-0.6-0.8-0.9-1.8-0.9-2.8c-0.1-1.1,0.3-2.2,0.9-3.1c0.6-0.7,1.5-1.2,2.4-1.1
			C88.8,86.3,89.2,86.4,89.6,86.6z M90.1,92.1c0.3-0.5,0.5-1.1,0.4-1.7c0.1-0.7-0.2-1.5-0.7-2c-0.3-0.2-0.6-0.4-1-0.4
			c-0.5,0-1,0.2-1.3,0.7c-0.6,1.1-0.6,2.3,0,3.4c0.3,0.4,0.8,0.7,1.3,0.7C89.3,92.8,89.8,92.5,90.1,92.1z"/>
		<path class="st2" d="M99.4,86.6c0.5,0.3,1,0.7,1.3,1.2c0.3,0.5,0.5,1,0.6,1.6c0.1,0.5,0.1,1,0.1,1.5h-5.6c0,0.6,0.3,1.3,0.8,1.6
			c0.3,0.2,0.7,0.3,1.1,0.3c0.6,0,1.3-0.3,1.5-0.9h2.1c-0.1,0.5-0.4,1-0.8,1.4c-0.8,0.8-1.8,1.2-2.9,1.1c-1,0-2-0.4-2.7-1
			c-0.9-0.8-1.3-1.9-1.2-3.1c-0.1-1.1,0.3-2.2,1.1-3.1c0.7-0.7,1.7-1.1,2.8-1.1C98.2,86.2,98.8,86.3,99.4,86.6z M96.4,88.4
			c-0.3,0.3-0.5,0.8-0.5,1.2h3.5c0-0.5-0.2-0.9-0.5-1.2c-0.3-0.3-0.8-0.4-1.2-0.4C97.2,87.9,96.7,88,96.4,88.4L96.4,88.4z"/>
		<path class="st2" d="M107.2,86.5h2.2l-2.8,7.7h-2.1l-2.8-7.7h2.3l1.6,5.7L107.2,86.5z"/>
		<path class="st2" d="M115.6,86.6c0.5,0.3,1,0.7,1.3,1.2c0.3,0.5,0.5,1,0.6,1.6c0.1,0.5,0.1,1,0.1,1.5H112c0,0.6,0.3,1.3,0.8,1.6
			c0.3,0.2,0.7,0.3,1.1,0.3c0.6,0,1.3-0.3,1.5-0.9h2.1c-0.1,0.5-0.4,1-0.8,1.4c-0.8,0.8-1.8,1.2-2.9,1.1c-1,0-2-0.4-2.7-1
			c-0.9-0.8-1.3-1.9-1.2-3.1c-0.1-1.1,0.3-2.2,1-3c0.7-0.7,1.7-1.1,2.8-1.1C114.4,86.2,115,86.4,115.6,86.6z M112.6,88.4
			c-0.3,0.3-0.5,0.8-0.5,1.2h3.5c0-0.5-0.2-0.9-0.5-1.2c-0.3-0.3-0.8-0.4-1.2-0.4C113.3,87.9,112.9,88,112.6,88.4L112.6,88.4z"/>
		<path class="st2" d="M120.7,94.2h-2V83.7h2V94.2z"/>
		<path class="st2" d="M129.1,93.2c-1.7,1.6-4.3,1.6-5.9,0c-0.7-0.8-1-1.9-1-2.9c0-1.1,0.3-2.1,1-2.9c1.6-1.6,4.3-1.6,5.9,0
			c0.7,0.8,1,1.8,1,2.9C130.1,91.4,129.8,92.4,129.1,93.2z M127.5,92.1c0.4-0.5,0.5-1.2,0.5-1.8c0-0.6-0.1-1.3-0.5-1.8
			c-0.7-0.8-1.8-0.8-2.5-0.2c-0.1,0.1-0.1,0.1-0.2,0.2c-0.4,0.5-0.5,1.2-0.5,1.8c0,0.6,0.1,1.3,0.5,1.8c0.6,0.8,1.7,0.9,2.5,0.2
			C127.3,92.3,127.4,92.2,127.5,92.1z"/>
		<path class="st2" d="M138,87.3c0.7,0.8,1,1.9,0.9,2.9c0.1,1.1-0.2,2.2-0.9,3.1c-0.6,0.7-1.5,1.1-2.4,1.1c-0.5,0-1.1-0.1-1.5-0.5
			c-0.3-0.2-0.5-0.5-0.7-0.8v4h-2V86.5h1.9v1.1c0.2-0.3,0.4-0.6,0.7-0.8c0.5-0.3,1-0.5,1.6-0.5C136.6,86.3,137.4,86.6,138,87.3z
			 M136.4,88.7c-0.3-0.5-0.8-0.7-1.3-0.7c-0.7,0-1.3,0.4-1.5,1c-0.2,0.4-0.2,0.9-0.2,1.4c-0.1,0.7,0.2,1.4,0.7,1.9
			c0.3,0.2,0.6,0.3,1,0.3c0.5,0,1-0.2,1.3-0.7c0.3-0.5,0.5-1.1,0.4-1.7C136.9,89.7,136.7,89.2,136.4,88.7L136.4,88.7z"/>
		<path class="st2" d="M150.1,86.5c0.7,0.3,1.2,0.9,1.3,1.7c0.1,0.4,0.1,0.8,0.1,1.2v4.9h-2.1v-4.9c0-0.3,0-0.5-0.1-0.7
			c-0.2-0.4-0.6-0.6-1-0.5c-0.5,0-1,0.2-1.2,0.7c-0.1,0.3-0.2,0.6-0.2,0.9v4.6h-2v-4.6c0-0.3,0-0.7-0.1-1c-0.2-0.4-0.6-0.6-1-0.6
			c-0.5-0.1-0.9,0.2-1.2,0.6c-0.1,0.3-0.2,0.7-0.2,1v4.7h-2v-7.8h2v1.1c0.2-0.3,0.4-0.6,0.7-0.9c0.9-0.6,2.1-0.6,3-0.1
			c0.3,0.2,0.5,0.6,0.7,0.9c0.2-0.4,0.6-0.8,1-1c0.4-0.2,0.9-0.3,1.4-0.3C149.5,86.3,149.8,86.4,150.1,86.5z"/>
		<path class="st2" d="M158.4,86.6c0.5,0.3,1,0.7,1.3,1.2c0.3,0.5,0.5,1,0.6,1.6c0.1,0.5,0.1,1,0.1,1.5h-5.6c0,0.6,0.3,1.3,0.8,1.6
			c0.3,0.2,0.7,0.3,1.1,0.3c0.4,0,0.8-0.1,1.1-0.3c0.2-0.2,0.3-0.3,0.4-0.5h2.1c-0.1,0.5-0.4,1-0.8,1.4c-0.8,0.8-1.8,1.2-2.9,1.1
			c-1,0-2-0.4-2.7-1c-0.9-0.8-1.3-1.9-1.2-3.1c-0.1-1.1,0.3-2.2,1.1-3.1c0.7-0.7,1.7-1.1,2.8-1.1C157.2,86.2,157.8,86.3,158.4,86.6z
			 M155.4,88.4c-0.3,0.3-0.5,0.8-0.5,1.2h3.5c0-0.5-0.2-0.9-0.5-1.2c-0.3-0.3-0.8-0.4-1.2-0.4C156.1,87.9,155.7,88,155.4,88.4
			L155.4,88.4z"/>
		<path class="st2" d="M167.6,86.9c0.6,0.5,0.8,1.3,0.8,2.1v5.2h-2.1v-4.7c0-0.3,0-0.6-0.2-0.9c-0.2-0.4-0.7-0.6-1.2-0.6
			c-0.6,0-1.2,0.3-1.4,0.9c-0.1,0.4-0.2,0.8-0.2,1.2v4.2h-2v-7.8h2v1.1c0.2-0.3,0.4-0.6,0.7-0.9c0.5-0.3,1-0.5,1.6-0.5
			C166.4,86.3,167.1,86.5,167.6,86.9z"/>
		<path class="st2" d="M169.5,88v-1.5h1.1v-2.2h2v2.2h1.3V88h-1.3v4.1c0,0.2,0,0.4,0.1,0.6c0.2,0.1,0.5,0.1,0.7,0.1h0.4v1.5h-1
			c-0.7,0.1-1.4-0.1-2-0.5c-0.2-0.3-0.4-0.7-0.3-1.1V88H169.5z"/>
		<path class="st2" d="M176.7,91.7c0,0.3,0.1,0.5,0.3,0.8c0.4,0.3,0.9,0.5,1.4,0.4c0.3,0,0.7,0,1-0.2c0.2-0.1,0.4-0.3,0.4-0.5
			c0-0.2-0.1-0.4-0.3-0.5c-0.7-0.3-1.4-0.5-2.1-0.6c-0.7-0.1-1.3-0.4-1.9-0.8c-0.4-0.4-0.6-0.9-0.5-1.4c0-0.7,0.3-1.4,0.8-1.9
			c0.7-0.6,1.5-0.8,2.4-0.8c0.8,0,1.7,0.2,2.4,0.6c0.6,0.5,1,1.2,1,2h-2c0-0.2-0.1-0.4-0.2-0.6c-0.3-0.3-0.7-0.5-1.1-0.4
			c-0.3,0-0.7,0-0.9,0.2c-0.2,0.1-0.3,0.3-0.3,0.5c0,0.2,0.1,0.4,0.3,0.5c0.7,0.2,1.4,0.4,2.1,0.6c0.7,0.1,1.3,0.4,1.8,0.8
			c0.4,0.4,0.6,0.9,0.6,1.5c0,0.7-0.3,1.4-0.9,1.9c-1.6,1-3.7,1-5.3,0c-0.6-0.5-0.9-1.2-0.9-2H176.7z"/>
		<path class="st2" d="M183.1,92.1h2.1v2.1h-2.1V92.1z"/>
		<g>
			<path class="st1" d="M22.4,56.4c1-2.4,3.5-5,7.3-7.8c3.3-2.4,5.5-4.1,6.5-5.1c1.5-1.6,2.3-3.4,2.3-5.3c0-1.6-0.4-2.8-1.3-3.9
				c-0.9-1-2.1-1.5-3.7-1.5c-2.2,0-3.7,0.8-4.5,2.5c-0.5,0.9-0.7,2.4-0.8,4.5h-7c0.1-3.1,0.7-5.7,1.7-7.6c1.9-3.7,5.4-5.5,10.3-5.5
				c3.9,0,7,1.1,9.3,3.2c2.3,2.2,3.4,5,3.4,8.6c0,2.7-0.8,5.1-2.4,7.2c-1.1,1.4-2.8,3-5.3,4.7l-2.9,2.1c-1.8,1.3-3.1,2.2-3.7,2.8
				c-0.7,0.6-1.2,1.2-1.7,2h16v6.4H20.7C20.7,61,21.3,58.6,22.4,56.4z"/>
		</g>
	</g>
</g>
</svg>
