<svg xmlns="http://www.w3.org/2000/svg" viewBox="0 0 185.3 97.23"><defs><style>.cls-1{fill:#86868b;}.cls-2{fill:#f5f5f7;}.cls-3{fill:#ccc;}</style></defs><g id="Layer_2" data-name="Layer 2"><g id="Layer_1-2" data-name="Layer 1"><path class="cls-1" d="M.7.15H2.34l3,5,3-5H10L6.05,6.37v4.2H4.64V6.37Z"/><path class="cls-1" d="M14.42,3.18a2.83,2.83,0,0,1,1.16,1,3.29,3.29,0,0,1,.51,1.34,8.35,8.35,0,0,1,.12,1.68H10.64A3.2,3.2,0,0,0,11.18,9a1.82,1.82,0,0,0,1.58.7,2.05,2.05,0,0,0,1.6-.66,2.11,2.11,0,0,0,.48-.88H16.1a2.55,2.55,0,0,1-.33.93,3.54,3.54,0,0,1-.63.84,3,3,0,0,1-1.44.76,4.13,4.13,0,0,1-1,.12,3.24,3.24,0,0,1-2.41-1,4.06,4.06,0,0,1-1-2.89,4.41,4.41,0,0,1,1-3,3.28,3.28,0,0,1,2.6-1.14A3.45,3.45,0,0,1,14.42,3.18Zm.47,3a3.24,3.24,0,0,0-.36-1.32,1.84,1.84,0,0,0-1.75-.92,2,2,0,0,0-1.48.63,2.45,2.45,0,0,0-.63,1.61Z"/><path class="cls-1" d="M21.84,6a.68.68,0,0,0,.59-.36,1.1,1.1,0,0,0,.09-.49,1,1,0,0,0-.47-1,2.45,2.45,0,0,0-1.33-.29,1.7,1.7,0,0,0-1.42.53,1.89,1.89,0,0,0-.3.89H17.81a2.19,2.19,0,0,1,.91-1.95,3.7,3.7,0,0,1,2-.55,4.14,4.14,0,0,1,2.18.51,1.74,1.74,0,0,1,.83,1.59V9.26a.58.58,0,0,0,.08.32c.05.08.17.12.34.12h.2l.22,0v.94a2.8,2.8,0,0,1-.45.11l-.43,0a1,1,0,0,1-.95-.47,1.65,1.65,0,0,1-.22-.7,3.32,3.32,0,0,1-1.12.89,3.5,3.5,0,0,1-1.61.37,2.39,2.39,0,0,1-1.73-.64,2.11,2.11,0,0,1-.67-1.6,2.07,2.07,0,0,1,.66-1.64,3.11,3.11,0,0,1,1.73-.72ZM19.16,9.42a1.47,1.47,0,0,0,.95.32,3,3,0,0,0,1.31-.31,1.76,1.76,0,0,0,1.06-1.7v-1a2.26,2.26,0,0,1-.6.25,5.06,5.06,0,0,1-.72.14l-.78.1a3,3,0,0,0-1,.29,1.15,1.15,0,0,0-.59,1.07A1,1,0,0,0,19.16,9.42Z"/><path class="cls-1" d="M25.89,3H27.1V4.28a3,3,0,0,1,.73-.93,1.94,1.94,0,0,1,1.34-.55h.12l.29,0V4.18l-.21,0h-.21a1.84,1.84,0,0,0-1.48.62,2.19,2.19,0,0,0-.52,1.43v4.37H25.89Z"/><path class="cls-1" d="M31.45,8.19a1.79,1.79,0,0,0,.32,1,2,2,0,0,0,1.67.62,2.44,2.44,0,0,0,1.25-.31,1,1,0,0,0,.54-1,.83.83,0,0,0-.43-.75,5.73,5.73,0,0,0-1.1-.36l-1-.25a4.75,4.75,0,0,1-1.43-.54,1.63,1.63,0,0,1-.83-1.44,2.18,2.18,0,0,1,.78-1.74,3.12,3.12,0,0,1,2.09-.67,2.89,2.89,0,0,1,2.47,1,2.2,2.2,0,0,1,.47,1.38H35a1.47,1.47,0,0,0-.31-.79,1.92,1.92,0,0,0-1.52-.5,1.88,1.88,0,0,0-1.1.27.9.9,0,0,0,.12,1.53,2.92,2.92,0,0,0,.84.31l.84.21a6.55,6.55,0,0,1,1.85.64,1.73,1.73,0,0,1,.74,1.54,2.34,2.34,0,0,1-.77,1.75,3.27,3.27,0,0,1-2.34.74,3.15,3.15,0,0,1-2.4-.77,2.9,2.9,0,0,1-.76-1.9Z"/><path class="cls-1" d="M47.54,3.73a3.84,3.84,0,0,1,1,2.88,5,5,0,0,1-.89,3,3.24,3.24,0,0,1-2.78,1.2,3.17,3.17,0,0,1-2.49-1.06,4.23,4.23,0,0,1-.92-2.85,4.5,4.5,0,0,1,1-3.05,3.26,3.26,0,0,1,2.61-1.14A3.47,3.47,0,0,1,47.54,3.73Zm-.8,5.06a4.77,4.77,0,0,0,.48-2.14,3.88,3.88,0,0,0-.34-1.73,1.92,1.92,0,0,0-1.86-1,1.84,1.84,0,0,0-1.71.89,4.19,4.19,0,0,0-.53,2.16,3.66,3.66,0,0,0,.53,2A1.88,1.88,0,0,0,45,9.75,1.75,1.75,0,0,0,46.74,8.79Z"/><path class="cls-1" d="M50.66.65A2,2,0,0,1,52.39,0h.24l.3,0V1.19l-.29,0h-.17q-.59,0-.69.3A5.65,5.65,0,0,0,51.66,3h1.27V4H51.65v6.56H50.39V4H49.33V3h1.06V1.82A2.39,2.39,0,0,1,50.66.65Z"/><path class="cls-1" d="M58.44.15H66V1.43H59.82V4.59h5.75v1.2H59.82V9.33h6.33v1.24H58.44Z"/><path class="cls-1" d="M67.11,3h1.65L70.5,5.65,72.27,3l1.55,0L71.26,6.67l2.68,3.9H72.3L70.42,7.72l-1.83,2.85H67l2.67-3.9Z"/><path class="cls-1" d="M75,3h1.24V4a3.31,3.31,0,0,1,.84-.8,2.73,2.73,0,0,1,1.52-.42,2.85,2.85,0,0,1,2.19,1,4,4,0,0,1,.9,2.82,4.33,4.33,0,0,1-1.3,3.55,2.91,2.91,0,0,1-1.91.67A2.61,2.61,0,0,1,77,10.45a3.35,3.35,0,0,1-.76-.73V13.6H75Zm4.79,6a3.52,3.52,0,0,0,.6-2.24,4.11,4.11,0,0,0-.27-1.56,1.92,1.92,0,0,0-3.63.07A5.46,5.46,0,0,0,76.22,7a3.9,3.9,0,0,0,.26,1.49,1.92,1.92,0,0,0,3.3.43Z"/><path class="cls-1" d="M87.9,3.18a2.9,2.9,0,0,1,1.16,1,3.6,3.6,0,0,1,.51,1.34,9.4,9.4,0,0,1,.11,1.68H84.11A3.27,3.27,0,0,0,84.66,9a1.82,1.82,0,0,0,1.58.7,2.05,2.05,0,0,0,1.6-.66,2.11,2.11,0,0,0,.48-.88h1.26a3,3,0,0,1-.33.93,3.54,3.54,0,0,1-.63.84,3,3,0,0,1-1.44.76,4.18,4.18,0,0,1-1,.12,3.24,3.24,0,0,1-2.41-1,4,4,0,0,1-1-2.89,4.41,4.41,0,0,1,1-3A3.28,3.28,0,0,1,86.33,2.8,3.49,3.49,0,0,1,87.9,3.18Zm.47,3A3.24,3.24,0,0,0,88,4.84a1.85,1.85,0,0,0-1.75-.92,2,2,0,0,0-1.48.63,2.36,2.36,0,0,0-.63,1.61Z"/><path class="cls-1" d="M91.29,3H92.5V4.28a3,3,0,0,1,.73-.93,1.92,1.92,0,0,1,1.34-.55h.12l.29,0V4.18l-.21,0h-.21a1.82,1.82,0,0,0-1.48.62,2.14,2.14,0,0,0-.52,1.43v4.37H91.29Z"/><path class="cls-1" d="M96.09.15h1.3V1.6h-1.3Zm0,2.86h1.3v7.56h-1.3Z"/><path class="cls-1" d="M104.05,3.18a2.87,2.87,0,0,1,1.15,1,3.29,3.29,0,0,1,.51,1.34,8.35,8.35,0,0,1,.12,1.68h-5.57A3.2,3.2,0,0,0,100.8,9a1.83,1.83,0,0,0,1.59.7A2,2,0,0,0,104,9.07a2.11,2.11,0,0,0,.48-.88h1.26a2.55,2.55,0,0,1-.33.93,3.54,3.54,0,0,1-.63.84,2.91,2.91,0,0,1-1.44.76,4.13,4.13,0,0,1-1,.12,3.2,3.2,0,0,1-2.4-1,4,4,0,0,1-1-2.89,4.41,4.41,0,0,1,1-3,3.28,3.28,0,0,1,2.6-1.14A3.52,3.52,0,0,1,104.05,3.18Zm.46,3a3.24,3.24,0,0,0-.36-1.32,1.84,1.84,0,0,0-1.75-.92,2,2,0,0,0-1.48.63,2.45,2.45,0,0,0-.63,1.61Z"/><path class="cls-1" d="M107.39,3h1.22V4.05a3.56,3.56,0,0,1,1.14-1,3.1,3.1,0,0,1,1.34-.29,2.2,2.2,0,0,1,2.18,1.13,4,4,0,0,1,.32,1.77v4.87h-1.3V5.78a2.54,2.54,0,0,0-.21-1.12A1.24,1.24,0,0,0,110.85,4a2.65,2.65,0,0,0-.75.09,2,2,0,0,0-.92.63,1.87,1.87,0,0,0-.41.77,4.87,4.87,0,0,0-.1,1.15v4h-1.28Z"/><path class="cls-1" d="M120.49,3.38a3,3,0,0,1,1,2.15h-1.24a2.33,2.33,0,0,0-.52-1.17,1.64,1.64,0,0,0-1.3-.47,1.79,1.79,0,0,0-1.74,1.2,4.65,4.65,0,0,0-.34,1.9,3.64,3.64,0,0,0,.48,1.93,1.66,1.66,0,0,0,1.52.78,1.68,1.68,0,0,0,1.26-.49,2.68,2.68,0,0,0,.64-1.33h1.24a3.36,3.36,0,0,1-1.06,2.21,3.32,3.32,0,0,1-2.18.7,2.91,2.91,0,0,1-2.38-1.09A4.17,4.17,0,0,1,115,7a4.56,4.56,0,0,1,1-3.11,3.12,3.12,0,0,1,2.47-1.12A3.27,3.27,0,0,1,120.49,3.38Z"/><path class="cls-1" d="M127.47,3.18a2.87,2.87,0,0,1,1.15,1,3.29,3.29,0,0,1,.51,1.34,8.35,8.35,0,0,1,.12,1.68h-5.57A3.2,3.2,0,0,0,124.23,9a1.81,1.81,0,0,0,1.58.7,2,2,0,0,0,1.59-.66,2.25,2.25,0,0,0,.49-.88h1.25a2.55,2.55,0,0,1-.33.93,3.3,3.3,0,0,1-.63.84,2.87,2.87,0,0,1-1.44.76,4.07,4.07,0,0,1-1,.12,3.21,3.21,0,0,1-2.4-1,4,4,0,0,1-1-2.89,4.41,4.41,0,0,1,1-3,3.3,3.3,0,0,1,2.6-1.14A3.52,3.52,0,0,1,127.47,3.18Zm.47,3a3.4,3.4,0,0,0-.37-1.32,1.84,1.84,0,0,0-1.75-.92,1.94,1.94,0,0,0-1.47.63,2.41,2.41,0,0,0-.64,1.61Z"/><path class="cls-2" d="M0,38.32V33.41A32.22,32.22,0,0,0,4.77,33,6.82,6.82,0,0,0,8.31,31,6.35,6.35,0,0,0,9.72,28.4,5.88,5.88,0,0,0,10,26.93h6V63.64H8.63V38.32Z"/><path class="cls-2" d="M29.91,53.82a7,7,0,0,0,1.64,3.63,4.66,4.66,0,0,0,3.54,1.28,4.78,4.78,0,0,0,4.08-1.89,7.78,7.78,0,0,0,1.4-4.75,8.21,8.21,0,0,0-1.32-4.74,4.59,4.59,0,0,0-4.09-1.94,7,7,0,0,0-2.27.33A4.54,4.54,0,0,0,30.34,48l-6.47-.3,2.58-20.28H46.64v6.13h-15l-1.31,8a15.72,15.72,0,0,1,2.6-1.44,11,11,0,0,1,3.82-.58A11.48,11.48,0,0,1,44.7,42.6q3.39,3.06,3.39,8.91a14,14,0,0,1-3.27,9.09q-3.26,4-9.76,4a12.94,12.94,0,0,1-8.6-2.81,10.91,10.91,0,0,1-3.74-8Z"/><path class="cls-2" d="M53.65,56V51.22h7.57V43.66h4.85v7.56h7.56V56H66.07v7.6H61.22V56Z"/><path class="cls-2" d="M99.47,38.78h5.88L97,54.32v9.32H91.85V54.32l-8.6-15.54h6.12l5.16,10.83Z"/><path class="cls-2" d="M116.3,45.63a7.47,7.47,0,0,1,3.17,2.72,9,9,0,0,1,1.47,3.8,23.82,23.82,0,0,1,.16,3.65H107.71a4.41,4.41,0,0,0,1.92,3.88,4.91,4.91,0,0,0,2.65.69,4,4,0,0,0,2.67-.85,4.08,4.08,0,0,0,1-1.26h4.91a6,6,0,0,1-1.79,3.32,8.91,8.91,0,0,1-6.91,2.68A10,10,0,0,1,105.67,62q-2.81-2.27-2.8-7.36,0-4.77,2.53-7.32A8.86,8.86,0,0,1,112,44.77,10.56,10.56,0,0,1,116.3,45.63Zm-7.19,4.15a5,5,0,0,0-1.28,2.85h8.28a4,4,0,0,0-1.28-2.91,4.23,4.23,0,0,0-2.85-1A3.81,3.81,0,0,0,109.11,49.78Z"/><path class="cls-2" d="M129.08,52.46A7.35,7.35,0,0,0,131,52a1.45,1.45,0,0,0,1-1.37,1.62,1.62,0,0,0-.8-1.56,5,5,0,0,0-2.33-.43,3.09,3.09,0,0,0-2.45.84,3.48,3.48,0,0,0-.68,1.69h-4.64a7,7,0,0,1,1.36-4q1.91-2.43,6.57-2.43a11.72,11.72,0,0,1,5.39,1.2c1.57.8,2.35,2.3,2.35,4.52V59c0,.58,0,1.29,0,2.12a2.77,2.77,0,0,0,.29,1.29,1.69,1.69,0,0,0,.71.55v.71h-5.23a4.67,4.67,0,0,1-.3-1c-.06-.32-.1-.69-.14-1.11a10.06,10.06,0,0,1-2.3,1.84,7,7,0,0,1-3.53.89,6.08,6.08,0,0,1-4.15-1.42,5.08,5.08,0,0,1-1.64-4,5.23,5.23,0,0,1,2.64-4.91,11.79,11.79,0,0,1,4.24-1.18ZM132,54.7a5.8,5.8,0,0,1-.93.47,9.27,9.27,0,0,1-1.29.32l-1.1.21a7.58,7.58,0,0,0-2.21.65,2.21,2.21,0,0,0-1.13,2,2.12,2.12,0,0,0,.69,1.78,2.62,2.62,0,0,0,1.69.55,5,5,0,0,0,2.9-.91A3.83,3.83,0,0,0,132,56.49Z"/><path class="cls-2" d="M149.49,44.83l.42,0v4.93c-.31,0-.58-.06-.81-.07l-.58,0c-1.93,0-3.23.63-3.89,1.89a7.36,7.36,0,0,0-.56,3.27v8.79h-4.84V45.26h4.59v3.2A10.22,10.22,0,0,1,145.76,46a5.3,5.3,0,0,1,3.51-1.13Z"/><path class="cls-2" d="M154.72,57.77a3.16,3.16,0,0,0,.66,1.82,4.5,4.5,0,0,0,3.33,1,5.12,5.12,0,0,0,2.26-.42,1.35,1.35,0,0,0,.84-1.26,1.36,1.36,0,0,0-.68-1.23,27.24,27.24,0,0,0-5-1.45,10.49,10.49,0,0,1-4.41-1.94,4.2,4.2,0,0,1-1.28-3.31,5.73,5.73,0,0,1,2-4.38A8,8,0,0,1,158,44.74a10.31,10.31,0,0,1,5.62,1.37,5.91,5.91,0,0,1,2.5,4.75h-4.81a2.88,2.88,0,0,0-.52-1.47,3.33,3.33,0,0,0-2.71-1,3.87,3.87,0,0,0-2.24.49,1.41,1.41,0,0,0-.67,1.15,1.24,1.24,0,0,0,.71,1.19,30.63,30.63,0,0,0,5,1.34,9.23,9.23,0,0,1,4.31,2,4.63,4.63,0,0,1,1.41,3.45,5.62,5.62,0,0,1-2,4.47q-2,1.73-6.3,1.72t-6.41-1.83a5.94,5.94,0,0,1-2.07-4.66Z"/><path class="cls-3" d="M10.31,84.85a2.63,2.63,0,0,1,.48,1.59A2.3,2.3,0,0,1,10.3,88a2.44,2.44,0,0,1-.79.6,2.3,2.3,0,0,1,1.2.92A2.69,2.69,0,0,1,11.12,91a3.06,3.06,0,0,1-.46,1.67,2.9,2.9,0,0,1-1.93,1.35,7.49,7.49,0,0,1-1.47.14H2.55V83.73H7.6A3.2,3.2,0,0,1,10.31,84.85Zm-5.68.7v2.3H7.17a2.12,2.12,0,0,0,1.11-.25,1,1,0,0,0,.42-.92.94.94,0,0,0-.56-1,3.86,3.86,0,0,0-1.23-.16Zm0,4v2.79H7.17a2.53,2.53,0,0,0,1.06-.18,1.32,1.32,0,0,0,.69-1.31,1.14,1.14,0,0,0-.67-1.12,2.82,2.82,0,0,0-1-.18Z"/><path class="cls-3" d="M17.88,86.61a3.2,3.2,0,0,1,1.33,1.15,3.83,3.83,0,0,1,.62,1.6,9.26,9.26,0,0,1,.06,1.53H14.26a1.84,1.84,0,0,0,.81,1.63,2,2,0,0,0,1.12.29,1.58,1.58,0,0,0,1.54-.88h2.06A2.47,2.47,0,0,1,19,93.32a3.72,3.72,0,0,1-2.91,1.13,4.23,4.23,0,0,1-2.72-1,3.74,3.74,0,0,1-1.18-3.1,4.21,4.21,0,0,1,1.06-3.08,3.76,3.76,0,0,1,2.77-1.07A4.45,4.45,0,0,1,17.88,86.61Zm-3,1.75a2.16,2.16,0,0,0-.54,1.2H17.8a1.73,1.73,0,0,0-.54-1.23,1.8,1.8,0,0,0-1.2-.41A1.63,1.63,0,0,0,14.85,88.36Z"/><path class="cls-3" d="M27.15,86.9A2.54,2.54,0,0,1,27.91,89v5.21H25.84v-4.7a2.15,2.15,0,0,0-.16-.94,1.14,1.14,0,0,0-1.13-.6,1.39,1.39,0,0,0-1.4.88A3,3,0,0,0,23,90v4.19h-2V86.47h2V87.6a3.52,3.52,0,0,1,.73-.86,2.58,2.58,0,0,1,1.58-.47A3,3,0,0,1,27.15,86.9Z"/><path class="cls-3" d="M34.42,89.23a1.77,1.77,0,0,0-.3-.78A1.22,1.22,0,0,0,33.06,88a1.4,1.4,0,0,0-1.4,1,4.22,4.22,0,0,0-.2,1.43,3.91,3.91,0,0,0,.2,1.36,1.37,1.37,0,0,0,1.37,1,1.2,1.2,0,0,0,1-.39,1.83,1.83,0,0,0,.36-1h2.07a3.36,3.36,0,0,1-.67,1.74A3.25,3.25,0,0,1,33,94.45a3.3,3.3,0,0,1-2.75-1.11,4.43,4.43,0,0,1-.88-2.87,4.58,4.58,0,0,1,1-3.09A3.4,3.4,0,0,1,33,86.27a4.08,4.08,0,0,1,2.38.65,3.07,3.07,0,0,1,1.1,2.31Z"/><path class="cls-3" d="M43.43,86.5a2.35,2.35,0,0,1,1,.76,2,2,0,0,1,.39.89,10.56,10.56,0,0,1,.07,1.49v4.55H42.78V89.48a2.11,2.11,0,0,0-.21-1,1.06,1.06,0,0,0-1-.54,1.42,1.42,0,0,0-1.21.54A2.44,2.44,0,0,0,39.91,90v4.19h-2V83.77h2v3.69a2.42,2.42,0,0,1,1-.94,2.81,2.81,0,0,1,1.21-.27A3.21,3.21,0,0,1,43.43,86.5Z"/><path class="cls-3" d="M56.39,86.49a2.25,2.25,0,0,1,1.34,1.68,6.63,6.63,0,0,1,.07,1.15v4.87H55.72V89.27a1.55,1.55,0,0,0-.15-.73,1,1,0,0,0-1-.54,1.18,1.18,0,0,0-1.16.7,2.3,2.3,0,0,0-.16.88v4.61h-2V89.58a2.49,2.49,0,0,0-.15-1,1,1,0,0,0-1-.56,1.2,1.2,0,0,0-1.16.56,2.19,2.19,0,0,0-.16,1v4.65h-2V86.47h2V87.6a3.33,3.33,0,0,1,.71-.86,2.44,2.44,0,0,1,1.53-.45,2.4,2.4,0,0,1,1.43.39,2.28,2.28,0,0,1,.67.93,2.48,2.48,0,0,1,1-1,2.93,2.93,0,0,1,1.39-.32A2.56,2.56,0,0,1,56.39,86.49Z"/><path class="cls-3" d="M62.72,89.49a3.3,3.3,0,0,0,.81-.18.62.62,0,0,0,.44-.58.68.68,0,0,0-.34-.65,2.11,2.11,0,0,0-1-.18,1.32,1.32,0,0,0-1,.35,1.54,1.54,0,0,0-.29.71H59.38A3.11,3.11,0,0,1,60,87.29a3.34,3.34,0,0,1,2.77-1,4.85,4.85,0,0,1,2.26.51,1.93,1.93,0,0,1,1,1.9v3.54c0,.25,0,.55,0,.9a1.07,1.07,0,0,0,.12.54.67.67,0,0,0,.3.23v.3h-2.2a2.15,2.15,0,0,1-.13-.44c0-.14,0-.29-.06-.47a4.07,4.07,0,0,1-1,.77,2.91,2.91,0,0,1-1.48.38,2.56,2.56,0,0,1-1.75-.6,2.45,2.45,0,0,1,.42-3.76,5,5,0,0,1,1.79-.5Zm1.24.94a2.33,2.33,0,0,1-.39.19,3.33,3.33,0,0,1-.55.14l-.46.09a3.19,3.19,0,0,0-.93.27.94.94,0,0,0-.47.86.87.87,0,0,0,.29.75,1.12,1.12,0,0,0,.71.23,2.15,2.15,0,0,0,1.22-.38,1.65,1.65,0,0,0,.58-1.4Z"/><path class="cls-3" d="M72,86.28h.18v2.07l-.34,0h-.24a1.68,1.68,0,0,0-1.64.8,3,3,0,0,0-.24,1.37v3.7h-2V86.46h1.93V87.8a4.33,4.33,0,0,1,.81-1,2.21,2.21,0,0,1,1.48-.48Z"/><path class="cls-3" d="M73.37,83.77h2v5.64l2.55-2.92h2.51l-2.77,2.88,2.88,4.82H78.07l-1.88-3.31-.83.88v2.43h-2Z"/><path class="cls-3" d="M89.61,86.58a2.42,2.42,0,0,1,.88.86V83.75h2.05V94.19h-2V93.12a2.87,2.87,0,0,1-1,1,2.72,2.72,0,0,1-1.37.31,2.86,2.86,0,0,1-2.28-1.1A4.18,4.18,0,0,1,85,90.52a4.8,4.8,0,0,1,.91-3.11,3,3,0,0,1,2.44-1.14A2.57,2.57,0,0,1,89.61,86.58Zm.49,5.51a2.82,2.82,0,0,0,.45-1.65,2.52,2.52,0,0,0-.72-2,1.51,1.51,0,0,0-1-.37,1.42,1.42,0,0,0-1.3.67,3.63,3.63,0,0,0,0,3.37,1.43,1.43,0,0,0,1.28.65A1.49,1.49,0,0,0,90.1,92.09Z"/><path class="cls-3" d="M99.42,86.61a3.2,3.2,0,0,1,1.33,1.15,3.7,3.7,0,0,1,.62,1.6,9,9,0,0,1,.07,1.53H95.81a1.84,1.84,0,0,0,.81,1.63,2,2,0,0,0,1.11.29,1.58,1.58,0,0,0,1.54-.88h2.06a2.47,2.47,0,0,1-.75,1.39,3.72,3.72,0,0,1-2.91,1.13,4.23,4.23,0,0,1-2.72-1,3.74,3.74,0,0,1-1.18-3.1,4.21,4.21,0,0,1,1.07-3.08,3.74,3.74,0,0,1,2.76-1.07A4.45,4.45,0,0,1,99.42,86.61Zm-3,1.75a2.09,2.09,0,0,0-.53,1.2h3.48a1.73,1.73,0,0,0-.54-1.23,1.8,1.8,0,0,0-1.2-.41A1.63,1.63,0,0,0,96.39,88.36Z"/><path class="cls-3" d="M107.22,86.46h2.17l-2.79,7.73h-2.13l-2.77-7.73H104l1.61,5.7Z"/><path class="cls-3" d="M115.58,86.61a3.2,3.2,0,0,1,1.33,1.15,3.83,3.83,0,0,1,.62,1.6,10.25,10.25,0,0,1,.07,1.53H112a1.88,1.88,0,0,0,.81,1.63,2,2,0,0,0,1.12.29,1.58,1.58,0,0,0,1.54-.88h2.06a2.47,2.47,0,0,1-.75,1.39,3.72,3.72,0,0,1-2.91,1.13,4.21,4.21,0,0,1-2.72-1,3.74,3.74,0,0,1-1.18-3.1A4.21,4.21,0,0,1,111,87.32a3.75,3.75,0,0,1,2.77-1.07A4.45,4.45,0,0,1,115.58,86.61Zm-3,1.75a2.16,2.16,0,0,0-.54,1.2h3.49a1.73,1.73,0,0,0-.54-1.23,1.8,1.8,0,0,0-1.2-.41A1.63,1.63,0,0,0,112.55,88.36Z"/><path class="cls-3" d="M120.68,94.19h-2V83.73h2Z"/><path class="cls-3" d="M129.1,93.24a4.25,4.25,0,0,1-5.94,0,4.42,4.42,0,0,1-1-2.91,4.48,4.48,0,0,1,1-2.9,4.23,4.23,0,0,1,5.94,0,4.54,4.54,0,0,1,1,2.9A4.47,4.47,0,0,1,129.1,93.24Zm-1.62-1.12a2.87,2.87,0,0,0,.48-1.79,2.91,2.91,0,0,0-.48-1.79,1.8,1.8,0,0,0-2.72,0,2.91,2.91,0,0,0-.48,1.79,2.87,2.87,0,0,0,.48,1.79,1.76,1.76,0,0,0,2.72,0Z"/><path class="cls-3" d="M138,87.29a4.1,4.1,0,0,1,.94,2.93,4.65,4.65,0,0,1-.92,3.12,3,3,0,0,1-2.38,1.07,2.54,2.54,0,0,1-1.54-.46,2.94,2.94,0,0,1-.66-.75v4h-2V86.46h1.94V87.6a3.29,3.29,0,0,1,.7-.8,2.6,2.6,0,0,1,1.61-.51A3,3,0,0,1,138,87.29Zm-1.55,1.45a1.44,1.44,0,0,0-1.34-.69,1.51,1.51,0,0,0-1.52,1,3.7,3.7,0,0,0-.22,1.4,2.22,2.22,0,0,0,.72,1.89,1.63,1.63,0,0,0,1,.32,1.46,1.46,0,0,0,1.3-.65,3,3,0,0,0,.45-1.74A3.07,3.07,0,0,0,136.48,88.74Z"/><path class="cls-3" d="M150.05,86.49a2.25,2.25,0,0,1,1.34,1.68,6.63,6.63,0,0,1,.07,1.15v4.87h-2.08V89.27a1.56,1.56,0,0,0-.14-.73,1,1,0,0,0-1-.54,1.17,1.17,0,0,0-1.16.7,2.13,2.13,0,0,0-.16.88v4.61h-2V89.58a2.52,2.52,0,0,0-.14-1,1,1,0,0,0-1-.56,1.19,1.19,0,0,0-1.16.56,2.19,2.19,0,0,0-.16,1v4.65h-2V86.47h2V87.6a3.33,3.33,0,0,1,.71-.86,2.82,2.82,0,0,1,3-.06,2.26,2.26,0,0,1,.66.93,2.57,2.57,0,0,1,1-1,2.93,2.93,0,0,1,1.39-.32A2.56,2.56,0,0,1,150.05,86.49Z"/><path class="cls-3" d="M158.36,86.61a3.26,3.26,0,0,1,1.33,1.15,3.83,3.83,0,0,1,.62,1.6,10.53,10.53,0,0,1,.06,1.53h-5.63a1.84,1.84,0,0,0,.81,1.63,2,2,0,0,0,1.12.29,1.74,1.74,0,0,0,1.12-.35,1.93,1.93,0,0,0,.42-.53h2.06a2.6,2.6,0,0,1-.75,1.39,3.72,3.72,0,0,1-2.91,1.13,4.21,4.21,0,0,1-2.72-1,3.74,3.74,0,0,1-1.18-3.1,4.21,4.21,0,0,1,1.06-3.08,3.75,3.75,0,0,1,2.77-1.07A4.45,4.45,0,0,1,158.36,86.61Zm-3,1.75a2.09,2.09,0,0,0-.54,1.2h3.49a1.73,1.73,0,0,0-.54-1.23,1.82,1.82,0,0,0-1.2-.41A1.63,1.63,0,0,0,155.33,88.36Z"/><path class="cls-3" d="M167.63,86.9a2.54,2.54,0,0,1,.76,2.08v5.21h-2.07v-4.7a2.15,2.15,0,0,0-.16-.94A1.15,1.15,0,0,0,165,88a1.39,1.39,0,0,0-1.4.88,3,3,0,0,0-.2,1.17v4.19h-2V86.47h2V87.6a3.52,3.52,0,0,1,.73-.86,2.58,2.58,0,0,1,1.58-.47A3,3,0,0,1,167.63,86.9Z"/><path class="cls-3" d="M169.47,88V86.53h1.08V84.37h2v2.16h1.26V88h-1.26v4.08a1,1,0,0,0,.12.6,1.45,1.45,0,0,0,.74.11h.4v1.51l-1,0a2.57,2.57,0,0,1-2-.49,1.51,1.51,0,0,1-.34-1.07V88Z"/><path class="cls-3" d="M176.67,91.72a1.46,1.46,0,0,0,.28.77,1.9,1.9,0,0,0,1.4.4,2.09,2.09,0,0,0,1-.18.55.55,0,0,0,.35-.53.57.57,0,0,0-.28-.52,11.44,11.44,0,0,0-2.12-.61,4.4,4.4,0,0,1-1.85-.81,1.77,1.77,0,0,1-.54-1.39A2.4,2.4,0,0,1,175.7,87a3.35,3.35,0,0,1,2.37-.77,4.33,4.33,0,0,1,2.37.58,2.48,2.48,0,0,1,1,2h-2a1.24,1.24,0,0,0-.22-.62,1.4,1.4,0,0,0-1.14-.41,1.61,1.61,0,0,0-.94.21.59.59,0,0,0-.28.48.52.52,0,0,0,.3.5,12.86,12.86,0,0,0,2.11.57,3.78,3.78,0,0,1,1.81.85,2,2,0,0,1,.6,1.46,2.34,2.34,0,0,1-.86,1.87,5.13,5.13,0,0,1-5.34,0,2.51,2.51,0,0,1-.88-2Z"/><path class="cls-3" d="M183.15,92.07h2.15v2.12h-2.15Z"/></g></g></svg>