<?xml version="1.0" encoding="utf-8"?>
<!-- Generator: Adobe Illustrator 26.0.1, SVG Export Plug-In . SVG Version: 6.00 Build 0)  -->
<svg version="1.1" id="Layer_1" xmlns="http://www.w3.org/2000/svg" xmlns:xlink="http://www.w3.org/1999/xlink" x="0px" y="0px"
	 viewBox="0 0 185.3 97.2" style="enable-background:new 0 0 185.3 97.2;" xml:space="preserve">
<style type="text/css">
	.st0{fill:#86868B;}
	.st1{fill:#F5F5F7;}
	.st2{fill:#CCCCCC;}
</style>
<g id="Layer_2_00000019643088320705843480000001381216155859936183_">
	<g id="Layer_1-2">
		<path class="st0" d="M0.7,0.2h1.6l3,5l3-5H10L6.1,6.4v4.2H4.6V6.4L0.7,0.2z"/>
		<path class="st0" d="M14.4,3.2c0.5,0.2,0.9,0.6,1.2,1C15.8,4.6,16,5,16.1,5.5c0.1,0.6,0.1,1.1,0.1,1.7h-5.6c0,0.6,0.2,1.3,0.5,1.8
			c0.4,0.5,1,0.7,1.6,0.7s1.2-0.2,1.6-0.7c0.2-0.3,0.4-0.6,0.5-0.9h1.3c0,0.3-0.2,0.6-0.3,0.9c-0.2,0.3-0.4,0.6-0.6,0.8
			c-0.4,0.4-0.9,0.6-1.4,0.8c-0.3,0.1-0.7,0.1-1,0.1c-0.9,0-1.8-0.3-2.4-1C9.6,9,9.2,8,9.3,6.9c0-1.1,0.3-2.2,1-3
			c0.6-0.8,1.6-1.2,2.6-1.1C13.4,2.8,13.9,2.9,14.4,3.2z M14.9,6.2c0-0.5-0.1-0.9-0.4-1.3c-0.4-0.6-1-1-1.8-0.9
			c-0.6,0-1.1,0.2-1.5,0.6s-0.6,1-0.6,1.6C10.6,6.2,14.9,6.2,14.9,6.2z"/>
		<path class="st0" d="M21.8,6c0.2,0,0.5-0.1,0.6-0.4c0.1-0.2,0.1-0.3,0.1-0.5c0.1-0.4-0.1-0.8-0.5-1c-0.4-0.2-0.9-0.3-1.3-0.3
			c-0.5-0.1-1.1,0.1-1.4,0.5C19.1,4.7,19,5,19,5.3h-1.2c-0.1-0.8,0.3-1.5,0.9-2c0.6-0.4,1.3-0.6,2-0.5c0.8,0,1.5,0.1,2.2,0.5
			c0.5,0.3,0.9,0.9,0.8,1.6v4.4c0,0.1,0,0.2,0.1,0.3c0,0.1,0.2,0.1,0.3,0.1h0.2h0.2v0.9c-0.1,0-0.3,0.1-0.5,0.1h-0.4
			c-0.4,0-0.7-0.1-1-0.5c-0.1-0.2-0.2-0.5-0.2-0.7c-0.3,0.4-0.7,0.7-1.1,0.9c-0.5,0.3-1.1,0.4-1.6,0.4c-0.6,0-1.3-0.2-1.7-0.6
			c-0.4-0.4-0.7-1-0.7-1.6C17.4,8,17.6,7.4,18,7c0.5-0.4,1.1-0.7,1.7-0.7L21.8,6z M19.2,9.4c0.3,0.2,0.6,0.3,1,0.3
			c0.5,0,0.9-0.1,1.3-0.3c0.7-0.3,1.1-1,1.1-1.7v-1c-0.2,0.1-0.4,0.2-0.6,0.2C21.8,7,21.5,7,21.3,7l-0.8,0.1c-0.3,0-0.7,0.1-1,0.3
			c-0.4,0.2-0.6,0.6-0.6,1.1C18.8,8.9,18.9,9.2,19.2,9.4z"/>
		<path class="st0" d="M25.9,3h1.2v1.3c0.2-0.4,0.4-0.7,0.7-0.9c0.4-0.3,0.8-0.5,1.3-0.5h0.1h0.3v1.4h-0.2h-0.2
			c-0.6,0-1.1,0.2-1.5,0.6c-0.3,0.4-0.5,0.9-0.5,1.4v4.4h-1.3V3H25.9z"/>
		<path class="st0" d="M31.5,8.2c0,0.4,0.1,0.7,0.3,1c0.4,0.5,1,0.7,1.7,0.6c0.4,0,0.9-0.1,1.2-0.3c0.4-0.2,0.6-0.6,0.5-1
			c0-0.3-0.2-0.6-0.4-0.8c-0.4-0.2-0.7-0.3-1.1-0.4l-1-0.2c-0.5-0.1-1-0.3-1.4-0.5c-0.5-0.3-0.8-0.8-0.8-1.4c0-0.7,0.3-1.3,0.8-1.7
			c0.6-0.5,1.3-0.7,2.1-0.7c0.9-0.1,1.9,0.3,2.5,1c0.3,0.4,0.5,0.9,0.5,1.4H35c0-0.3-0.1-0.6-0.3-0.8c-0.4-0.4-1-0.6-1.5-0.5
			c-0.4,0-0.8,0.1-1.1,0.3c-0.4,0.3-0.5,0.9-0.2,1.3c0.1,0.1,0.2,0.2,0.3,0.3c0.3,0.1,0.5,0.3,0.8,0.3l0.8,0.2
			c0.6,0.1,1.3,0.3,1.8,0.6c0.5,0.3,0.8,0.9,0.7,1.5c0,0.7-0.3,1.3-0.8,1.8c-0.7,0.5-1.5,0.8-2.3,0.7c-0.9,0.1-1.7-0.2-2.4-0.8
			c-0.5-0.5-0.7-1.2-0.8-1.9H31.5z"/>
		<path class="st0" d="M47.5,3.7c0.7,0.8,1.1,1.8,1,2.9c0,1.1-0.3,2.1-0.9,3c-0.7,0.8-1.7,1.3-2.8,1.2c-0.9,0-1.9-0.4-2.5-1.1
			c-0.6-0.8-1-1.8-0.9-2.8c-0.1-1.1,0.3-2.2,1-3C43,3.1,44,2.7,45,2.8C46,2.7,46.9,3.1,47.5,3.7z M46.7,8.8c0.3-0.7,0.5-1.4,0.5-2.1
			c0-0.6-0.1-1.2-0.3-1.7c-0.4-0.7-1.1-1.1-1.9-1c-0.7,0-1.4,0.3-1.7,0.9c-0.4,0.7-0.6,1.4-0.5,2.2c0,0.7,0.2,1.4,0.5,2
			c0.4,0.5,1,0.8,1.7,0.8C45.7,9.8,46.4,9.4,46.7,8.8z"/>
		<path class="st0" d="M50.7,0.6c0.4-0.5,1.1-0.7,1.7-0.6h0.2h0.3v1.2h-0.3h-0.2c-0.4,0-0.6,0.1-0.7,0.3c-0.1,0.5-0.1,1-0.1,1.5h1.3
			v1h-1.3v6.6h-1.3V4h-1.1V3h1.1V1.8C50.4,1.4,50.5,1,50.7,0.6z"/>
		<path class="st0" d="M58.4,0.2H66v1.3h-6.2v3.2h5.8v1.2h-5.8v3.5h6.3v1.2h-7.7C58.4,10.6,58.4,0.2,58.4,0.2z"/>
		<path class="st0" d="M67.1,3h1.7l1.7,2.7L72.3,3h1.6l-2.6,3.7l2.7,3.9h-1.6l-1.9-2.8l-1.8,2.8H67l2.7-3.9L67.1,3z"/>
		<path class="st0" d="M75,3h1.2v1c0.2-0.3,0.5-0.6,0.8-0.8c0.5-0.3,1-0.4,1.5-0.4c0.8,0,1.6,0.4,2.2,1c0.6,0.8,1,1.8,0.9,2.8
			c0.1,1.3-0.3,2.6-1.3,3.5c-0.5,0.4-1.2,0.7-1.9,0.7c-0.5,0-1-0.1-1.5-0.4c-0.3-0.2-0.5-0.4-0.8-0.7v3.9H75V3z M79.8,9
			c0.4-0.7,0.7-1.4,0.6-2.2c0-0.5-0.1-1.1-0.3-1.6c-0.4-1-1.5-1.5-2.5-1.1c-0.6,0.2-1,0.7-1.2,1.2c-0.2,0.6-0.3,1.1-0.3,1.7
			c0,0.5,0.1,1,0.3,1.5c0.4,1,1.5,1.4,2.5,1C79.3,9.4,79.6,9.2,79.8,9L79.8,9z"/>
		<path class="st0" d="M87.9,3.2c0.5,0.2,0.9,0.6,1.2,1c0.3,0.4,0.4,0.9,0.5,1.3c0.1,0.6,0.1,1.1,0.1,1.7h-5.6
			c0,0.6,0.2,1.3,0.6,1.8s1,0.7,1.6,0.7s1.2-0.2,1.6-0.7c0.2-0.3,0.4-0.6,0.5-0.9h1.3c-0.1,0.3-0.2,0.6-0.3,0.9
			c-0.2,0.3-0.4,0.6-0.6,0.8c-0.4,0.4-0.9,0.6-1.4,0.8c-0.3,0.1-0.7,0.1-1,0.1c-0.9,0-1.8-0.3-2.4-1c-0.7-0.8-1.1-1.8-1-2.9
			c0-1.1,0.3-2.2,1-3c0.6-0.7,1.6-1.1,2.6-1.1C86.9,2.8,87.4,2.9,87.9,3.2z M88.4,6.2c0-0.5-0.2-0.9-0.4-1.3c-0.4-0.6-1-1-1.8-0.9
			c-0.6,0-1.1,0.2-1.5,0.6s-0.6,1-0.6,1.6L88.4,6.2z"/>
		<path class="st0" d="M91.3,3h1.2v1.3c0.2-0.4,0.4-0.7,0.7-0.9C93.6,3,94,2.9,94.5,2.9h0.1H95v1.4h-0.2h-0.2
			c-0.6,0-1.1,0.2-1.5,0.6c-0.3,0.4-0.5,0.9-0.5,1.4v4.4h-1.3V3z"/>
		<path class="st0" d="M96.1,0.2h1.3v1.5h-1.3V0.2z M96.1,3h1.3v7.6h-1.3V3z"/>
		<path class="st0" d="M104.1,3.2c0.5,0.2,0.9,0.6,1.2,1c0.3,0.4,0.4,0.9,0.5,1.3c0.1,0.6,0.1,1.1,0.1,1.7h-5.6
			c0,0.6,0.2,1.3,0.5,1.8c0.4,0.5,1,0.7,1.6,0.7s1.2-0.2,1.6-0.6c0.2-0.3,0.4-0.6,0.5-0.9h1.3c0,0.3-0.2,0.6-0.3,0.9
			c-0.2,0.3-0.4,0.6-0.6,0.8c-0.4,0.4-0.9,0.6-1.4,0.8c-0.3,0.1-0.7,0.1-1,0.1c-0.9,0-1.8-0.3-2.4-1C99.4,9,99,8,99.1,6.9
			c0-1.1,0.3-2.2,1-3c0.6-0.8,1.6-1.2,2.6-1.1C103.1,2.8,103.6,2.9,104.1,3.2z M104.5,6.2c0-0.5-0.1-0.9-0.4-1.3
			c-0.4-0.6-1-1-1.8-0.9c-0.6,0-1.1,0.2-1.5,0.6s-0.6,1-0.6,1.6C100.2,6.2,104.5,6.2,104.5,6.2z"/>
		<path class="st0" d="M107.4,3h1.2v1.1c0.3-0.4,0.7-0.8,1.1-1s0.9-0.3,1.3-0.3c0.9-0.1,1.8,0.3,2.2,1.1c0.2,0.6,0.3,1.2,0.3,1.8
			v4.9h-1.3V5.8c0-0.4-0.1-0.8-0.2-1.1c-0.2-0.5-0.7-0.7-1.2-0.7c-0.3,0-0.5,0-0.8,0.1c-0.4,0.1-0.7,0.3-0.9,0.6
			c-0.2,0.2-0.3,0.5-0.4,0.8c-0.1,0.4-0.1,0.8-0.1,1.2v4h-1.3V3H107.4z"/>
		<path class="st0" d="M120.5,3.4c0.6,0.5,1,1.3,1,2.2h-1.2c-0.1-0.4-0.2-0.8-0.5-1.2c-0.3-0.3-0.8-0.5-1.3-0.5
			c-0.8,0-1.5,0.5-1.7,1.2c-0.2,0.6-0.4,1.2-0.3,1.9c0,0.7,0.1,1.3,0.5,1.9c0.3,0.5,0.9,0.8,1.5,0.8c0.5,0,0.9-0.2,1.3-0.5
			c0.3-0.4,0.6-0.8,0.6-1.3h1.2c-0.1,0.8-0.4,1.6-1.1,2.2c-0.6,0.5-1.4,0.7-2.2,0.7c-0.9,0-1.8-0.4-2.4-1.1C115.3,8.9,115,8,115,7
			c-0.1-1.1,0.3-2.2,1-3.1c0.6-0.7,1.5-1.1,2.5-1.1C119.2,2.7,119.9,3,120.5,3.4z"/>
		<path class="st0" d="M127.5,3.2c0.5,0.2,0.9,0.6,1.1,1c0.3,0.4,0.4,0.9,0.5,1.3c0.1,0.6,0.1,1.1,0.1,1.7h-5.6
			c0,0.6,0.2,1.3,0.6,1.8s1,0.7,1.6,0.7s1.2-0.2,1.6-0.7c0.2-0.3,0.4-0.6,0.5-0.9h1.2c0,0.3-0.2,0.6-0.3,0.9
			c-0.2,0.3-0.4,0.6-0.6,0.8c-0.4,0.4-0.9,0.7-1.4,0.8c-0.3,0.1-0.7,0.1-1,0.1c-0.9,0-1.8-0.3-2.4-1c-0.7-0.8-1.1-1.8-1-2.9
			c0-1.1,0.3-2.2,1-3s1.6-1.2,2.6-1.1C126.5,2.8,127,2.9,127.5,3.2z M127.9,6.2c0-0.5-0.2-0.9-0.4-1.3c-0.4-0.6-1-1-1.8-0.9
			c-0.6,0-1.1,0.2-1.5,0.6s-0.6,1-0.6,1.6C123.6,6.2,127.9,6.2,127.9,6.2z"/>
		<path class="st1" d="M0,38.3v-4.9c1.6,0,3.2-0.2,4.8-0.4c1.4-0.3,2.6-1,3.5-2c0.7-0.7,1.2-1.6,1.4-2.6c0.2-0.5,0.2-1,0.3-1.5h6
			v36.7H8.6V38.3H0z"/>
		<path class="st1" d="M53.7,56v-4.8h7.6v-7.6h4.8v7.6h7.6V56h-7.6v7.6h-4.8V56H53.7z"/>
		<path class="st1" d="M99.5,38.8h5.9L97,54.3v9.3h-5.2v-9.3l-8.6-15.5h6.1l5.2,10.8L99.5,38.8z"/>
		<path class="st1" d="M116.3,45.6c1.3,0.6,2.4,1.5,3.2,2.7c0.8,1.1,1.3,2.4,1.5,3.8c0.1,1.2,0.2,2.4,0.2,3.7h-13.4
			c-0.1,1.5,0.6,3,1.9,3.9c0.8,0.5,1.7,0.7,2.7,0.7s1.9-0.3,2.7-0.8c0.4-0.3,0.8-0.8,1-1.3h4.9c-0.2,1.3-0.9,2.4-1.8,3.3
			c-1.8,1.9-4.3,2.8-6.9,2.7c-2.4,0-4.7-0.8-6.5-2.3c-1.9-1.5-2.8-4-2.8-7.4c0-3.2,0.8-5.6,2.5-7.3c1.8-1.7,4.1-2.7,6.6-2.5
			C113.5,44.8,114.9,45,116.3,45.6z M109.1,49.8c-0.7,0.8-1.2,1.8-1.3,2.8h8.3c0-1.1-0.5-2.2-1.3-2.9s-1.8-1-2.8-1
			C110.9,48.7,109.9,49,109.1,49.8z"/>
		<path class="st1" d="M129.1,52.5c0.7-0.1,1.3-0.2,1.9-0.5c0.6-0.2,1-0.7,1-1.4c0.1-0.6-0.3-1.2-0.8-1.6c-0.7-0.3-1.5-0.5-2.3-0.4
			c-0.9-0.1-1.8,0.2-2.4,0.8c-0.4,0.5-0.6,1.1-0.7,1.7h-4.6c0-1.4,0.5-2.8,1.4-4c1.3-1.6,3.5-2.4,6.6-2.4c1.9,0,3.7,0.4,5.4,1.2
			c1.6,0.8,2.4,2.3,2.4,4.5V59c0,0.6,0,1.3,0,2.1c0,0.4,0.1,0.9,0.3,1.3c0.2,0.2,0.4,0.4,0.7,0.5v0.7h-5.2c-0.1-0.3-0.2-0.7-0.3-1
			s-0.1-0.7-0.1-1.1c-0.7,0.7-1.4,1.3-2.3,1.8c-1.1,0.6-2.3,0.9-3.5,0.9c-1.5,0.1-3-0.4-4.2-1.4c-1.1-1-1.7-2.5-1.6-4
			c-0.1-2,0.9-3.9,2.6-4.9c1.3-0.7,2.8-1.1,4.2-1.2L129.1,52.5z M132,54.7c-0.3,0.2-0.6,0.3-0.9,0.5c-0.4,0.1-0.9,0.2-1.3,0.3
			l-1.1,0.2c-0.8,0.1-1.5,0.3-2.2,0.7s-1.2,1.2-1.1,2c-0.1,0.7,0.2,1.3,0.7,1.8c0.5,0.4,1.1,0.6,1.7,0.5c1,0,2.1-0.3,2.9-0.9
			c1-0.8,1.5-2,1.4-3.3L132,54.7L132,54.7z"/>
		<path class="st1" d="M149.5,44.8h0.4v4.9c-0.3,0-0.6-0.1-0.8-0.1h-0.6c-1.9,0-3.2,0.6-3.9,1.9c-0.4,1-0.6,2.2-0.6,3.3v8.8h-4.8
			V45.3h4.6v3.2c0.5-0.9,1.2-1.7,1.9-2.5c1-0.8,2.2-1.2,3.5-1.1L149.5,44.8z"/>
		<path class="st1" d="M154.7,57.8c0,0.7,0.3,1.3,0.7,1.8c0.9,0.8,2.1,1.1,3.3,1c0.8,0,1.5-0.1,2.3-0.4c0.5-0.2,0.8-0.7,0.8-1.3
			c0-0.5-0.2-1-0.7-1.2c-1.6-0.6-3.3-1.1-5-1.5c-1.6-0.3-3.1-1-4.4-1.9c-0.9-0.9-1.4-2.1-1.3-3.3c0-1.7,0.7-3.3,2-4.4
			c1.6-1.3,3.5-2,5.6-1.9c2-0.1,3.9,0.4,5.6,1.4c1.5,1.1,2.5,2.9,2.5,4.8h-4.8c0-0.5-0.2-1-0.5-1.5c-0.7-0.7-1.7-1.1-2.7-1
			c-0.8-0.1-1.6,0.1-2.2,0.5c-0.4,0.2-0.7,0.7-0.7,1.2s0.3,1,0.7,1.2c1.6,0.6,3.3,1,5,1.3c1.6,0.3,3.1,1,4.3,2
			c0.9,0.9,1.4,2.2,1.4,3.5c0.1,1.7-0.7,3.4-2,4.5c-1.3,1.2-3.4,1.7-6.3,1.7s-5-0.6-6.4-1.8s-2.1-2.9-2.1-4.7L154.7,57.8z"/>
		<g>
			<path class="st1" d="M22.4,56.4c1-2.4,3.5-5,7.3-7.8c3.3-2.4,5.5-4.1,6.5-5.1c1.5-1.6,2.3-3.4,2.3-5.3c0-1.6-0.4-2.8-1.3-3.9
				c-0.9-1-2.1-1.5-3.7-1.5c-2.2,0-3.7,0.8-4.5,2.5c-0.5,0.9-0.7,2.4-0.8,4.5h-7c0.1-3.1,0.7-5.7,1.7-7.6c1.9-3.7,5.4-5.5,10.3-5.5
				c3.9,0,7,1.1,9.3,3.2c2.3,2.2,3.4,5,3.4,8.6c0,2.7-0.8,5.1-2.4,7.2c-1.1,1.4-2.8,3-5.3,4.7l-2.9,2.1c-1.8,1.3-3.1,2.2-3.7,2.8
				c-0.7,0.6-1.2,1.2-1.7,2h16v6.4H20.7C20.7,61,21.3,58.6,22.4,56.4z"/>
		</g>
	</g>
	<g>
		<path class="st2" d="M10.2,93.3c-0.6,0.7-1.5,1.1-2.7,1.1S5.4,94,4.8,93.3C4.3,92.5,4,91.7,4,90.7c0-1,0.3-1.9,0.9-2.6
			C5.4,87.3,6.3,87,7.5,87s2.1,0.4,2.7,1.1c0.6,0.7,0.9,1.6,0.9,2.6C11,91.7,10.7,92.5,10.2,93.3z M8.7,92.3
			c0.3-0.4,0.4-0.9,0.4-1.6c0-0.7-0.1-1.2-0.4-1.6c-0.3-0.4-0.7-0.6-1.2-0.6c-0.5,0-0.9,0.2-1.2,0.6C6,89.4,5.8,90,5.8,90.7
			c0,0.7,0.1,1.2,0.4,1.6c0.3,0.4,0.7,0.6,1.2,0.6C8,92.8,8.4,92.6,8.7,92.3z"/>
		<path class="st2" d="M15.2,84.7c0.1,0,0.2,0,0.4,0v1.5c-0.1,0-0.3,0-0.5,0c-0.2,0-0.4,0-0.5,0.2c-0.1,0.1-0.1,0.2-0.1,0.4
			c0,0.1,0,0.3,0,0.6h1.2v1.3h-1.2v5.6h-1.8v-5.6h-1v-1.3h1v-0.4c0-0.7,0.1-1.2,0.4-1.5c0.3-0.4,0.9-0.6,1.9-0.6
			C15,84.7,15.1,84.7,15.2,84.7z"/>
		<path class="st2" d="M26.2,88c0.5,0.7,0.8,1.5,0.8,2.5c0,1.1-0.3,2-0.8,2.7c-0.5,0.7-1.2,1.1-2.1,1.1c-0.6,0-1-0.1-1.4-0.3
			c-0.2-0.1-0.4-0.4-0.7-0.7v0.9h-1.8v-9.3H22v3.3c0.2-0.3,0.5-0.6,0.8-0.7c0.3-0.2,0.7-0.3,1.3-0.3C24.9,87,25.6,87.4,26.2,88z
			 M24.6,92.2c0.3-0.4,0.4-0.9,0.4-1.5c0-0.5-0.1-0.9-0.2-1.2c-0.2-0.6-0.7-0.9-1.3-0.9c-0.7,0-1.1,0.3-1.4,0.9
			C22,89.8,22,90.2,22,90.7c0,0.6,0.1,1.1,0.4,1.5c0.3,0.4,0.7,0.6,1.2,0.6C24,92.8,24.4,92.6,24.6,92.2z"/>
		<path class="st2" d="M32.7,87.3c0.5,0.2,0.9,0.6,1.2,1c0.3,0.4,0.5,0.9,0.6,1.4c0,0.3,0.1,0.8,0.1,1.4h-5c0,0.7,0.3,1.2,0.7,1.5
			c0.3,0.2,0.6,0.3,1,0.3c0.4,0,0.7-0.1,1-0.3c0.1-0.1,0.3-0.3,0.4-0.5h1.8c0,0.4-0.3,0.8-0.7,1.2c-0.6,0.7-1.5,1-2.6,1
			c-0.9,0-1.7-0.3-2.4-0.9c-0.7-0.6-1.1-1.5-1.1-2.8c0-1.2,0.3-2.1,1-2.8c0.6-0.6,1.5-1,2.5-1C31.7,87,32.2,87.1,32.7,87.3z
			 M30,88.9c-0.3,0.3-0.4,0.6-0.5,1.1h3.1c0-0.5-0.2-0.8-0.5-1.1c-0.3-0.2-0.6-0.4-1.1-0.4C30.6,88.5,30.2,88.6,30,88.9z"/>
		<path class="st2" d="M41,87.6c0.5,0.4,0.7,1,0.7,1.9v4.7h-1.9v-4.2c0-0.4,0-0.6-0.1-0.8c-0.2-0.4-0.5-0.5-1-0.5
			c-0.6,0-1,0.3-1.3,0.8c-0.1,0.3-0.2,0.6-0.2,1.1v3.7h-1.8v-6.9h1.8v1c0.2-0.4,0.5-0.6,0.7-0.8c0.4-0.3,0.8-0.4,1.4-0.4
			C40,87,40.5,87.2,41,87.6z"/>
		<path class="st2" d="M47.5,89.7c0-0.3-0.1-0.5-0.3-0.7c-0.2-0.3-0.5-0.4-0.9-0.4c-0.6,0-1,0.3-1.3,0.9c-0.1,0.3-0.2,0.7-0.2,1.3
			c0,0.5,0.1,0.9,0.2,1.2c0.2,0.6,0.6,0.9,1.2,0.9c0.4,0,0.7-0.1,0.9-0.3c0.2-0.2,0.3-0.5,0.3-0.9h1.8c0,0.5-0.2,1.1-0.6,1.6
			c-0.6,0.8-1.4,1.2-2.5,1.2c-1.1,0-1.9-0.3-2.5-1c-0.5-0.7-0.8-1.5-0.8-2.6c0-1.2,0.3-2.1,0.9-2.8c0.6-0.7,1.4-1,2.4-1
			c0.9,0,1.6,0.2,2.1,0.6c0.6,0.4,0.9,1.1,1,2.1H47.5z"/>
		<path class="st2" d="M55.5,87.2c0.3,0.1,0.6,0.4,0.9,0.7c0.2,0.3,0.3,0.5,0.3,0.8c0,0.3,0.1,0.7,0.1,1.3v4.1H55v-4.2
			c0-0.4-0.1-0.7-0.2-0.9c-0.2-0.3-0.5-0.5-0.9-0.5c-0.5,0-0.8,0.2-1.1,0.5c-0.2,0.3-0.4,0.8-0.4,1.4v3.7h-1.8v-9.3h1.8v3.3
			c0.3-0.4,0.6-0.7,0.9-0.8c0.3-0.2,0.7-0.2,1.1-0.2C54.8,87,55.2,87.1,55.5,87.2z"/>
		<path class="st2" d="M67.1,87.2c0.3,0.1,0.6,0.3,0.8,0.6c0.2,0.2,0.3,0.5,0.4,0.9c0,0.2,0.1,0.6,0.1,1l0,4.4h-1.9v-4.4
			c0-0.3,0-0.5-0.1-0.6c-0.2-0.3-0.5-0.5-0.9-0.5c-0.5,0-0.8,0.2-1,0.6c-0.1,0.2-0.1,0.5-0.1,0.8v4.1h-1.8V90c0-0.4,0-0.7-0.1-0.9
			c-0.2-0.3-0.5-0.5-0.9-0.5c-0.5,0-0.9,0.2-1,0.5c-0.1,0.2-0.1,0.5-0.1,0.8v4.2h-1.8v-6.9h1.8v1c0.2-0.4,0.4-0.6,0.6-0.8
			c0.4-0.3,0.8-0.4,1.4-0.4c0.5,0,1,0.1,1.3,0.3c0.3,0.2,0.5,0.5,0.6,0.8c0.2-0.4,0.5-0.7,0.9-0.9c0.4-0.2,0.8-0.3,1.2-0.3
			C66.5,87,66.8,87.1,67.1,87.2z"/>
		<path class="st2" d="M72.8,89.9c0.3,0,0.6-0.1,0.7-0.2c0.3-0.1,0.4-0.3,0.4-0.5c0-0.3-0.1-0.5-0.3-0.6c-0.2-0.1-0.5-0.2-0.9-0.2
			c-0.4,0-0.7,0.1-0.9,0.3c-0.1,0.2-0.2,0.4-0.3,0.6h-1.7c0-0.6,0.2-1.1,0.5-1.5c0.5-0.6,1.3-0.9,2.5-0.9c0.8,0,1.4,0.2,2,0.5
			c0.6,0.3,0.9,0.9,0.9,1.7v3.2c0,0.2,0,0.5,0,0.8c0,0.2,0,0.4,0.1,0.5c0.1,0.1,0.1,0.2,0.3,0.2v0.3h-2C74.1,94,74,93.8,74,93.7
			c0-0.1,0-0.3-0.1-0.4c-0.3,0.3-0.5,0.5-0.9,0.7c-0.4,0.2-0.8,0.3-1.3,0.3c-0.6,0-1.1-0.2-1.6-0.5c-0.4-0.4-0.6-0.9-0.6-1.5
			c0-0.9,0.3-1.5,1-1.8c0.4-0.2,0.9-0.4,1.6-0.4L72.8,89.9z M73.9,90.7c-0.1,0.1-0.2,0.1-0.3,0.2c-0.1,0-0.3,0.1-0.5,0.1l-0.4,0.1
			c-0.4,0.1-0.7,0.2-0.8,0.2c-0.3,0.2-0.4,0.4-0.4,0.8c0,0.3,0.1,0.5,0.3,0.7c0.2,0.1,0.4,0.2,0.6,0.2c0.4,0,0.8-0.1,1.1-0.3
			c0.3-0.2,0.5-0.6,0.5-1.2V90.7z"/>
		<path class="st2" d="M81.1,87c0,0,0.1,0,0.2,0v1.9c-0.1,0-0.2,0-0.3,0c-0.1,0-0.2,0-0.2,0c-0.7,0-1.2,0.2-1.5,0.7
			c-0.1,0.3-0.2,0.7-0.2,1.2v3.3h-1.8v-6.9H79v1.2c0.3-0.5,0.5-0.8,0.7-0.9C80.1,87.2,80.5,87,81.1,87C81.1,87,81.1,87,81.1,87z"/>
		<path class="st2" d="M82.3,84.8h1.8v5l2.3-2.6h2.2l-2.5,2.6l2.6,4.3h-2.2l-1.7-3l-0.7,0.8v2.2h-1.8V84.8z"/>
		<path class="st2" d="M96.8,87.3c0.3,0.2,0.6,0.4,0.8,0.8v-3.3h1.8v9.3h-1.8v-1c-0.3,0.4-0.6,0.7-0.9,0.9c-0.3,0.2-0.7,0.3-1.2,0.3
			c-0.8,0-1.5-0.3-2-1c-0.6-0.7-0.8-1.5-0.8-2.5c0-1.2,0.3-2.1,0.8-2.8c0.5-0.7,1.3-1,2.2-1C96.1,87,96.5,87.1,96.8,87.3z
			 M97.3,92.2c0.3-0.4,0.4-0.9,0.4-1.5c0-0.8-0.2-1.5-0.6-1.8c-0.3-0.2-0.6-0.3-0.9-0.3c-0.5,0-0.9,0.2-1.2,0.6s-0.4,0.9-0.4,1.5
			c0,0.6,0.1,1.1,0.4,1.5s0.6,0.6,1.1,0.6S97,92.6,97.3,92.2z"/>
		<path class="st2" d="M105.6,87.3c0.5,0.2,0.9,0.6,1.2,1c0.3,0.4,0.5,0.9,0.6,1.4c0,0.3,0.1,0.8,0.1,1.4h-5c0,0.7,0.3,1.2,0.7,1.5
			c0.3,0.2,0.6,0.3,1,0.3c0.4,0,0.7-0.1,1-0.3c0.1-0.1,0.3-0.3,0.4-0.5h1.8c0,0.4-0.3,0.8-0.7,1.2c-0.6,0.7-1.5,1-2.6,1
			c-0.9,0-1.7-0.3-2.4-0.9c-0.7-0.6-1.1-1.5-1.1-2.8c0-1.2,0.3-2.1,1-2.8c0.6-0.6,1.5-1,2.5-1C104.6,87,105.1,87.1,105.6,87.3z
			 M102.9,88.9c-0.3,0.3-0.4,0.6-0.5,1.1h3.1c0-0.5-0.2-0.8-0.5-1.1s-0.6-0.4-1.1-0.4C103.5,88.5,103.2,88.6,102.9,88.9z"/>
		<path class="st2" d="M112.6,87.2h1.9l-2.5,6.9h-1.9l-2.5-6.9h2l1.4,5.1L112.6,87.2z"/>
		<path class="st2" d="M120,87.3c0.5,0.2,0.9,0.6,1.2,1c0.3,0.4,0.5,0.9,0.6,1.4c0,0.3,0.1,0.8,0.1,1.4h-5c0,0.7,0.3,1.2,0.7,1.5
			c0.3,0.2,0.6,0.3,1,0.3c0.4,0,0.7-0.1,1-0.3c0.1-0.1,0.3-0.3,0.4-0.5h1.8c0,0.4-0.3,0.8-0.7,1.2c-0.6,0.7-1.5,1-2.6,1
			c-0.9,0-1.7-0.3-2.4-0.9c-0.7-0.6-1.1-1.5-1.1-2.8c0-1.2,0.3-2.1,1-2.8c0.6-0.6,1.5-1,2.5-1C119,87,119.6,87.1,120,87.3z
			 M117.3,88.9c-0.3,0.3-0.4,0.6-0.5,1.1h3.1c0-0.5-0.2-0.8-0.5-1.1s-0.6-0.4-1.1-0.4C118,88.5,117.6,88.6,117.3,88.9z"/>
		<path class="st2" d="M124.6,94.1h-1.8v-9.3h1.8V94.1z"/>
		<path class="st2" d="M132.1,93.3c-0.6,0.7-1.5,1.1-2.7,1.1s-2.1-0.4-2.7-1.1c-0.6-0.7-0.9-1.6-0.9-2.6c0-1,0.3-1.9,0.9-2.6
			c0.6-0.7,1.5-1.1,2.7-1.1s2.1,0.4,2.7,1.1c0.6,0.7,0.9,1.6,0.9,2.6C133,91.7,132.7,92.5,132.1,93.3z M130.7,92.3
			c0.3-0.4,0.4-0.9,0.4-1.6c0-0.7-0.1-1.2-0.4-1.6c-0.3-0.4-0.7-0.6-1.2-0.6s-0.9,0.2-1.2,0.6c-0.3,0.4-0.4,0.9-0.4,1.6
			c0,0.7,0.1,1.2,0.4,1.6c0.3,0.4,0.7,0.6,1.2,0.6S130.4,92.6,130.7,92.3z"/>
		<path class="st2" d="M140.1,87.9c0.6,0.6,0.8,1.5,0.8,2.6c0,1.2-0.3,2.1-0.8,2.8c-0.6,0.6-1.3,1-2.1,1c-0.6,0-1-0.1-1.4-0.4
			c-0.2-0.2-0.4-0.4-0.6-0.7v3.6h-1.8v-9.6h1.7v1c0.2-0.3,0.4-0.5,0.6-0.7c0.4-0.3,0.9-0.5,1.4-0.5C138.9,87,139.6,87.3,140.1,87.9z
			 M138.7,89.2c-0.2-0.4-0.6-0.6-1.2-0.6c-0.7,0-1.1,0.3-1.4,0.9c-0.1,0.3-0.2,0.7-0.2,1.3c0,0.8,0.2,1.4,0.6,1.7
			c0.3,0.2,0.6,0.3,0.9,0.3c0.5,0,0.9-0.2,1.2-0.6c0.3-0.4,0.4-0.9,0.4-1.6C139.1,90.1,139,89.6,138.7,89.2z"/>
		<path class="st2" d="M150.9,87.2c0.3,0.1,0.6,0.3,0.8,0.6c0.2,0.2,0.3,0.5,0.4,0.9c0,0.2,0.1,0.6,0.1,1l0,4.4h-1.9v-4.4
			c0-0.3,0-0.5-0.1-0.6c-0.2-0.3-0.5-0.5-0.9-0.5c-0.5,0-0.8,0.2-1,0.6c-0.1,0.2-0.1,0.5-0.1,0.8v4.1h-1.8V90c0-0.4,0-0.7-0.1-0.9
			c-0.2-0.3-0.5-0.5-0.9-0.5c-0.5,0-0.9,0.2-1,0.5c-0.1,0.2-0.1,0.5-0.1,0.8v4.2h-1.8v-6.9h1.8v1c0.2-0.4,0.4-0.6,0.6-0.8
			c0.4-0.3,0.8-0.4,1.4-0.4c0.5,0,1,0.1,1.3,0.3c0.3,0.2,0.5,0.5,0.6,0.8c0.2-0.4,0.5-0.7,0.9-0.9c0.4-0.2,0.8-0.3,1.2-0.3
			C150.3,87,150.6,87.1,150.9,87.2z"/>
		<path class="st2" d="M158.3,87.3c0.5,0.2,0.9,0.6,1.2,1c0.3,0.4,0.5,0.9,0.6,1.4c0,0.3,0.1,0.8,0.1,1.4h-5c0,0.7,0.3,1.2,0.7,1.5
			c0.3,0.2,0.6,0.3,1,0.3c0.4,0,0.7-0.1,1-0.3c0.1-0.1,0.3-0.3,0.4-0.5h1.8c0,0.4-0.3,0.8-0.7,1.2c-0.6,0.7-1.5,1-2.6,1
			c-0.9,0-1.7-0.3-2.4-0.9c-0.7-0.6-1.1-1.5-1.1-2.8c0-1.2,0.3-2.1,1-2.8c0.6-0.6,1.5-1,2.5-1C157.3,87,157.8,87.1,158.3,87.3z
			 M155.6,88.9c-0.3,0.3-0.4,0.6-0.5,1.1h3.1c0-0.5-0.2-0.8-0.5-1.1c-0.3-0.2-0.6-0.4-1.1-0.4C156.2,88.5,155.8,88.6,155.6,88.9z"/>
		<path class="st2" d="M166.6,87.6c0.5,0.4,0.7,1,0.7,1.9v4.7h-1.9v-4.2c0-0.4,0-0.6-0.1-0.8c-0.2-0.4-0.5-0.5-1-0.5
			c-0.6,0-1,0.3-1.3,0.8c-0.1,0.3-0.2,0.6-0.2,1.1v3.7H161v-6.9h1.8v1c0.2-0.4,0.5-0.6,0.7-0.8c0.4-0.3,0.8-0.4,1.4-0.4
			C165.6,87,166.1,87.2,166.6,87.6z"/>
		<path class="st2" d="M168.2,88.5v-1.3h1v-1.9h1.8v1.9h1.1v1.3H171v3.7c0,0.3,0,0.5,0.1,0.5c0.1,0.1,0.3,0.1,0.7,0.1
			c0.1,0,0.1,0,0.2,0c0.1,0,0.1,0,0.2,0v1.4l-0.9,0c-0.9,0-1.4-0.1-1.8-0.4c-0.2-0.2-0.3-0.5-0.3-1v-4.3H168.2z"/>
		<path class="st2" d="M174.7,91.9c0,0.3,0.1,0.5,0.2,0.7c0.2,0.2,0.6,0.4,1.2,0.4c0.4,0,0.6-0.1,0.9-0.2c0.2-0.1,0.3-0.3,0.3-0.5
			c0-0.2-0.1-0.4-0.3-0.5c-0.2-0.1-0.8-0.3-1.9-0.5c-0.8-0.2-1.3-0.4-1.7-0.7c-0.3-0.3-0.5-0.7-0.5-1.2c0-0.6,0.3-1.2,0.8-1.6
			c0.5-0.5,1.2-0.7,2.1-0.7c0.9,0,1.6,0.2,2.1,0.5c0.5,0.3,0.9,0.9,0.9,1.8h-1.8c0-0.2-0.1-0.4-0.2-0.6c-0.2-0.2-0.5-0.4-1-0.4
			c-0.4,0-0.7,0.1-0.8,0.2c-0.2,0.1-0.3,0.3-0.3,0.4c0,0.2,0.1,0.4,0.3,0.5c0.2,0.1,0.8,0.3,1.9,0.5c0.7,0.2,1.3,0.4,1.6,0.8
			c0.4,0.3,0.5,0.8,0.5,1.3c0,0.7-0.3,1.2-0.8,1.7c-0.5,0.4-1.3,0.6-2.4,0.6c-1.1,0-1.9-0.2-2.4-0.7c-0.5-0.5-0.8-1-0.8-1.8H174.7z"
			/>
		<path class="st2" d="M180.5,92.2h1.9v1.9h-1.9V92.2z"/>
	</g>
</g>
</svg>
