<svg xmlns="http://www.w3.org/2000/svg" xmlns:xlink="http://www.w3.org/1999/xlink" viewBox="0 0 1499.5 324.96"><defs><style>.cls-1{fill:#fff;}.cls-2{fill:url(#linear-gradient);}.cls-3{fill:#7890e7;}</style><linearGradient id="linear-gradient" x1="749.75" x2="749.75" y2="324.96" gradientUnits="userSpaceOnUse"><stop offset="0" stop-color="#212121"/><stop offset="0.15" stop-color="#3a3a3a"/><stop offset="0.34" stop-color="#535353"/><stop offset="0.54" stop-color="#646464"/><stop offset="0.75" stop-color="#6f6f6f"/><stop offset="1" stop-color="#727272"/></linearGradient></defs><g id="Layer_2" data-name="Layer 2"><g id="Layer_1-2" data-name="Layer 1"><path class="cls-1" d="M392,85.78h54.71q31,0,48.11,18t17.1,50.62q0,33.81-17,52.16t-48.21,18.35H392Zm29.09,24.85V200h21q19.35,0,29.76-11.61t10.4-33.57q0-21-10.59-32.6t-29.57-11.61Z"/><path class="cls-1" d="M607.24,212.44q-13.92,14.75-38.38,14.74t-38.39-14.74q-13.92-14.73-13.92-40.74,0-25.81,14-40.6t38.29-14.79q24.27,0,38.28,14.79t14,40.6Q621.16,197.71,607.24,212.44Zm-38.38-8.18q11.16,0,17.33-8.53t6.17-24q0-15.31-6.21-23.89t-17.29-8.57q-11.18,0-17.34,8.57t-6.17,23.89q0,15.51,6.12,24T568.86,204.26Z"/><path class="cls-1" d="M723.21,156.1H697a20,20,0,0,0-6.89-12.29q-5.45-4.47-14.21-4.47-11.37,0-17.48,8.28t-6.12,23.89q0,15.8,6.12,24.22t17.48,8.43q8.67,0,14.11-4.14t7-11.94h26.2q-1.74,18-14.26,28.56t-33,10.54q-24.85,0-38.38-14.49T624,171.51q0-26.49,13.49-40.84t38.43-14.36q20.8,0,33.18,10.7T723.21,156.1Z"/><path class="cls-1" d="M826.41,118.63V224.87H799.24V207.82h-1.73q-7.9,19.37-31,19.36-17.24,0-27.21-10.45t-10-28.85V118.63h28v62q0,22.16,19.56,22.15,10.3,0,15.89-6.07t5.59-16.85V118.63Z"/><path class="cls-1" d="M839.74,224.87V118.63H866.9V136h1.73a28.38,28.38,0,0,1,11.13-14.4A32.05,32.05,0,0,1,898,116.31q11.09,0,18.64,5.16A27.8,27.8,0,0,1,927.39,136h1.74a30.4,30.4,0,0,1,12.32-14.3,36.42,36.42,0,0,1,19.65-5.35q15.9,0,25.15,9.64t9.24,26v72.92h-28v-65.5q0-18.87-17.72-18.88-8.47,0-13.58,5.4t-5.11,14v65h-27V158.22q0-8.39-4.62-13.06t-12.91-4.67a17.48,17.48,0,0,0-13.48,5.78q-5.31,5.78-5.3,14.64v64Z"/><path class="cls-1" d="M1076.54,194.63h26.1a36.92,36.92,0,0,1-16.13,23.83q-13,8.73-32.41,8.72-24.28,0-37.86-14.49t-13.58-40.41q0-25.92,13.68-40.94t37.37-15q23.51,0,36.65,14.16t13.15,39.5v8.57h-72.92V180q.29,11.85,6.79,18.74t17.49,6.89a30.35,30.35,0,0,0,13.87-2.85A15.88,15.88,0,0,0,1076.54,194.63Zm-22.73-56.84q-9.74,0-16,6.27t-7.08,16.56H1076q-.48-10.59-6.4-16.71T1053.81,137.79Z"/><path class="cls-1" d="M1111.64,224.87V118.63h27.16v17.05h1.74a29.77,29.77,0,0,1,11.8-14.26q8-5.1,19.6-5.11,17.63,0,27,10.36t9.34,29.52v68.68h-28v-62q0-22.35-19.55-22.35-9.74,0-15.37,6.31t-5.63,16.81v61.26Z"/><path class="cls-1" d="M1228.61,93.39h28v26.3h22v22.05h-22v47.78q0,6.93,3.32,10.21t10.45,3.27a77.31,77.31,0,0,0,8.28-.38V224a73.44,73.44,0,0,1-14.06,1.26q-19.37,0-27.69-6.75t-8.34-22.34V141.74h-16.56V119.69h16.56Z"/><path class="cls-1" d="M1283.85,149.84q0-15.14,12.18-24.33t32-9.2q20.22,0,31.74,8.19t12.66,23.41h-25.91a12.1,12.1,0,0,0-5.82-8.14q-4.77-2.94-12.48-2.94T1315.73,140q-4.9,3.14-4.91,8.14a7.67,7.67,0,0,0,3.47,6.41q3.46,2.55,10.88,4.19l19.94,4.33q15.51,3.38,22.68,10.31t7.18,18.78q0,15.8-12.91,25.43t-33.9,9.63q-21,0-33.24-8.28t-13.67-23.6h27.35q3.38,11.37,20.13,11.37,8.19,0,13.3-3.13t5.1-8.24a7.73,7.73,0,0,0-3.18-6.41c-2.12-1.63-5.52-3-10.21-4l-19.26-4.34q-15.51-3.36-23.07-10.93T1283.85,149.84Z"/><path class="cls-2" d="M1337,325H162.48A162.43,162.43,0,0,1,47.59,47.59,162,162,0,0,1,162.48,0H1337a162.52,162.52,0,0,1,63.24,312.19A161.32,161.32,0,0,1,1337,325ZM162.48,7.22C76.87,7.22,7.22,76.87,7.22,162.48S76.87,317.74,162.48,317.74H1337c85.61,0,155.26-69.65,155.26-155.26S1422.63,7.22,1337,7.22Z"/><path d="M165.16,222.94h4.6q67.56,0,135.13,0a37.26,37.26,0,0,0,4.6-.29,17.23,17.23,0,0,0,15.15-15.08c.46-3.6.74-7.23,1.07-10.85q3.3-36.12,6.56-72.26c.46-5.11-.72-6.41-5.74-6.42q-72.18,0-144.36,0c-5.85,0-7.5,1.51-8,7.26q-2.85,30.06-5.61,60.13C167.39,197.68,166.32,209.92,165.16,222.94ZM309,107.47c-2.62-7.19-7-10.38-14-10.4-16.78-.06-33.56.07-50.34,0-18.22-.12-13.61,2-21.51-13.24-2.76-5.33-6.75-7.83-12.7-7.8-16.78.07-33.56,0-50.34,0-9.71.06-15.92,6.22-16.33,15.93-.08,2-.06,3.91-.06,5.87q0,49.92,0,99.85c0,3.35-.09,6.72.12,10.06.41,6.47,4.23,10.87,10.77,12.71.12-.22.33-.44.35-.67,2.86-31.32,5.77-62.63,8.51-94,1.09-12.45,7.22-18.34,19.76-18.34H309Z"/><path class="cls-1" d="M165.16,222.94c1.16-13,2.23-25.26,3.35-37.5q2.78-30.06,5.61-60.13c.55-5.75,2.2-7.25,8-7.26q72.18,0,144.36,0c5,0,6.2,1.31,5.74,6.42q-3.22,36.13-6.56,72.26c-.33,3.62-.61,7.25-1.07,10.85a17.23,17.23,0,0,1-15.15,15.08,37.26,37.26,0,0,1-4.6.29q-67.56,0-135.13,0Z"/><path class="cls-3" d="M309,107.47H183.16c-12.54,0-18.67,5.89-19.76,18.34-2.74,31.33-5.65,62.64-8.51,94,0,.23-.23.45-.35.67-6.54-1.84-10.36-6.24-10.77-12.71-.21-3.34-.12-6.71-.12-10.06q0-49.92,0-99.85c0-2,0-3.92.06-5.87.41-9.71,6.62-15.87,16.33-15.93,16.78-.09,33.56,0,50.34,0,5.95,0,9.94,2.47,12.7,7.8C231,99.05,226.36,96.9,244.58,97c16.78.12,33.56,0,50.34,0C302,97.09,306.33,100.28,309,107.47Z"/></g></g></svg>