<svg xmlns="http://www.w3.org/2000/svg" xmlns:xlink="http://www.w3.org/1999/xlink" viewBox="0 0 1499.5 324.96"><defs><style>.cls-1{fill:url(#linear-gradient);}.cls-2{fill:#fff;}.cls-3{fill:#7890e7;}</style><linearGradient id="linear-gradient" x1="749.75" x2="749.75" y2="324.96" gradientUnits="userSpaceOnUse"><stop offset="0" stop-color="#212121"/><stop offset="0.15" stop-color="#3a3a3a"/><stop offset="0.34" stop-color="#535353"/><stop offset="0.54" stop-color="#646464"/><stop offset="0.75" stop-color="#6f6f6f"/><stop offset="1" stop-color="#727272"/></linearGradient></defs><g id="Layer_2" data-name="Layer 2"><g id="Layer_1-2" data-name="Layer 1"><path class="cls-1" d="M1337,325H162.48A162.43,162.43,0,0,1,47.59,47.59,162,162,0,0,1,162.48,0H1337a162.52,162.52,0,0,1,63.24,312.19A161.32,161.32,0,0,1,1337,325ZM162.48,7.22C76.87,7.22,7.22,76.87,7.22,162.48S76.87,317.74,162.48,317.74H1337c85.61,0,155.26-69.65,155.26-155.26S1422.63,7.22,1337,7.22Z"/><path class="cls-2" d="M202,233.14c-1.13-1.14-3.82-2.83-5.1-5.27-6.15-11.67-11.79-23.61-17.92-35.29a15.08,15.08,0,0,0-5.9-6c-10.81-5.72-21.82-11-32.75-16.51a7,7,0,0,1-2.15-1.12c-1.93-2.18-5.29-4.58-5.15-6.7.16-2.52,2.89-5.71,5.36-7.1a217,217,0,0,1,25.35-12.65c9.82-3.94,16.4-10.2,20.34-20.09,3.48-8.75,8.11-17,12.32-25.49,1.46-3,3.05-5.74,7.09-5.82,4.19-.09,6,2.55,7.58,5.76C216.6,108,222,119.15,227.8,130.06a18.92,18.92,0,0,0,7.15,7.4c10.73,5.83,21.78,11.1,32.7,16.58,1,.52,2.06,1,3,1.6,6,3.82,5.95,9.6-.36,12.88-11.85,6.17-23.91,11.95-35.66,18.3a17.91,17.91,0,0,0-6.84,7.05c-5.55,10.51-10.54,21.32-15.89,31.93C210.2,229.19,208.86,233.29,202,233.14Z"/><path class="cls-3" d="M322.43,103.44c-1.93,1.54-3.08,2.9-4.56,3.56-4.9,2.21-9.88,4.27-14.9,6.19a11.23,11.23,0,0,0-7.15,7.36,146.64,146.64,0,0,1-6.31,14.85c-.6,1.27-2.17,2.89-3.29,2.88s-2.8-1.55-3.39-2.82c-2.49-5.31-4.41-10.9-7.06-16.12a13.64,13.64,0,0,0-5.5-5.61c-5.06-2.59-10.53-4.39-15.7-6.81-1.41-.66-3.24-2.38-3.22-3.6s1.85-2.9,3.27-3.57c5.31-2.49,10.91-4.39,16.13-7a12.6,12.6,0,0,0,5.06-5.36c2.55-5.1,4.42-10.53,6.86-15.68.66-1.4,2.4-3.21,3.61-3.19s2.86,1.89,3.52,3.31C292.2,77,294,82.43,296.58,87.5A13.62,13.62,0,0,0,302.17,93c5.22,2.66,10.8,4.61,16.15,7C319.63,100.66,320.64,101.94,322.43,103.44Z"/><path class="cls-3" d="M322.44,221c-1.92,1.55-3.07,2.92-4.53,3.58-5.35,2.41-11,4.3-16.16,7a13.54,13.54,0,0,0-5.35,5.73c-2.58,5.07-4.46,10.5-6.88,15.67-.59,1.28-2.14,2.91-3.26,2.92s-2.82-1.54-3.42-2.8c-2.42-5.16-4.19-10.66-6.9-15.65a16.84,16.84,0,0,0-6.55-6.42c-4.71-2.56-9.92-4.17-14.78-6.47-1.42-.68-3.26-2.36-3.26-3.58s1.8-3,3.22-3.63c5.31-2.49,10.9-4.38,16.13-7a12.54,12.54,0,0,0,5.09-5.33c2.62-5.24,4.59-10.81,7.08-16.12.59-1.26,2.23-2.82,3.38-2.82s2.74,1.6,3.33,2.87c2.45,5.32,4.34,10.93,7,16.15a13.5,13.5,0,0,0,5.57,5.56c5.21,2.66,10.79,4.61,16.14,7C319.61,218.25,320.63,219.51,322.44,221Z"/><path class="cls-2" d="M391.79,84H448q31.86,0,49.42,18.45t17.56,52q0,34.73-17.46,53.57T448,226.85h-56.2Zm29.88,25.52v91.81h21.57q19.89,0,30.57-11.92t10.69-34.48q0-21.55-10.89-33.49t-30.37-11.92Z"/><path class="cls-2" d="M612.91,214.09q-14.31,15.14-39.43,15.13t-39.43-15.13Q519.76,199,519.76,172.24q0-26.52,14.39-41.7t39.33-15.19q24.93,0,39.33,15.19t14.39,41.7Q627.2,199,612.91,214.09Zm-39.43-8.41q11.47,0,17.81-8.76t6.33-24.68q0-15.74-6.38-24.54t-17.76-8.8q-11.47,0-17.81,8.8t-6.33,24.54q0,15.93,6.28,24.68T573.48,205.68Z"/><path class="cls-2" d="M782.18,117.72l-29,109.13H722.52L703,151.56h-1.78L682,226.85H651.68L622.59,117.72h29.19L668,196h1.78l19.1-78.26h27.5L735.58,196h1.78l16.22-78.26Z"/><path class="cls-2" d="M787.46,226.85V117.72h27.9v17.52h1.78a30.65,30.65,0,0,1,12.12-14.65q8.26-5.24,20.13-5.24,18.11,0,27.71,10.64t9.59,30.32v70.54H857.9V163.14q0-23-20.08-23-10,0-15.78,6.48t-5.79,17.27v62.92Z"/><path class="cls-2" d="M900.39,226.85V76.07h28.79V226.85Z"/><path class="cls-2" d="M1031.66,214.09q-14.3,15.14-39.42,15.13t-39.43-15.13Q938.52,199,938.52,172.24q0-26.52,14.39-41.7t39.33-15.19q24.93,0,39.33,15.19t14.39,41.7Q1046,199,1031.66,214.09Zm-39.42-8.41q11.47,0,17.81-8.76t6.33-24.68q0-15.74-6.38-24.54t-17.76-8.8q-11.47,0-17.81,8.8t-6.33,24.54q0,15.93,6.28,24.68T992.24,205.68Z"/><path class="cls-2" d="M1084.09,228.53q-15.83,0-25.77-9t-10-23.84q0-14.74,10.94-23.2t31.31-9.65l26.42-1.58v-8.91q0-6.82-4.75-10.54t-13.66-3.71q-16,0-19.68,10.1h-26.52q1.38-15.15,14.3-24t33.49-8.85q21.55,0,33.39,9.69t11.82,27.31v74.5h-27.9V212.6h-1.78a29,29,0,0,1-12.66,11.73A42,42,0,0,1,1084.09,228.53Zm9.5-21.66q10,0,16.72-5.64a17.53,17.53,0,0,0,6.73-13.95v-8L1095,180.65q-18.39,1.28-18.4,13.16a11.28,11.28,0,0,0,4.7,9.54Q1086,206.88,1093.59,206.87Z"/><path class="cls-2" d="M1197.61,228.53q-20.58,0-32.5-15.13t-11.92-41.26q0-26,11.92-41.11t32.5-15.09a37.89,37.89,0,0,1,19.69,5.1,31.9,31.9,0,0,1,12.86,14.1h1.68V76.07h28.79V226.85h-27.9V209.73H1231a31.76,31.76,0,0,1-13.16,13.81A40.19,40.19,0,0,1,1197.61,228.53Zm27.9-79.79q-6.63-8.66-18.11-8.66t-18.05,8.56q-6.58,8.56-6.58,23.6t6.53,23.69q6.53,8.56,18.1,8.56t18.16-8.56q6.57-8.55,6.58-23.59T1225.51,148.74Z"/><path class="cls-2" d="M1272.84,149.78q0-15.54,12.52-25t32.89-9.45q20.77,0,32.6,8.41t13,24h-26.61a12.43,12.43,0,0,0-6-8.36q-4.89-3-12.81-3t-12.86,3.22q-5,3.21-5,8.36a7.89,7.89,0,0,0,3.57,6.58q3.56,2.63,11.18,4.3l20.47,4.45q15.93,3.46,23.3,10.59t7.38,19.29q0,16.23-13.26,26.12t-34.83,9.89q-21.57,0-34.13-8.5t-14-24.24h28.1q3.46,11.67,20.68,11.67,8.4,0,13.65-3.21t5.24-8.46a7.93,7.93,0,0,0-3.26-6.58q-3.27-2.52-10.49-4.11l-19.79-4.45q-15.93-3.47-23.69-11.23T1272.84,149.78Z"/></g></g></svg>