<svg xmlns="http://www.w3.org/2000/svg" viewBox="0 0 293.09 136.15"><defs><style>.cls-1{fill:#fff;}</style></defs><g id="Layer_2" data-name="Layer 2"><g id="Layer_1-2" data-name="Layer 1"><path class="cls-1" d="M293.09,73.51a39.06,39.06,0,0,1-3.3,4.85q-7.29,10.08-14.6,20.13A5.7,5.7,0,0,0,274,102c0,3.13,0,6.25,0,9.37,0,1.56-.37,1.89-1.94,1.81-1.05,0-2.11,0-3.17,0-.15,0-.3,0-.45,0-.94,0-1.35-.39-1.37-1.33s0-2,0-2.94c0-2.42,0-4.84,0-7.26A5.33,5.33,0,0,0,266,98.37L253.71,82c-1.68-2.24-3.36-4.47-5-6.71-.42-.57-.77-1.17-1.22-1.85.29,0,.47-.07.65-.08,1.46,0,2.92,0,4.37-.14A6.3,6.3,0,0,1,258,75.56a9,9,0,0,1,.6.78c3.22,4.79,6.81,9.3,10.3,13.89l1.44,1.85a6.18,6.18,0,0,0,.45.48c.64-.9,1.27-1.75,1.88-2.61l10.59-15c.2-.29.41-.57.62-.86a1.7,1.7,0,0,1,1.48-.73c2.57,0,5.14,0,7.71,0Z"/><path class="cls-1" d="M119.26,117.08c.31.41.55.66.73,1,3.58,6,9,9.53,15.68,11.12a39.93,39.93,0,0,0,13.21.8,82,82,0,0,0,25.87-7.41,122.64,122.64,0,0,0,14.81-8.16c.36-.23.69-.49,1-.75.05,0,.07-.12.11-.18-.06-.33-.31-.29-.53-.3-1.54,0-3.08,0-4.61,0a2.69,2.69,0,0,1-2.69-1.41c-1-1.69-2.09-3.34-3.11-5a2.44,2.44,0,0,0-2.24-1.28c-1.33,0-2.67,0-4,0-3.33,0-6.65,0-10,0-.73,0-1.45-.09-2.25-.14a2.39,2.39,0,0,1,.22-.5c1.15-1.71,2.33-3.41,3.46-5.13a1.49,1.49,0,0,1,1.39-.72h8.23c-.16-.62-7-11.51-8.31-13.3-.18.26-.35.48-.51.72-3.05,4.77-6.12,9.54-9.16,14.32-2.21,3.48-4.4,7-6.6,10.48-.17.28-.36.55-.55.81a2.91,2.91,0,0,1-2.49,1.18c-1.69,0-3.38,0-5.06-.06a8.89,8.89,0,0,1-2.18-.23l26.43-41.61h.11s.05,0,.07,0a.52.52,0,0,1,.1.11l.17.25,25.83,40.6.05,0,.12.08.58-.37a127.46,127.46,0,0,0,13.64-10.87l7.48-6.49.17-.15c.87-.78.91-1.23.11-2.08-1.95-2.07-3.92-4.12-5.88-6.19L198.2,75.12c-.48-.51-.9-1.05-1.35-1.58l.07-.18,2.07-.14c1-.06,1.91-.06,2.86-.14a7.47,7.47,0,0,1,5.42,1.42,12.7,12.7,0,0,1,2,1.77c2.85,3.33,6,6.42,9,9.57l1.14,1.2c1,1,1.35,1.06,2.3-.05,1.78-2.06,3.57-4.11,5.28-6.22a121.06,121.06,0,0,0,16-25.35,83.18,83.18,0,0,0,5.59-15.53,50.39,50.39,0,0,0,1.43-15,26.45,26.45,0,0,0-5.72-15.39A23.19,23.19,0,0,0,232.55,1.9c-1.8-.54-3.67-.84-5.52-1.24a7.25,7.25,0,0,1-.81-.16c-.11,0-.18-.21-.36-.44.84,0,1.52-.06,2.19-.06a40.07,40.07,0,0,1,10.69,1.28,26,26,0,0,1,12.34,7.26,24.44,24.44,0,0,1,5.7,10.77,39.87,39.87,0,0,1,1,13,66.47,66.47,0,0,1-4.07,17.37,108.11,108.11,0,0,1-11.7,23A162.44,162.44,0,0,1,222.14,97a156.12,156.12,0,0,1-32.55,25.39,112.11,112.11,0,0,1-20.77,9.69,80.71,80.71,0,0,1-15.56,3.65,41.1,41.1,0,0,1-16.41-.86,27.08,27.08,0,0,1-9.65-4.69,24.39,24.39,0,0,1-8-11.58A2.12,2.12,0,0,1,119.26,117.08Z"/><path class="cls-1" d="M126.91,95.56a49.06,49.06,0,0,1,3.46-17.93,76.38,76.38,0,0,1,7.92-15.25,125.57,125.57,0,0,1,31.4-33.19,107.33,107.33,0,0,1,17-10.15c2-.93,4-1.77,6-2.65l.8-.37-.66-1A12,12,0,0,1,191,10.84,5,5,0,0,1,191.28,8a6.84,6.84,0,0,1,10.21-3.28,6.07,6.07,0,0,1,2.69,4.91c.08.85,0,1.71,0,2.57V13l2.59-.29a39.64,39.64,0,0,1,8.29-.26,21.66,21.66,0,0,1,13.42,5.72,16.82,16.82,0,0,1,5.17,10.25c.16,1.15.18,2.31.26,3.46a.74.74,0,0,1-.18.54c-.15-.27-.33-.53-.46-.81A19.88,19.88,0,0,0,229,25.47a19.31,19.31,0,0,0-9.35-4.81,35.92,35.92,0,0,0-10.6-.58,54.8,54.8,0,0,0-17.61,4.83,100.49,100.49,0,0,0-28.78,19.3,145.46,145.46,0,0,0-15.45,17.27A162.6,162.6,0,0,0,134,81.07a96.75,96.75,0,0,0-4.92,10c-.55,1.32-1.19,2.6-1.8,3.91C127.19,95.1,127.08,95.26,126.91,95.56Z"/><path class="cls-1" d="M30.48,113.14H25c-2.06,0-4.13,0-6.19,0A19.15,19.15,0,0,1,.46,97.54a22.93,22.93,0,0,1,1-12.78,18.23,18.23,0,0,1,13.28-11,19,19,0,0,1,3.38-.26c7.25-.07,14.51-.11,21.76-.16h.38c1.31,0,1.55.28,1.54,1.62s0,2.51,0,3.77-.35,1.71-1.62,1.72H20.51a15.44,15.44,0,0,0-4.92.68,12.07,12.07,0,0,0-8.25,9,13,13,0,0,0,6.37,14.46A12.17,12.17,0,0,0,19.43,106c3.08,0,6.15,0,9.22,0l7.18,0h.23c1.18,0,1.49-.37,1.48-1.57,0-1.77,0-3.53,0-5.29v-.38c-.05-.77-.35-1.09-1.11-1.16-.25,0-.5,0-.75,0l-14.59,0c-1.61,0-2-.4-2-2a25.08,25.08,0,0,1,.12-3c.11-1,.49-1.35,1.49-1.51A12.23,12.23,0,0,1,22.48,91l20.17,0c1.63,0,2,.33,2,1.94q0,9.23,0,18.43a4.77,4.77,0,0,1,0,.76,1.08,1.08,0,0,1-.94.95,8,8,0,0,1-1.2.09c-3.78,0-7.55,0-11.33,0h-.61Z"/><path class="cls-1" d="M83.24,98.85,74.86,85.64c-.19.27-.34.46-.47.66L58.48,111.36c-.08.13-.17.25-.24.38a2.78,2.78,0,0,1-2.84,1.45c-1.78-.08-3.57,0-5.36-.06-.54,0-1.09-.06-1.81-.11,8.9-14,17.71-27.87,26.58-41.85.21.31.38.55.53.79L96.09,104.6l4.65,7.33a4,4,0,0,1,.32.52c.18.4,0,.68-.46.7h-.3a12.88,12.88,0,0,0-3.16.17,7.23,7.23,0,0,1-3-.11,5.83,5.83,0,0,1-3.48-2.37,13.62,13.62,0,0,1-1.28-2.3c-1-2.26-2.35-3.24-4.82-3.11-4.15.23-8.31.1-12.46.09-.73,0-1.46-.07-2.27-.11a4.11,4.11,0,0,1,.23-.5c1.14-1.72,2.31-3.43,3.43-5.16A1.48,1.48,0,0,1,74.87,99q3.13,0,6.27,0C81.78,99,82.43,98.9,83.24,98.85Z"/><path class="cls-1" d="M138.78,106.14c-.1.2-.14.32-.2.42-1.22,1.88-2.44,3.75-3.64,5.65a1.83,1.83,0,0,1-1.63.91l-.68,0-24,0c-.38,0-.76,0-1.13,0a12.27,12.27,0,0,1-1.36-.06,1,1,0,0,1-1-1,6.37,6.37,0,0,1-.05-1q0-17.12,0-34.23c0-.66,0-1.31,0-2a3.8,3.8,0,0,1,.06-.75,1,1,0,0,1,1-.9c.25,0,.51,0,.76,0,1.16,0,2.32,0,3.47,0s1.6.28,1.68,1.49c0,.43,0,.86,0,1.29L112,97.46c0,2.34,0,4.68,0,7,0,1.33.19,1.53,1.52,1.53h23C137.26,106,138,106.1,138.78,106.14Z"/><path class="cls-1" d="M243.19,113c-1.55.11-3.05.26-4.55.34a9.89,9.89,0,0,1-8.83-4.17,48.89,48.89,0,0,0-5.47-6c-1.22-1.16-1.17-1.68.06-2.83.88-.83,1.71-1.71,2.56-2.57a7.94,7.94,0,0,1,.59-.57.73.73,0,0,1,1,0,5.44,5.44,0,0,1,.49.47l13.45,14.19A2,2,0,0,1,243.19,113Z"/><path class="cls-1" d="M111.82,62.28c-.84,0-1.7,0-2.54,0a1.37,1.37,0,0,1-1.22-1.08c-.1-.37-.18-.74-.3-1.09a3,3,0,0,0-2.93-2.19c-.52,0-1,.08-1.58.09H100.5a2.22,2.22,0,0,1,2-3c.62-.08,1.26-.07,1.88-.09.32,0,.65,0,1.13,0-.93-2.18-1.8-4.23-2.74-6.46a15.16,15.16,0,0,0-.86,1.51c-1.42,3.33-2.82,6.67-4.24,10a13.69,13.69,0,0,1-.73,1.49,1.63,1.63,0,0,1-1.58.85,5.77,5.77,0,0,1-2-.38c.09-.26.17-.49.27-.72q3.47-8,6.92-16A1.75,1.75,0,0,1,102.41,44c.2,0,.41,0,.61,0a1.74,1.74,0,0,1,1.74,1.18q3.39,7.83,6.81,15.64A2.32,2.32,0,0,1,111.82,62.28Z"/><path class="cls-1" d="M.15,59.68c.36-.54.67-1.06,1-1.54a1.16,1.16,0,0,1,1.66-.35c.28.16.54.37.81.55a6.69,6.69,0,0,0,5.34,1,2,2,0,0,0,1.39-.94,1.82,1.82,0,0,0-.72-2.65,16.29,16.29,0,0,0-2.19-.79c-1-.33-2-.56-3-.94a10.3,10.3,0,0,1-2.11-1.15A3.54,3.54,0,0,1,.89,50.37,5.22,5.22,0,0,1,5.4,44.09a9.83,9.83,0,0,1,7.22,1.43,3,3,0,0,1,.49.36.65.65,0,0,1,.12.94c-.18.31-.39.59-.58.88-.5.77-.89.92-1.71.54a12.71,12.71,0,0,0-3.24-1c-.45-.08-.9-.16-1.35-.2a1.82,1.82,0,0,0-2,1.33,1.75,1.75,0,0,0,.91,2.23,8.23,8.23,0,0,0,.91.37c1.79.65,3.6,1.28,5.38,2A3.71,3.71,0,0,1,14,55.66a5.83,5.83,0,0,1-.43,4A4.45,4.45,0,0,1,10.77,62a10.27,10.27,0,0,1-8.39-.77A12.09,12.09,0,0,1,.15,59.68Z"/><path class="cls-1" d="M27.6,55c-.19-.48-.31-.78-.44-1.07-.65-1.5-1.29-3-2-4.5-.1-.23-.28-.57-.46-.6-.34-.07-.37.34-.47.58-1.2,2.77-2.38,5.55-3.57,8.33-.44,1-.89,2.08-1.34,3.12a8.25,8.25,0,0,1-.49.93,1,1,0,0,1-.94.55c-.72,0-1.43-.1-2.27-.17a18.57,18.57,0,0,1,.56-1.91c2.16-5,4.34-10,6.49-15A1.68,1.68,0,0,1,24.39,44c2,0,2,.17,2.71,1.75,2.12,4.89,4.27,9.78,6.39,14.67.2.45.33.94.51,1.45a4.5,4.5,0,0,1-2.49.42,1.47,1.47,0,0,1-1.08-.87c-.34-.67-.66-1.35-.94-2.05C28.94,58,28.91,58,27.4,58q-2,0-4.08,0c-.25,0-.49,0-.71-.06A2.14,2.14,0,0,1,24.54,55c.62-.08,1.25-.06,1.88-.08C26.77,54.94,27.11,55,27.6,55Z"/><path class="cls-1" d="M49.19,44.45c.64-.15,1.14-.31,1.66-.39a1.89,1.89,0,0,1,2.09,1,13.63,13.63,0,0,1,.7,1.5c1.16,3,2.3,6,3.47,8.93.24.62.54,1.22.88,2,.17-.38.28-.6.37-.82l4.07-10.32A12.14,12.14,0,0,1,63.07,45a1.65,1.65,0,0,1,1.68-.91,5.9,5.9,0,0,1,2,.47l-.24.66L60.09,60.9a2,2,0,0,1-2.34,1.56A2.07,2.07,0,0,1,55.83,61c-1-2.54-2-5.08-3.09-7.61s-2.06-5-3.08-7.47C49.48,45.5,49.37,45,49.19,44.45Z"/><path class="cls-1" d="M80.47,52.57c1.24-1.2,2.36-2.25,3.44-3.33a37.73,37.73,0,0,0,3.66-3.92,3,3,0,0,1,2.2-1.16,10.27,10.27,0,0,1,2.83.18c-.44.54-.77,1-1.17,1.41-2.86,2.9-5.75,5.78-8.61,8.69a12.22,12.22,0,0,0-1.62,2A5.45,5.45,0,0,0,80.36,60c0,.28,0,.55.07.83,0,1-.28,1.34-1.23,1.44h-.07c-1.6.14-2.06-.28-2.06-1.87q0-6.42,0-12.84c0-.53,0-1.06,0-1.58a5.33,5.33,0,0,1,.09-1,.91.91,0,0,1,.74-.78,7,7,0,0,1,1.71-.08c.58,0,.82.38.86,1s0,1.11,0,1.66c0,1.72,0,3.43,0,5.14C80.43,52.08,80.45,52.23,80.47,52.57Z"/><path class="cls-1" d="M40.51,44.15h6c1.11,0,1.39.27,1.44,1.35,0,.23,0,.45,0,.68-.05.75-.35,1-1.08,1.07-.4,0-.81,0-1.21,0-.65,0-1.31,0-2,.13a1.38,1.38,0,0,0-1.36,1.37,17.28,17.28,0,0,0-.12,2c0,3.32,0,6.65,0,10a4,4,0,0,1,0,.6.84.84,0,0,1-.73.84,12.56,12.56,0,0,1-1.94,0,.75.75,0,0,1-.67-.72,3,3,0,0,1,0-.52q0-6.07,0-12.16c0-1.18-.41-1.58-1.6-1.56l-2.79.08a3,3,0,0,1-.52,0c-.53-.09-.76-.3-.81-.84a8.69,8.69,0,0,1,0-1.35.87.87,0,0,1,1-.92c.95,0,1.91,0,2.87,0Z"/><path class="cls-1" d="M69.53,53.26c0-2.55,0-5.09,0-7.63a3.07,3.07,0,0,1,0-.68.83.83,0,0,1,.74-.75,10.73,10.73,0,0,1,1.88,0c.48.06.7.43.71,1.09,0,1.08,0,2.16,0,3.25v9.82c0,.9,0,1.81,0,2.71s-.29,1.15-1.2,1.18l-1.06,0c-.74,0-1.07-.3-1.11-1,0-.4,0-.8,0-1.21V53.26Z"/><path class="cls-1" d="M182.35,12.46A3.35,3.35,0,0,1,179,9a3.34,3.34,0,0,1,3.41-3.37,3.41,3.41,0,1,1-.06,6.81Z"/><path class="cls-1" d="M92.94,62a6,6,0,0,1-2.61.23,3.62,3.62,0,0,1-2.71-1.84,30.3,30.3,0,0,0-2.89-4,5.21,5.21,0,0,1-.5-.66,1,1,0,0,1,.16-1.44c.35-.35.73-.69,1.12-1a.59.59,0,0,1,.93,0,4.36,4.36,0,0,1,.44.51c1.76,2.3,3.52,4.59,5.27,6.9C92.42,61.17,92.64,61.56,92.94,62Z"/></g></g></svg>