<svg xmlns="http://www.w3.org/2000/svg" viewBox="0 0 202.37 8.64"><defs><style>.cls-1{fill:#ededed;}.cls-2{fill:#fff;}</style></defs><g id="Layer_2" data-name="Layer 2"><g id="Layer_1-2" data-name="Layer 1"><path class="cls-1" d="M0,.12H.89V7.75h4.7v.77H0Z"/><path class="cls-1" d="M9.47.12h.89v8.4H9.47Z"/><path class="cls-1" d="M16.38.89v3.3h4.34V5H16.38V8.52h-.89V.12h5.76V.89Z"/><path class="cls-1" d="M31.43,7.75v.77H25.49V.12h5.76V.89H26.38v3h4.34v.75H26.38V7.75Z"/><path class="cls-1" d="M46.73,6.28H42.05L41,8.52h-.92L44,.12h.87l3.84,8.4h-.94Zm-.33-.72L44.39,1l-2,4.52Z"/><path class="cls-1" d="M61.19.12v8.4h-.85V1.8L57,7.45h-.42l-3.3-5.61V8.52h-.86V.12h.74l3.64,6.23L60.46.12Z"/><path class="cls-1" d="M67.73,8A4.08,4.08,0,0,1,66.15,6.5a4.2,4.2,0,0,1-.57-2.18,4.2,4.2,0,0,1,.57-2.18A4.08,4.08,0,0,1,67.73.61a4.88,4.88,0,0,1,4.52,0,4.12,4.12,0,0,1,1.57,1.53,4.17,4.17,0,0,1,.58,2.19,4.17,4.17,0,0,1-.58,2.19A4.12,4.12,0,0,1,72.25,8a4.88,4.88,0,0,1-4.52,0Zm4.06-.68A3.22,3.22,0,0,0,73.05,6.1a3.45,3.45,0,0,0,.46-1.78,3.45,3.45,0,0,0-.46-1.78,3.22,3.22,0,0,0-1.26-1.25A3.58,3.58,0,0,0,70,.84a3.65,3.65,0,0,0-1.81.45,3.25,3.25,0,0,0-1.27,1.25,3.45,3.45,0,0,0-.46,1.78,3.45,3.45,0,0,0,.46,1.78,3.25,3.25,0,0,0,1.27,1.25A3.65,3.65,0,0,0,70,7.8,3.58,3.58,0,0,0,71.79,7.35Z"/><path class="cls-1" d="M85.81.12v8.4h-.73L79.68,1.7V8.52h-.89V.12h.73l5.41,6.82V.12Z"/><path class="cls-1" d="M96.86,4.32h.85v3.2a4.05,4.05,0,0,1-1.39.8,5.25,5.25,0,0,1-1.69.27A4.65,4.65,0,0,1,92.36,8a4.08,4.08,0,0,1-1.58-1.53,4.27,4.27,0,0,1-.58-2.19,4.27,4.27,0,0,1,.58-2.19A4.08,4.08,0,0,1,92.36.6,4.66,4.66,0,0,1,94.64.05a5.06,5.06,0,0,1,1.77.3,3.54,3.54,0,0,1,1.35.91l-.55.56a3.47,3.47,0,0,0-2.53-1,3.74,3.74,0,0,0-1.84.45,3.3,3.3,0,0,0-1.29,1.25,3.45,3.45,0,0,0-.47,1.78,3.45,3.45,0,0,0,.47,1.78,3.39,3.39,0,0,0,1.28,1.24,4,4,0,0,0,4-.19Z"/><path class="cls-1" d="M103.14,8.29a3.25,3.25,0,0,1-1.32-.79l.35-.68a3.26,3.26,0,0,0,1.21.73,4.36,4.36,0,0,0,1.56.29,2.83,2.83,0,0,0,1.69-.42,1.26,1.26,0,0,0,.57-1.07,1.1,1.1,0,0,0-.31-.81,2.2,2.2,0,0,0-.75-.46,12.59,12.59,0,0,0-1.24-.35,15.26,15.26,0,0,1-1.51-.46,2.55,2.55,0,0,1-1-.68,1.86,1.86,0,0,1-.4-1.24,2.07,2.07,0,0,1,.34-1.16,2.36,2.36,0,0,1,1-.83,4.18,4.18,0,0,1,1.73-.31,4.81,4.81,0,0,1,1.41.2,4,4,0,0,1,1.19.54l-.3.71A4,4,0,0,0,106.29,1,4.06,4.06,0,0,0,105.12.8a2.72,2.72,0,0,0-1.66.43,1.3,1.3,0,0,0-.56,1.1,1.09,1.09,0,0,0,.31.81,2.08,2.08,0,0,0,.76.47c.31.1.72.22,1.24.35a11.72,11.72,0,0,1,1.5.45,2.42,2.42,0,0,1,1,.67,1.76,1.76,0,0,1,.4,1.22,2.07,2.07,0,0,1-.34,1.16,2.35,2.35,0,0,1-1,.83,4.45,4.45,0,0,1-1.74.3A5.44,5.44,0,0,1,103.14,8.29Z"/><path class="cls-1" d="M113.92.89h-3V.12h6.79V.89h-3V8.52h-.88Z"/><path class="cls-2" d="M128.58,1.44h-2.79V.12h7.13V1.44h-2.78V8.52h-1.56Z"/><path class="cls-2" d="M144,.12v8.4H142.4V4.92h-4.34v3.6H136.5V.12h1.56V3.59h4.34V.12Z"/><path class="cls-2" d="M154.92,7.21V8.52h-6.3V.12h6.13V1.43h-4.57V3.61h4V4.9h-4V7.21Z"/><path class="cls-2" d="M165.5,8.36a3.74,3.74,0,0,1-1.44-.73l.54-1.21a4.61,4.61,0,0,0,1.27.67,4.64,4.64,0,0,0,1.51.25,2.59,2.59,0,0,0,1.39-.3.9.9,0,0,0,.46-.79.75.75,0,0,0-.25-.59,1.83,1.83,0,0,0-.66-.37q-.39-.13-1.08-.3a12.32,12.32,0,0,1-1.55-.45,2.54,2.54,0,0,1-1-.72,1.88,1.88,0,0,1-.43-1.31,2.26,2.26,0,0,1,.38-1.27,2.5,2.5,0,0,1,1.14-.9A4.53,4.53,0,0,1,167.63,0a6,6,0,0,1,1.51.19,4.27,4.27,0,0,1,1.28.55L169.93,2a5.08,5.08,0,0,0-1.15-.5,4.39,4.39,0,0,0-1.17-.16,2.42,2.42,0,0,0-1.37.31,1,1,0,0,0-.45.83.74.74,0,0,0,.26.58,1.64,1.64,0,0,0,.65.36q.41.14,1.08.3a13.17,13.17,0,0,1,1.54.45,2.64,2.64,0,0,1,1,.72,1.85,1.85,0,0,1,.43,1.29,2.2,2.2,0,0,1-.38,1.26,2.5,2.5,0,0,1-1.14.9,4.59,4.59,0,0,1-1.87.34A6.2,6.2,0,0,1,165.5,8.36Z"/><path class="cls-2" d="M176.3,1.44h-2.78V.12h7.13V1.44h-2.79V8.52H176.3Z"/><path class="cls-2" d="M189.25,6.58h-4.2l-.83,1.94h-1.61l3.78-8.4h1.54l3.79,8.4h-1.63Zm-.52-1.23-1.58-3.67-1.57,3.67Z"/><path class="cls-2" d="M200.69,8.52,199,6.06h-2.22V8.52h-1.56V.12h3.46a4.67,4.67,0,0,1,1.9.36,2.75,2.75,0,0,1,1.24,1,2.88,2.88,0,0,1,.43,1.6,2.84,2.84,0,0,1-.46,1.63,2.7,2.7,0,0,1-1.33,1l1.94,2.76Zm-.57-6.65a2.39,2.39,0,0,0-1.55-.43h-1.82V4.79h1.82a2.39,2.39,0,0,0,1.55-.44,1.53,1.53,0,0,0,.53-1.24A1.52,1.52,0,0,0,200.12,1.87Z"/></g></g></svg>