<svg xmlns="http://www.w3.org/2000/svg" viewBox="0 0 221.9 30.63"><defs><style>.cls-1{fill:#fff3ec;}</style></defs><g id="Layer_2" data-name="Layer 2"><g id="Layer_1-2" data-name="Layer 1"><path class="cls-1" d="M0,23.64l2.71-1.5V2.43L0,.94V.66H9V.94L6.27,2.43V23.14H14.6l3.78-5.88h.27V23.9H0Z"/><path class="cls-1" d="M18.92,23.64l2.43-1.29V8.9L18.92,7.6V7.34h5.75v15l2.38,1.29v.26H18.92ZM25.2,2.33,22.77,4.68,20.42,2.33,22.77,0Z"/><path class="cls-1" d="M25.49,7.34h7.73V7.6L31,8.9l5.22,12.41L40.88,10,38.27,7.6V7.34h5.64V7.6l-2.33,2.56L35.84,23.9h-2L27.38,9,25.49,7.57Z"/><path class="cls-1" d="M42.7,23.64l2.43-1.29V8.9L42.7,7.6V7.34h5.76v15l2.38,1.29v.26H42.7ZM49,2.33,46.56,4.68,44.21,2.33,46.56,0Z"/><path class="cls-1" d="M70.47,23.63v.26H62.34v-.26l2.43-1.3V12.46c0-2.7-1.14-4.05-3.42-4a6,6,0,0,0-4.75,2.38V22.33L59,23.63v.26H50.85v-.26l2.43-1.3V8.88l-2.43-1.3V7.32H56.1L56.57,10a7.9,7.9,0,0,1,6.24-3.06,5.21,5.21,0,0,1,3.92,1.41,5.47,5.47,0,0,1,1.36,3.95V22.35Z"/><path class="cls-1" d="M81.48,21.1q6,0,6,4.11a4.36,4.36,0,0,1-2.69,4,14.85,14.85,0,0,1-6.9,1.41q-8.17,0-8.17-3.89a2.78,2.78,0,0,1,.93-2.08,5.61,5.61,0,0,1,2.44-1.28A2.46,2.46,0,0,1,71.3,21q0-2.09,3.11-3.42a5.61,5.61,0,0,1-2.26-2,5,5,0,0,1-.82-2.8,5.17,5.17,0,0,1,2-4.23,7.88,7.88,0,0,1,5.1-1.6,8.55,8.55,0,0,1,3.62.74L87,5.12h.27v3H83a5,5,0,0,1,2.52,4.61,4.94,4.94,0,0,1-2,4.09,8.08,8.08,0,0,1-5.09,1.55,8.75,8.75,0,0,1-3.38-.6,2,2,0,0,0-1.3,1.8c0,1,.73,1.46,2.2,1.46l5.55,0Zm-3,8.86A9.24,9.24,0,0,0,83,29a2.94,2.94,0,0,0,1.7-2.62q0-2.53-3.65-2.53l-5.57,0A11.13,11.13,0,0,1,74,23.68a2.84,2.84,0,0,0-1.75,2.67c0,2.41,2.08,3.61,6.21,3.61Zm0-22.31a3.23,3.23,0,0,0-2.67,1.28,6.11,6.11,0,0,0-1,3.84,5.72,5.72,0,0,0,1,3.74,3.32,3.32,0,0,0,2.67,1.22,3.29,3.29,0,0,0,2.66-1.22,5.85,5.85,0,0,0,1-3.74,6.17,6.17,0,0,0-1-3.87,3.22,3.22,0,0,0-2.64-1.25Z"/><path class="cls-1" d="M94.34,23.64l2.71-1.5V2.43L94.34.94V.66h9V.94l-2.75,1.49V23.14h8.32l3.78-5.88H113V23.9H94.34Z"/><path class="cls-1" d="M113.26,23.64l2.43-1.29V8.9l-2.43-1.3V7.34H119v15l2.39,1.29v.26h-8.14Zm6.29-21.31-2.43,2.35-2.35-2.35L117.12,0Z"/><path class="cls-1" d="M151,23.61v.26h-8.13v-.26l2.39-1.3v-10q0-3.91-3.45-3.89a5.1,5.1,0,0,0-4.08,2.38,5.81,5.81,0,0,1,.13,1.26V22.33l2.4,1.3v.26h-8.14v-.26l2.41-1.3V12.4q0-4-3.33-4a4.94,4.94,0,0,0-4.05,2.38V22.35l2.38,1.29v.26H121.4v-.26l2.43-1.29V8.9L121.4,7.6V7.34h5.25l.47,2.66a6.64,6.64,0,0,1,5.48-3.06,5.5,5.5,0,0,1,3.19.87,4.64,4.64,0,0,1,1.8,2.35,6.63,6.63,0,0,1,5.71-3.22,5.44,5.44,0,0,1,3.95,1.31A4.93,4.93,0,0,1,148.61,12V22.35Z"/><path class="cls-1" d="M150.88,23.64l2.43-1.29V8.9l-2.43-1.3V7.34h5.76v15L159,23.64v.26h-8.14Zm6.29-21.31-2.43,2.35-2.35-2.35L154.74,0Z"/><path class="cls-1" d="M164.33,8.07V20.22a2.59,2.59,0,0,0,.59,1.82,2.1,2.1,0,0,0,1.62.65A3,3,0,0,0,169.2,21l.41.17a5.55,5.55,0,0,1-1.69,2.23,4.33,4.33,0,0,1-2.82.89,4,4,0,0,1-3-1.07A3.91,3.91,0,0,1,161,20.32V8h-2.66v-.7H161l3.06-4.59h.26V7.34h5.51V8Z"/><path class="cls-1" d="M168.79,23.64l2.43-1.29V2.3L168.79.94V.66h5.74V22.35l2.39,1.29v.26h-8.13Z"/><path class="cls-1" d="M180.69,15.38a7.49,7.49,0,0,0,1.69,5.1,5.42,5.42,0,0,0,4.23,1.85,6.24,6.24,0,0,0,5.83-3.52l.5.2a8,8,0,0,1-2.74,3.84,7.73,7.73,0,0,1-4.81,1.46,8,8,0,0,1-5.9-2.34,8.17,8.17,0,0,1-2.35-6.09,9.06,9.06,0,0,1,2.32-6.51,7.93,7.93,0,0,1,6-2.43A7.37,7.37,0,0,1,191,9a7.53,7.53,0,0,1,2,5.55v.85H180.69Zm8.9-.67v-.27c0-4.54-1.38-6.81-4.12-6.81a4,4,0,0,0-3.35,1.88,9.36,9.36,0,0,0-1.43,5.2Z"/><path class="cls-1" d="M202.93,8a11.16,11.16,0,0,0-2.35-.34,4.78,4.78,0,0,0-2.72.73,2.17,2.17,0,0,0-1.09,1.88,2.26,2.26,0,0,0,.62,1.68,5.9,5.9,0,0,0,2.23,1.17l3.15,1.17a9.73,9.73,0,0,1,3.35,1.78,3.55,3.55,0,0,1,1.15,2.79,4.59,4.59,0,0,1-2,4,8.45,8.45,0,0,1-5,1.44,21.18,21.18,0,0,1-6.51-1.26l1.16-4.91h.26l2.09,4.94a7.86,7.86,0,0,0,2.77.54,5.52,5.52,0,0,0,3.28-.88,2.72,2.72,0,0,0,1.21-2.32,2.56,2.56,0,0,0-.73-1.94,6.83,6.83,0,0,0-2.36-1.31l-3.08-1.12a7.81,7.81,0,0,1-3.13-1.9,3.87,3.87,0,0,1-1-2.67A3.88,3.88,0,0,1,196,8.15a7.58,7.58,0,0,1,4.46-1.21A21.13,21.13,0,0,1,206.74,8l-1.39,4.4h-.28Z"/><path class="cls-1" d="M217.55,8a11.17,11.17,0,0,0-2.34-.34,4.79,4.79,0,0,0-2.73.73,2.16,2.16,0,0,0-1.08,1.88A2.29,2.29,0,0,0,212,12a6,6,0,0,0,2.24,1.17l3.14,1.17a9.69,9.69,0,0,1,3.36,1.78,3.55,3.55,0,0,1,1.15,2.79,4.59,4.59,0,0,1-2,4,8.48,8.48,0,0,1-5,1.44,21.23,21.23,0,0,1-6.51-1.26l1.17-4.91h.26l2.09,4.94a7.82,7.82,0,0,0,2.77.54,5.49,5.49,0,0,0,3.27-.88,2.73,2.73,0,0,0,1.22-2.32,2.6,2.6,0,0,0-.73-1.94A6.89,6.89,0,0,0,216,17.18L213,16.06a7.81,7.81,0,0,1-3.13-1.9,3.92,3.92,0,0,1-1-2.67,3.89,3.89,0,0,1,1.74-3.34A7.57,7.57,0,0,1,215,6.94,21.08,21.08,0,0,1,221.36,8L220,12.41h-.28Z"/></g></g></svg>