<svg xmlns="http://www.w3.org/2000/svg" viewBox="0 0 340 340"><defs><style>.cls-1{fill:#e8e8ed;}.cls-2{fill:#666668;}</style></defs><g id="Layer_2" data-name="Layer 2"><g id="Layer_1-2" data-name="Layer 1"><circle class="cls-1" cx="170" cy="170" r="170"/><path class="cls-2" d="M182.21,79.92v78.25H257a11.45,11.45,0,0,1,11.45,11.45h0A11.45,11.45,0,0,1,257,181.07H182.21v79a11.44,11.44,0,0,1-11.45,11.45h-1.52a11.44,11.44,0,0,1-11.45-11.45v-79H83a11.45,11.45,0,0,1-11.45-11.45h0A11.45,11.45,0,0,1,83,158.17h74.82V79.92a11.44,11.44,0,0,1,11.45-11.45h1.52A11.44,11.44,0,0,1,182.21,79.92Z"/></g></g></svg>