<svg xmlns="http://www.w3.org/2000/svg" viewBox="0 0 946.79 355.75"><defs><style>.cls-1{fill:#fff;}.cls-2{fill:#efefef;}.cls-3{opacity:0.81;}</style></defs><g id="Layer_2" data-name="Layer 2"><g id="Layer_1-2" data-name="Layer 1"><path class="cls-1" d="M343.87,343.88h-332v-332h332Zm-218.19-19h9.41v-9.49h-9.35V286.93h9.47v9.41h9.35V287h-9.4V267.9h9.59v9.55h9.44V306h-9.43v28.29H163.7V315.55h19v18.73h9.51V325h9.44v9.26H230v-9.39h-9.42V315.4h9.39V306h-9.39v-19h9.53v9.56h19V306h-9.39v18.93h18.88v9.38h37.83v-9.4H277.45V305.91H287v-9.38h9.44V306H306v9.33h9.49v-18.9h9.46v9.4h9.35v-9.35h-9.4v-9.59h-9.51V258.61h-9.51v9.29h-9.29v-19h9.28c0-3.28,0-6.38,0-9.48h9.6V249h9.47v9.4h9.35V249h-9.4v-9.57h9.4V220.59H315.4V211H306V192.08h9.48v9.48h9.48V211h9.35v-9.36h-9.4c0-3.18,0-6.35,0-9.53h9.38v-19H315.53V154.13h9.27v-9.52H305.89v-9.45h-19v-9.47h9.41v-9.35H287v9.39h-9.56v-19H268v-9.4h-9.35v9.35H268v18.87h-19V87.74l-.05.05h9.38V40.28h-9.25V30.77h9.28v-9.3h-19v9.29H220.52V21.49h-9.35V40.37H239.4v9.51H230V68.81H201.57V59.33h-19v-19h9.59v9.42h9.3V21.49h-9.43v9.4h-9.41v9.47h-9.57v9.48h-9.45V21.49h-9.53V40.38H125.61V59.21h-9.45V49.78h-9.45V40.46H97.33V68.82h9.43V78.3h-9.4v9.44h9.4c0,3.18,0,6.35,0,9.53H97.27v9.49H87.74v-9.4H78.39v9.35h9.4v9.53h-19v-9.49H59.28v-9.4H21.48V116.2H40.36v19.07H21.45V154.2h9.42v9.47H21.49v19H49.71v19h-9.4v-9.41h-9.5v9.35H21.49V230h9.36c0-2.52,0-5,0-7.4q0-10.51-.08-21l9.6,0q0,16.65,0,33.31c0,1.58,0,3.15.08,4.73H30.87V249h-9.4v9.34h9.36V249h9.54v-9.42h9.54V249h18.9v9.49H97.26v9.4h18.83v-9.36H97.22V249H68.76v-9.53H97.32V220.65h9.45v28.24h9.5V239.5h38V230h9.31v-9.51h-9.43V211H144.8v-19h9.25v-9.41H135.17v-9.53h19v-9.49h9.53v9.59H173v9.45h-9.27v28.47h18.88v9.3h9.51V201.55h9.3V182.7h-9.39v9.38H182.6l0,0V154.28h18.81v9.44h-9.23v9.39H211.1v28.36h9.55V182.71h18.92v9.46h28.51V211h9.47l-.06,9.6H268.1v18.82h9.35V220.54h9.41V211h-9.35v-9.31h19V211H306l0,9.59h-9.4V230H306c0,3.16,0,6.32-.07,9.48h-19v9.43H258.48V230H249V211.06h9.4v-9.35H249v9.39h-9.48V249h-9.49v9.49h-9.49V268H211V249.13H154.19V268l-9.48-.06V249.11h-9.57v9.48h-9.5v18.93h-9.51V287h-9.45v9.51H97.34v37.74h9.48V315.42h2.46l16.5-.09c0,3.2,0,6.39,0,9.59h-9.4v9.35h9.35ZM21.47,21.43v66.2h66.2V21.43ZM268.06,87.65h66.2V21.45h-66.2ZM21.48,268.06v66.2H87.67v-66.2ZM325,135.12v-9.45h9.31V97.34h-9.4v9.26h-9.51V97.36H287v9.39H306v19h9.45v9.38Zm-123.24,76v19h9.43v9.28h18.78V211.16h-9.39v9.28H211v-9.29ZM116.13,30.78V21.46H97.36v9.32ZM220.46,59.27V49.94h-9.25v9.33ZM182.68,239.4H192v-9.25h-9.34ZM325,324.81h9.3v-9.27H325Zm-9.64.19H306v9.27h9.3Z"/><path d="M277.55,211h-9.47V192.17H239.57v-9.46H220.65v18.76H211.1V173.11l0,0h9.53v-9.53l0,0h9.58v-9.42h9.44v9.46h9.5V173h9.5v-18.9h37.9V173h9.36V154.18h-9.4V144.6h-19v-9.3h-9.51v9.29H230.15v-9.47h9.29v-9.45H230V116.2h9.4V97.27H230V78.38H220.5v9.41h-9.45V78.3h-9.48c0-3.18,0-6.36,0-9.53l0,0H230V49.88h9.4V40.37H211.17V21.49h9.35v9.27h18.93V21.47h19v9.3h-9.28v9.51h9.25V87.79H249V59.41h-9.35V87.74h9.4v37.84h19V106.71l0,.05h9.45v19H287l-.05,0v9.47h19v9.45H324.8v9.52h-9.27v18.93h18.73v19h-9.38l.05,0v-9.4h-9.54v9.4l.05,0H306v19L306,211h-9.52v-9.26h-19V211Zm9.3-28.4v-18.8H268.08v9.4h9.48v9.4Z"/><path d="M324.92,296.42h-9.46v18.9H306V306h-9.5v-9.46H287v9.38h-9.58l.05,0v-9.39h-19V306l0,0H249l0,0V296.5h-19v-9.56l0,0h9.4v-9.53H230l0,.05V268l0,0h9.53v-9.53l0,0h9.39V249h-9.39l.05,0V211.1H249l0,0V230h9.49v18.94h28.44V239.5h19l-.05,0v9.48h-9.28v19h9.29v-9.29h9.51v28.27h9.51v9.59Zm-66.34-9.55h28.27V258.62H258.58Z"/><path d="M135.17,182.64h18.88v9.41H144.8v19h9.31v9.45h9.43V230h-9.31v9.5h-38v9.39h-9.5V220.65H97.32v18.86H68.77l0,0V230H87.67v-9.45H68.81V192.08l0,0h19V182.6h19v9.58H97.18v9.45H78.41V211h56.67v-9.48H116.31v-9.44h18.9V182.6Zm0,38H116.35V230h18.77Z"/><path d="M220.54,315.4v9.47H230v9.39H201.63V325h-9.44v9.28h-9.51V315.55h-19v18.74H144.76V306h9.43V277.45l-.05.05h9.58v18.86h9.43v-9.28h9.56v18.76h9.44v-9.37h9.46l0-.05v19h19Z"/><path d="M21.47,21.43h66.2v66.2H21.47Zm9.45,56.73H78.15V30.93H30.92Z"/><path d="M268.06,87.65V21.45h66.2v66.2Zm56.73-9.45V31H277.56V78.2Z"/><path d="M21.48,268.06H87.67v66.2H21.48Zm56.68,56.77V277.61H30.93v47.22Z"/><path d="M182.6,192.08h9.47V182.7h9.39v18.85h-9.3v18.88h-9.51v-9.3H163.77V182.66H173v-9.45h-9.37v-9.59l0,0h9.49v-28.5h9.57v9.48H211.1v9.57h9.44v9.45l0,0h-9.53v9.53l0,0H192.22v-9.39h9.23v-9.44H182.64v37.84h-9.4v9.35h9.36Z"/><path d="M68.77,116.24h19v-9.53l-.05.05h9.53l0-.05v9.49h9.54v19h9.48v9.46h-9.39v9.44h9.39v9.53h-19v9.49H87.74v-9.4H78.3v9.4l-19,0,0,0v-9.56h9.34V144.65H59.28l0,0v-9.4H87.79v9.39H78.38V154h9.36v-9.39h9.39v-19H68.81V116.2Z"/><path d="M230.07,286.94h-9.53v19l0,0H211v-9.49h-9.45l0,.05V268.12h-9.56v9.25H173.11V268h9.4v-9.35h-9.36V268l-19,0,.05,0V249.13H211V268h9.57l0,0v9.53h9.53l0-.05V287Z"/><path d="M135.21,286.93h-9.47c0,9.57,0,19,0,28.45l0-.05-16.5.09h-2.46v18.86H97.34V296.54h9.34V287h9.45v-9.51h9.51V258.59h9.5v-9.48h9.57V268l0-.05h-9.59V287Z"/><path d="M40.31,201.62h9.4v-19H21.49v-19h9.38l-.05,0v9.53H59.33l0,0v9.57h9.49v9.45l0,0H59.24v19.08H49.9v18.91h9.45v9.48h9.46l0,0q0,4.76,0,9.53l0,0H49.91v-9.42H40.37l.05.05c0-1.58-.08-3.15-.08-4.73q0-16.65,0-33.31Z"/><path d="M106.76,78.3V68.82H97.33V40.46h9.38v9.32h9.45v9.43h9.45V40.38h28.48V21.49h9.53V49.84l0,0H135.21v19h-19V78.3l-9.53,0Z"/><path d="M163.62,49.84h9.45V40.36h9.57l0,0v19l0,0h-9.53v9.53l0,0h-9.56v37.85H144.65V87.74h9.4V68.81h-9.4V59.25h19V49.8Z"/><path d="M30.87,163.67V154.2H21.45V135.27H40.36V116.2l0,0h19l0,0v9.56H49.93V144.7h9.4l0,0v9.56h-19v9.41H30.82Z"/><path d="M325,135.12h-9.51v-9.38H306v-19H287V97.36h28.31v9.24h9.51V97.34h9.4v28.33H325Z"/><path d="M201.71,211.15H211v9.29h9.5v-9.28h9.39v28.26H211.14v-9.28h-9.43Z"/><path d="M277.45,305.91v18.95h18.91v9.4H258.53v-9.38l0,.05h9.39V315.4h-9.39l0,0v-9.53l0,0h19Z"/><path d="M40.36,116.2H21.48V97.35h37.8v9.4l0,0h-19v9.53Z"/><path d="M315.4,220.59h18.87v18.88h-9.4V249l.05,0h-9.47v-9.53h-9.61l.05,0c0-3.16.05-6.32.07-9.48l0,0h9.53v-9.53Z"/><path d="M182.59,59.33h19v9.48l0,0h-9.48V78.3h-9.49v9.49h-9.49v-19l0,0h9.53V59.28Z"/><path d="M182.64,40.36V30.89h9.41v-9.4h9.43V49.73h-9.3V40.31h-9.59Z"/><path d="M68.76,249H97.22v9.48l0,0H68.81V249Z"/><path d="M154.14,163.62v9.49h-19l0,0,0-19h9.53v9.53h9.48Z"/><path d="M30.76,201.51q0,10.53.08,21.05c0,2.44,0,4.88,0,7.4H21.49v-28.4h9.32Z"/><path d="M258.53,324.88H239.65V306H249l0,0v9.53h9.54l0,0v9.53Z"/><path d="M116.13,30.78H97.36V21.46h18.77Z"/><path d="M97.22,258.52h18.87v9.36H97.26v-9.4Z"/><path d="M277.45,220.54v18.87H268.1V220.59h9.39Z"/><path d="M220.46,59.27h-9.25V49.94h9.25Z"/><path d="M135.17,173.11v9.53l0,0h-9.53v-9.49l9.53,0Z"/><path d="M287,125.73v-9.39h9.36v9.35h-9.41Z"/><path d="M40.36,201.57l-9.6-.06,0,.05v-9.35h9.5v9.41Z"/><path d="M324.92,201.56h-9.48v-9.48l-.05,0h9.54l-.05,0c0,3.18,0,6.35,0,9.53Z"/><path d="M249,211.1v-9.39h9.35v9.35H249Z"/><path d="M324.87,201.61h9.4V211h-9.35v-9.41Z"/><path d="M59.28,106.75h9.49v9.49l0,0H59.28l0,0v-9.53Z"/><path d="M277.49,220.59l.06-9.6,0,0h9.35v9.51h-9.41Z"/><path d="M306,220.58c0-3.2,0-6.39.05-9.59l-.05,0h9.44v9.56l0-.05h-9.53Z"/><path d="M163.67,163.62h-9.53l0,0c0-3.18,0-6.36,0-9.53h9.48v9.53Z"/><path d="M306,230h-9.4v-9.44H306l0,0v9.53Z"/><path d="M268,106.71h-9.4V97.36H268v9.4Z"/><path d="M182.68,239.4v-9.25H192v9.25Z"/><path d="M30.87,249v-9.43h9.55l-.05-.05V249H30.83Z"/><path d="M30.83,249v9.39H21.47V249h9.4Z"/><path d="M97.27,106.76V97.27h9.48l0,0c0,3.18,0,6.36.05,9.53l-9.54,0Z"/><path d="M87.79,106.71h-9.4V97.36h9.35v9.4Z"/><path d="M230.07,258.53V249h9.49l-.05,0v9.53l0,0H230Z"/><path d="M324.87,249h9.4v9.35h-9.35V249Z"/><path d="M220.58,268v-9.48h9.49l0,0V268l0,0h-9.53Z"/><path d="M154.19,277.45h-9.44V267.9l0,.05,9.48.06-.05,0v9.53Z"/><path d="M106.75,97.27c0-3.18,0-6.35,0-9.53l-.05,0,9.53,0v9.48h-9.53Z"/><path d="M135.16,287h9.4v9.36h-9.35v-9.41Z"/><path d="M324.87,296.47h9.4v9.35h-9.35v-9.4Z"/><path d="M220.54,306h9.39v9.45h-9.39l0,0v-9.53Z"/><path d="M106.76,87.74h-9.4V78.3h9.4l-.05,0v9.53Z"/><path d="M125.73,324.92c0-3.2,0-6.39,0-9.59l0,.05h9.36v9.49h-9.41Z"/><path d="M325,324.81v-9.27h9.3v9.27Z"/><path d="M125.68,324.87v9.4h-9.35v-9.35h9.4Z"/><path d="M315.34,325v9.27H306V325Z"/><path class="cls-1" d="M220.54,163.67v-9.45H211.1v-9.57l0,0h9.53V116.2l0,0h9.53l0,0v9.47h9.42v9.45h-9.29v9.47h37.76V135.3h9.51v9.3h19v9.58l0-.05h-37.9V173h-9.5v-9.32h-9.5v-9.46h-9.44v9.42Z"/><path class="cls-1" d="M211.05,87.79h9.45V78.38H230V97.27l0,0h-9.53v19l0,0-9.53,0v-9.56h-9.49V97.22h9.54V87.74Z"/><path class="cls-1" d="M249.05,87.74h-9.4V59.41H249V87.79Z"/><path class="cls-1" d="M286.85,182.58h-9.29v-9.4h-9.48v-9.4h18.77Z"/><path class="cls-1" d="M230,97.27h9.4V116.2H230l0,0v-19Z"/><path class="cls-1" d="M296.42,154.18h9.4V173h-9.36V154.13Z"/><path class="cls-1" d="M324.93,192.13h-9.54v-9.4h9.54Z"/><path class="cls-1" d="M201.57,78.3h9.48v9.49l0-.05-9.53.05c0-3.18,0-6.36,0-9.54Z"/><path class="cls-1" d="M211.05,173.15v-9.53h9.53v9.53Z"/><path class="cls-1" d="M192.13,78.3V68.77h9.48c0,3.17,0,6.35,0,9.53l0,0h-9.53Z"/><path class="cls-1" d="M258.58,286.87V258.62h28.27v28.25Zm9.49-9.51h9.28v-9.29h-9.28Z"/><path class="cls-1" d="M277.5,306h-19v-9.39h19Z"/><path class="cls-1" d="M239.51,258.53V249h9.39v9.53Z"/><path class="cls-1" d="M230,268v-9.53h9.53V268Z"/><path class="cls-1" d="M220.54,268h9.53v9.53h-9.53Z"/><path class="cls-1" d="M230,287v-9.53h9.4V287Z"/><path class="cls-1" d="M258.53,315.44H249v-9.53h9.54Z"/><path class="cls-1" d="M125.68,173.11v9.49h9.53v9.47h-18.9v9.44h18.77V211H78.41v-9.36H97.18v-9.45h9.58V182.6l-.05,0h9.53v-9.53l0,0h9.54Z"/><path class="cls-1" d="M68.81,239.55H59.35v-9.48H49.9V211.16h9.34V192.08h9.57v28.44H87.67V230H68.81Z"/><path class="cls-1" d="M68.77,192.13v-9.45H59.28v-9.57l19,0,0,0v9.53h9.53l0,0v9.53Z"/><path class="cls-1" d="M87.74,173.16h9.45v-9.49h19l0,0v9.53l0,0h-9.53v9.53l.05,0h-19l0,0v-9.53Z"/><path class="cls-1" d="M135.12,220.68V230H116.35v-9.28Z"/><path class="cls-1" d="M154.14,277.5V268l19,0,0,0v9.4h18.94v-9.25h9.56v28.35h-9.46v9.37h-9.44V287.08h-9.56v9.28h-9.43V277.5Z"/><path class="cls-1" d="M220.58,305.91v9.53h-19v-19H211v9.49Z"/><path class="cls-1" d="M30.92,78.16V30.93H78.15V78.16Zm37.74-9.43V40.42H40.43V68.73Z"/><path class="cls-1" d="M324.79,78.2H277.56V31h47.23ZM287,68.67h28.26V40.42H287Z"/><path class="cls-1" d="M78.16,324.83H30.93V277.61H78.16ZM40.45,287v28.26H68.7V287Z"/><path class="cls-1" d="M163.62,163.67v-9.53h-9.48l0,0v-9.39h-9.53v9.39l0,0h-9.53l0,0v-19h37.94l0,0v28.5Z"/><path class="cls-1" d="M211.1,144.65H182.68v-9.48h-9.57l0,0v-9.53l0,0,19,0v9.57h18.92v9.45Z"/><path class="cls-1" d="M182.6,192.08v9.39h-9.36v-9.35h9.4Z"/><path class="cls-1" d="M106.71,97.22h9.53V87.74l0,0h9.54l0,0v9.39h9.53V87.74l0,0h9.53l0,0v18.88h18.94V68.77h9.56v19h9.49l0-.05v9.48h9.54v19h-19v9.49l0,0h-9.57V116.3h-9.44v9.44H125.65v18.91h-9.46l0,0v-9.46h-9.48v-19l-.05,0h9.39v-9.53h-9.39l.05,0C106.74,103.58,106.73,100.4,106.71,97.22Z"/><path class="cls-1" d="M59.28,116.2h9.53v9.44H97.13v19H87.74l.05,0V135.3H59.33v9.4h-9.4V125.76h9.35Z"/><path class="cls-1" d="M30.82,163.62h9.45v-9.41h19v-9.56h9.39v18.94H59.33v9.56H30.82Z"/><path class="cls-1" d="M135.21,173.15l-9.53,0,0,0v-9.53h-9.54l0,0v-9.53l0,0h19l0,0Z"/><path class="cls-1" d="M116.24,154.14h-9.39V144.7h9.39l0,0v9.53Z"/><path class="cls-1" d="M87.74,144.65V154H78.38v-9.35h9.41Z"/><path class="cls-1" d="M97.22,106.71l9.54,0-.05,0v9.53l.05,0H97.22Z"/><path class="cls-1" d="M78.3,173.16v-9.4h9.44v9.4l0,0H78.25Z"/><path class="cls-1" d="M173.15,268v-9.4h9.36V268h-9.4Z"/><path class="cls-1" d="M163.67,49.8v9.45h-19v9.56l0,0h-9.53l0,0v-19Z"/><path class="cls-1" d="M116.24,78.3V68.81h19l0,0v19l0,0h-9.53l0,0V78.25h-9.54Z"/><path class="cls-1" d="M106.71,87.78V78.25l9.53,0,0,0v9.53l0,0Z"/><path class="cls-1" d="M144.65,68.81h9.4V87.74h-9.4l0,0v-19Z"/><path class="cls-1" d="M182.64,59.28v9.53h-9.53V59.28Z"/><path class="cls-1" d="M59.33,106.71v9.53h-19v-9.53Z"/><path class="cls-1" d="M258.48,324.93V315.4h9.39v9.53Z"/><path class="cls-1" d="M305.91,230.07v-9.53h9.53v9.53Z"/><path class="cls-1" d="M182.64,87.79V78.3h9.49l0,0c0,3.18,0,6.36,0,9.53l-9.54,0Z"/><path class="cls-1" d="M154.14,154.14c0,3.17,0,6.35,0,9.53H144.7v-9.53l0,0h9.53Z"/><path d="M211.05,144.7v-9.45H192.13v-9.57l0,0h19V116.2l0,0,9.53,0v28.5Z"/><path d="M230.07,97.22v19h-9.53v-19Z"/><path d="M192.13,116.24v-19l0,0h9.53l-.05,0v9.46h9.49v9.56l0,0h-19Z"/><path d="M201.57,87.79l9.53-.05v9.48h-9.54l.05,0V87.74Z"/><path d="M192.13,87.78c0-3.17,0-6.35,0-9.53h9.53c0,3.18,0,6.36,0,9.54l0-.05h-9.53Z"/><path d="M268.07,277.36v-9.29h9.28v9.29Z"/><path d="M106.71,182.64v-9.53h9.53v9.53Z"/><path d="M116.19,163.62h9.54v9.53h-9.54Z"/><path d="M78.25,173.11h9.53v9.53H78.25Z"/><path d="M68.66,68.73H40.43V40.42H68.66Z"/><path d="M287,68.67V40.42h28.26V68.67Z"/><path d="M40.45,287H68.7v28.26H40.45Z"/><path d="M116.19,154.18v-9.53h9.46V125.74h28.49V116.3h9.44v9.38h9.57v9.53H135.21v19Z"/><path d="M154.18,154.18h-9.53v-9.39h9.53Z"/><path d="M173.11,125.73v-9.49h19l0,0v9.53l0,0Z"/><ellipse cx="139.93" cy="78.27" rx="6.74" ry="13.45"/><path d="M106.71,116.24v-9.53h9.39v9.53Z"/><path d="M182.59,87.74l9.54,0,0,0v9.53l0,0h-9.54Z"/><path d="M125.68,87.74h9.53v9.39h-9.53Z"/><path d="M116.19,87.78V78.25h9.54v9.53Z"/><path class="cls-1" d="M192.08,125.73V116.2h19v9.53Z"/><circle class="cls-1" cx="196.85" cy="92.5" r="6.74"/><path class="cls-1" d="M355.75,355.75H0V0H355.75ZM.75,355H355V.75H.75Z"/><path class="cls-2" d="M439.19,115.28h82.74a30.48,30.48,0,0,1,8.54,1.13,27.5,27.5,0,0,1,7,3.08,23.91,23.91,0,0,1,5.4,4.64,27.25,27.25,0,0,1,3.82,5.81,29.58,29.58,0,0,1,2.29,6.57,30.37,30.37,0,0,1,.73,6.9,32.62,32.62,0,0,1-.76,7,29.38,29.38,0,0,1-2.29,6.61,26.14,26.14,0,0,1-3.83,5.78,23.86,23.86,0,0,1-5.38,4.59,26.45,26.45,0,0,1-6.94,3,31.67,31.67,0,0,1-8.54,1.09h-.36l29.82,36.52h-24l-29.83-36.52h-49.6v36.52H428.58l0-82.15a11.81,11.81,0,0,1,.76-4.34,9.47,9.47,0,0,1,5.54-5.54A12,12,0,0,1,439.19,115.28Zm82.38,38.54a7.82,7.82,0,0,0,3.78-.89,8.43,8.43,0,0,0,2.71-2.36,10.16,10.16,0,0,0,1.64-3.33,13.76,13.76,0,0,0,.57-3.83,13.34,13.34,0,0,0-.52-3.82,10.29,10.29,0,0,0-1.6-3.33,8.38,8.38,0,0,0-2.72-2.36,8,8,0,0,0-3.86-.89H447.94v20.81Z"/><path class="cls-2" d="M559.05,197.43V125.92a11.81,11.81,0,0,1,.76-4.34,9.49,9.49,0,0,1,5.53-5.54,12.05,12.05,0,0,1,4.34-.76h108.1V133H578.43V151.8h87.29v17.73H578.43v20.81h99.35v17.73H569.68a11.84,11.84,0,0,1-4.34-.77,9.51,9.51,0,0,1-5.53-5.53A11.81,11.81,0,0,1,559.05,197.43Z"/><path class="cls-2" d="M699,115.28h82.75a30.41,30.41,0,0,1,8.53,1.13,27.5,27.5,0,0,1,7,3.08,23.91,23.91,0,0,1,5.4,4.64,27.3,27.3,0,0,1,3.83,5.81,30.45,30.45,0,0,1,3,13.47,32.62,32.62,0,0,1-.76,7,29.38,29.38,0,0,1-2.29,6.61,26.1,26.1,0,0,1-3.82,5.78,23.91,23.91,0,0,1-5.39,4.59,26.31,26.31,0,0,1-6.94,3,31.6,31.6,0,0,1-8.53,1.09h-.37l29.83,36.52h-24l-29.82-36.52H707.77v36.52H688.42l0-82.15a11.81,11.81,0,0,1,.77-4.34,9.5,9.5,0,0,1,2.17-3.37,9.69,9.69,0,0,1,3.36-2.17A12,12,0,0,1,699,115.28Zm82.38,38.54a7.76,7.76,0,0,0,3.78-.89,8.47,8.47,0,0,0,2.72-2.36,10.36,10.36,0,0,0,1.64-3.33,14.13,14.13,0,0,0,.56-3.83,13.69,13.69,0,0,0-.51-3.82,10.31,10.31,0,0,0-1.61-3.33,8.28,8.28,0,0,0-2.72-2.36,8,8,0,0,0-3.86-.89H707.77v20.81Z"/><path class="cls-2" d="M813.64,208.07l57.76-86.82c3-4.51,5.92-6.76,8.82-6.76s5.83,2.25,8.81,6.76l57.76,86.82H923.2l-43-65.09-43,65.09Z"/><g class="cls-3"><path class="cls-2" d="M440.1,250.58a14.83,14.83,0,0,0,3.75-.82,2.83,2.83,0,0,0,2-2.66,3.17,3.17,0,0,0-1.55-3,10,10,0,0,0-4.55-.83c-2.25,0-3.83.54-4.77,1.64a6.83,6.83,0,0,0-1.33,3.29h-9a13.75,13.75,0,0,1,2.64-7.73q3.74-4.72,12.81-4.73a22.92,22.92,0,0,1,10.5,2.33q4.59,2.34,4.59,8.81v16.44c0,1.14,0,2.52.07,4.14a5.07,5.07,0,0,0,.56,2.5,3.31,3.31,0,0,0,1.38,1.09v1.38H447a10,10,0,0,1-.6-2c-.11-.63-.19-1.36-.26-2.17a19.19,19.19,0,0,1-4.5,3.58,13.51,13.51,0,0,1-6.88,1.75,11.88,11.88,0,0,1-8.08-2.78q-3.19-2.78-3.19-7.88,0-6.6,5.13-9.56a22.84,22.84,0,0,1,8.28-2.3Zm5.73,4.37a9.9,9.9,0,0,1-1.81.91,15.61,15.61,0,0,1-2.52.64l-2.13.39a13.81,13.81,0,0,0-4.31,1.29,4.28,4.28,0,0,0-2.21,4,4.16,4.16,0,0,0,1.35,3.47,5.1,5.1,0,0,0,3.29,1.07,9.82,9.82,0,0,0,5.66-1.77c1.72-1.19,2.62-3.35,2.68-6.48Z"/><path class="cls-2" d="M488.45,240.39q4.38,4.63,4.38,13.61,0,9.47-4.28,14.43a13.93,13.93,0,0,1-11,5,11.55,11.55,0,0,1-7.15-2.14,13.93,13.93,0,0,1-3-3.45v18.67h-9.27V236.54h9v5.3a15.33,15.33,0,0,1,3.24-3.69,12,12,0,0,1,7.48-2.4A14.19,14.19,0,0,1,488.45,240.39Zm-7.2,6.74q-1.9-3.19-6.19-3.19a7,7,0,0,0-7.07,4.83,18,18,0,0,0-1,6.51q0,6.25,3.35,8.78a7.67,7.67,0,0,0,4.72,1.48,6.88,6.88,0,0,0,6-3,14.06,14.06,0,0,0,2.07-8.06A13.91,13.91,0,0,0,481.25,247.13Z"/><path class="cls-2" d="M524.53,240.39q4.38,4.63,4.38,13.61,0,9.47-4.28,14.43a13.93,13.93,0,0,1-11,5,11.55,11.55,0,0,1-7.15-2.14,13.93,13.93,0,0,1-3-3.45v18.67h-9.27V236.54h9v5.3a15.33,15.33,0,0,1,3.24-3.69,12,12,0,0,1,7.48-2.4A14.19,14.19,0,0,1,524.53,240.39Zm-7.19,6.74a6.67,6.67,0,0,0-6.2-3.19,7,7,0,0,0-7.07,4.83,18,18,0,0,0-1,6.51q0,6.25,3.35,8.78a7.67,7.67,0,0,0,4.72,1.48,6.88,6.88,0,0,0,6-3,15.84,15.84,0,0,0,.17-15.39Z"/><path class="cls-2" d="M550.38,235.7l.8.05v9.6c-.59-.06-1.11-.11-1.57-.13l-1.12,0q-5.65,0-7.6,3.68a14.39,14.39,0,0,0-1.08,6.38v17.13h-9.44V236.54h8.94v6.25a19.79,19.79,0,0,1,3.79-4.9,10.26,10.26,0,0,1,6.83-2.2Z"/><path class="cls-2" d="M581.51,268q-4.53,5.6-13.78,5.6T554,268a22.24,22.24,0,0,1,0-26.93q4.53-5.67,13.77-5.68t13.78,5.68a22.24,22.24,0,0,1,0,26.93Zm-7.5-5.18q2.21-2.93,2.21-8.31T574,246.22a8.32,8.32,0,0,0-12.64,0q-2.22,2.91-2.22,8.29t2.22,8.31a8.3,8.3,0,0,0,12.64,0Z"/><path class="cls-2" d="M609.78,236.54h10.06L606.9,272.38H597l-12.85-35.84h10.52L602.16,263Z"/><path class="cls-2" d="M643.46,237.27a14.54,14.54,0,0,1,6.19,5.3A17.51,17.51,0,0,1,652.5,250a44.32,44.32,0,0,1,.31,7.11h-26.1q.22,5.4,3.75,7.56a9.5,9.5,0,0,0,5.17,1.35,7.27,7.27,0,0,0,7.13-4.11h9.56a11.69,11.69,0,0,1-3.47,6.48q-4.82,5.22-13.48,5.23a19.56,19.56,0,0,1-12.63-4.41q-5.46-4.41-5.46-14.35,0-9.32,4.93-14.28a17.3,17.3,0,0,1,12.82-5A20.4,20.4,0,0,1,643.46,237.27Zm-14,8.09a9.74,9.74,0,0,0-2.5,5.55h16.15a7.81,7.81,0,0,0-2.5-5.66,8.21,8.21,0,0,0-5.56-1.94A7.45,7.45,0,0,0,629.44,245.36Z"/><path class="cls-2" d="M671.51,237.12a11.45,11.45,0,0,1,4.11,4V224h9.5v48.4H676v-5a13.18,13.18,0,0,1-4.57,4.64,12.89,12.89,0,0,1-6.38,1.45,13.33,13.33,0,0,1-10.57-5.08q-4.29-5.09-4.29-13,0-9.16,4.23-14.43a13.72,13.72,0,0,1,11.29-5.26A11.51,11.51,0,0,1,671.51,237.12Zm2.3,25.53a13.1,13.1,0,0,0,2.07-7.66q0-6.59-3.32-9.41a7.16,7.16,0,0,0-4.74-1.71,6.58,6.58,0,0,0-6,3.11,16.79,16.79,0,0,0,0,15.65,6.65,6.65,0,0,0,5.94,3A6.93,6.93,0,0,0,673.81,262.65Z"/></g><g class="cls-3"><path class="cls-2" d="M448.16,80.25a5.88,5.88,0,0,1,1,3.51,5.08,5.08,0,0,1-1.06,3.37,5.44,5.44,0,0,1-1.75,1.31,5.17,5.17,0,0,1,2.65,2,6.16,6.16,0,0,1,.89,3.37,6.72,6.72,0,0,1-1,3.66,6.35,6.35,0,0,1-1.62,1.8,6.28,6.28,0,0,1-2.6,1.15,15.63,15.63,0,0,1-3.24.31H431.12V77.81h11.09Q446.41,77.87,448.16,80.25ZM435.7,81.79v5.06h5.58a4.59,4.59,0,0,0,2.42-.57,2.15,2.15,0,0,0,.93-2,2.06,2.06,0,0,0-1.23-2.12,8.59,8.59,0,0,0-2.71-.36Zm0,8.86v6.12h5.57a5.39,5.39,0,0,0,2.32-.41,2.87,2.87,0,0,0,1.51-2.86A2.48,2.48,0,0,0,443.64,91a5.8,5.8,0,0,0-2.29-.39Z"/><path class="cls-2" d="M456.05,100.75h-4.76V77.81h4.76Z"/><path class="cls-2" d="M458.11,100.75V77.81h4.77v8.75h8.92V77.81h4.76v22.94H471.8V90.51h-8.92v10.24Z"/><path class="cls-2" d="M485.34,77.81h5.42l8.12,22.94h-5.2L492.17,96h-8.45l-1.56,4.71h-5ZM485,92.08h5.88l-2.9-9Z"/><path class="cls-2" d="M514.11,78.4a5.67,5.67,0,0,1,2.15,1.6,7,7,0,0,1,1.15,1.93,6.33,6.33,0,0,1,.43,2.42,6.85,6.85,0,0,1-.83,3.21,4.63,4.63,0,0,1-2.72,2.24,4.26,4.26,0,0,1,2.25,1.81,7.56,7.56,0,0,1,.66,3.59v1.54a10.94,10.94,0,0,0,.13,2.13,1.91,1.91,0,0,0,.88,1.31v.57h-5.29c-.14-.5-.25-.91-.31-1.23a10.7,10.7,0,0,1-.2-2l0-2.14a4.36,4.36,0,0,0-.76-2.92,3.87,3.87,0,0,0-2.73-.73H504.2v9h-4.68V77.81h11A10,10,0,0,1,514.11,78.4Zm-9.91,3.39V88h5.16a5.46,5.46,0,0,0,2.31-.38A2.56,2.56,0,0,0,513,85a2.89,2.89,0,0,0-1.32-2.8,4.72,4.72,0,0,0-2.21-.41Z"/></g><g class="cls-3"><path class="cls-2" d="M731.11,239q4.39,4.64,4.39,13.61,0,9.48-4.29,14.44a13.9,13.9,0,0,1-11,5,11.53,11.53,0,0,1-7.15-2.14,13.76,13.76,0,0,1-3-3.45v18.68h-9.27V235.2h9v5.29a14.85,14.85,0,0,1,3.24-3.68,12,12,0,0,1,7.48-2.4A14.16,14.16,0,0,1,731.11,239Zm-7.19,6.74a6.67,6.67,0,0,0-6.19-3.19,7,7,0,0,0-7.08,4.84,18.25,18.25,0,0,0-1,6.51q0,6.24,3.36,8.77a7.64,7.64,0,0,0,4.71,1.48,6.84,6.84,0,0,0,6-3,15.84,15.84,0,0,0,.17-15.39Z"/><path class="cls-2" d="M757,234.36l.81,0V244c-.59-.07-1.12-.11-1.58-.13s-.83,0-1.12,0q-5.66,0-7.59,3.68a14.26,14.26,0,0,0-1.09,6.38V271H737V235.2h8.94v6.24a20.05,20.05,0,0,1,3.78-4.9,10.27,10.27,0,0,1,6.84-2.2Z"/><path class="cls-2" d="M788.1,266.65q-4.54,5.6-13.78,5.6t-13.78-5.6a22.26,22.26,0,0,1,0-26.92q4.55-5.68,13.78-5.69t13.78,5.69a22.26,22.26,0,0,1,0,26.92Zm-7.5-5.18q2.21-2.93,2.2-8.31t-2.2-8.29a8.34,8.34,0,0,0-12.64,0q-2.22,2.91-2.22,8.29t2.22,8.31a8.3,8.3,0,0,0,12.64,0Z"/><path class="cls-2" d="M790.21,277.9l1.12.09h.59a2.92,2.92,0,0,0,2.09-.67,3.62,3.62,0,0,0,.71-2.61V235.36h9.37v39.52q0,5.43-2.14,8c-1.42,1.73-4.22,2.6-8.38,2.6l-1.27,0c-.56,0-1.25-.05-2.09-.07Zm13.88-47h-9.37v-8.65h9.37Z"/><path class="cls-2" d="M831.3,235.92a14.61,14.61,0,0,1,6.19,5.3,17.66,17.66,0,0,1,2.86,7.41,46.89,46.89,0,0,1,.31,7.11h-26.1q.21,5.4,3.74,7.57a9.55,9.55,0,0,0,5.17,1.34,7.9,7.9,0,0,0,5.2-1.64,7.79,7.79,0,0,0,1.93-2.47h9.57a11.65,11.65,0,0,1-3.48,6.48q-4.82,5.24-13.48,5.23a19.51,19.51,0,0,1-12.62-4.41q-5.48-4.41-5.47-14.35,0-9.31,4.94-14.28a17.28,17.28,0,0,1,12.81-5A20.4,20.4,0,0,1,831.3,235.92Zm-14,8.1a9.73,9.73,0,0,0-2.49,5.54h16.14a7.81,7.81,0,0,0-2.5-5.66,8.18,8.18,0,0,0-5.55-1.93A7.43,7.43,0,0,0,817.28,244Z"/><path class="cls-2" d="M861.78,248.05a8.2,8.2,0,0,0-1.35-3.62,5.68,5.68,0,0,0-4.91-2.17c-3.16,0-5.33,1.57-6.49,4.71a19.39,19.39,0,0,0-.92,6.62,17.88,17.88,0,0,0,.92,6.33,6.27,6.27,0,0,0,6.33,4.47q3.28,0,4.68-1.77a8.9,8.9,0,0,0,1.68-4.61h9.56a15.69,15.69,0,0,1-3.09,8.09q-4.41,6.15-13.06,6.15t-12.74-5.13q-4.08-5.13-4.08-13.3,0-9.23,4.51-14.35t12.44-5.13c4.49,0,8.18,1,11,3s4.56,5.57,5.08,10.68Z"/><path class="cls-2" d="M869.06,242.2v-6.68h5v-10h9.27v10h5.82v6.68h-5.82v18.94c0,1.46.19,2.38.56,2.74s1.51.54,3.42.54h.9l.94-.05v7l-4.44.17q-6.65.23-9.07-2.31a6.84,6.84,0,0,1-1.58-5V242.2Z"/></g></g></g></svg>