<svg xmlns="http://www.w3.org/2000/svg" viewBox="0 0 274 179.77"><defs><style>.cls-1{fill:#262424;}.cls-2{fill:#fff;}.cls-3{opacity:0.65;}.cls-4{fill:#efefef;}.cls-5{opacity:0.81;}.cls-6{fill:#0598d8;}</style></defs><g id="Layer_2" data-name="Layer 2"><g id="Layer_1-2" data-name="Layer 1"><rect class="cls-1" x="1" y="1" width="272" height="177.77" rx="10.8"/><path class="cls-2" d="M262.2,179.77H11.8A11.81,11.81,0,0,1,0,168V11.8A11.81,11.81,0,0,1,11.8,0H262.2A11.81,11.81,0,0,1,274,11.8V168A11.81,11.81,0,0,1,262.2,179.77ZM11.8,2A9.8,9.8,0,0,0,2,11.8V168a9.8,9.8,0,0,0,9.8,9.79H262.2A9.8,9.8,0,0,0,272,168V11.8A9.8,9.8,0,0,0,262.2,2Z"/><g class="cls-3"><path class="cls-4" d="M22.74,142.93a2.77,2.77,0,0,0,.42,1.42,2.71,2.71,0,0,0,2.44,1,4.33,4.33,0,0,0,1.43-.23,1.58,1.58,0,0,0,1.24-1.55,1.35,1.35,0,0,0-.52-1.2,5.63,5.63,0,0,0-1.67-.61l-1.39-.31a6.36,6.36,0,0,1-1.93-.68,2.13,2.13,0,0,1-1-1.92,3,3,0,0,1,1-2.28,3.85,3.85,0,0,1,2.71-.89,4.74,4.74,0,0,1,2.75.78,2.83,2.83,0,0,1,1.13,2.5H28a2.17,2.17,0,0,0-2.61-2.07,2.53,2.53,0,0,0-1.77.51,1.64,1.64,0,0,0-.54,1.21,1.17,1.17,0,0,0,.63,1.1,9.07,9.07,0,0,0,1.87.56l1.44.33a4.52,4.52,0,0,1,1.61.65,2.45,2.45,0,0,1,1,2.1,2.61,2.61,0,0,1-1.24,2.44,5.57,5.57,0,0,1-2.89.73,4.27,4.27,0,0,1-3-1,3.31,3.31,0,0,1-1.07-2.64Z"/><path class="cls-4" d="M36.18,139.16a2.94,2.94,0,0,1,1,2.12H35.91a2.37,2.37,0,0,0-.51-1.16,1.66,1.66,0,0,0-1.29-.45,1.77,1.77,0,0,0-1.72,1.17,4.76,4.76,0,0,0-.33,1.88,3.59,3.59,0,0,0,.47,1.9,1.65,1.65,0,0,0,1.5.77,1.63,1.63,0,0,0,1.24-.48,2.65,2.65,0,0,0,.64-1.31h1.22a3.3,3.3,0,0,1-1.05,2.18,3.26,3.26,0,0,1-2.15.69,2.85,2.85,0,0,1-2.34-1.08,4.12,4.12,0,0,1-.88-2.68,4.5,4.5,0,0,1,1-3.07,3.12,3.12,0,0,1,2.44-1.1A3.23,3.23,0,0,1,36.18,139.16Z"/><path class="cls-4" d="M42.41,141.71a.7.7,0,0,0,.58-.36,1.28,1.28,0,0,0,.08-.49,1,1,0,0,0-.46-.93,2.47,2.47,0,0,0-1.31-.29,1.68,1.68,0,0,0-1.4.53,1.85,1.85,0,0,0-.3.87H38.43a2.15,2.15,0,0,1,.89-1.92,3.74,3.74,0,0,1,2-.55,4,4,0,0,1,2.15.51,1.72,1.72,0,0,1,.82,1.57V145a.53.53,0,0,0,.08.32c0,.08.16.12.34.12h.19l.22,0v.93a4,4,0,0,1-.45.1,2.43,2.43,0,0,1-.42,0,1,1,0,0,1-.94-.46,1.6,1.6,0,0,1-.22-.69,3.14,3.14,0,0,1-1.11.87,3.37,3.37,0,0,1-1.58.37,2.37,2.37,0,0,1-1.71-.63,2.1,2.1,0,0,1-.66-1.59,2,2,0,0,1,.65-1.61A3.14,3.14,0,0,1,40.4,142Zm-2.65,3.41a1.46,1.46,0,0,0,.94.31,2.85,2.85,0,0,0,1.29-.31,1.72,1.72,0,0,0,1-1.67v-1a2,2,0,0,1-.6.24,4.68,4.68,0,0,1-.71.14l-.76.1a2.91,2.91,0,0,0-1,.29,1.11,1.11,0,0,0-.58,1A1,1,0,0,0,39.76,145.12Z"/><path class="cls-4" d="M46.36,138.76h1.2v1.06a3.24,3.24,0,0,1,1.13-.94,2.85,2.85,0,0,1,1.32-.29,2.17,2.17,0,0,1,2.15,1.11,3.9,3.9,0,0,1,.31,1.74v4.81H51.19v-4.72a2.66,2.66,0,0,0-.2-1.11,1.25,1.25,0,0,0-1.22-.7,2.58,2.58,0,0,0-.74.09,1.93,1.93,0,0,0-.9.62,1.81,1.81,0,0,0-.41.77,4.68,4.68,0,0,0-.1,1.13v3.92H46.36Z"/><path class="cls-4" d="M67.89,146.22l-.7.85-1.59-1.21a5.65,5.65,0,0,1-1.24.5,5.21,5.21,0,0,1-1.46.19A4.67,4.67,0,0,1,59.15,145a6,6,0,0,1-1.2-3.82,6.09,6.09,0,0,1,1-3.57,4.49,4.49,0,0,1,3.93-1.9,4.7,4.7,0,0,1,4,1.75,5.67,5.67,0,0,1,1,3.49,7.46,7.46,0,0,1-.24,1.91,4.88,4.88,0,0,1-1.26,2.28Zm-4-1a1.73,1.73,0,0,0,.66-.24l-1.13-.88.7-.86,1.34,1a3.81,3.81,0,0,0,.87-1.63,7.14,7.14,0,0,0,.22-1.73A4.31,4.31,0,0,0,65.6,138a3.25,3.25,0,0,0-2.6-1.11A3.4,3.4,0,0,0,60.36,138a4.76,4.76,0,0,0-1,3.26,4.38,4.38,0,0,0,.94,3,3.39,3.39,0,0,0,2.74,1.1A5.13,5.13,0,0,0,63.88,145.25Z"/><path class="cls-4" d="M69.8,136h4.76a4.92,4.92,0,0,1,1.94.34,2.43,2.43,0,0,1,1.44,2.43,2.66,2.66,0,0,1-.38,1.51,2.72,2.72,0,0,1-1.06.95,2.09,2.09,0,0,1,.9.64,2.33,2.33,0,0,1,.34,1.3l.05,1.38a4,4,0,0,0,.1.87.83.83,0,0,0,.45.63v.23H76.63a1,1,0,0,1-.11-.34,6.43,6.43,0,0,1-.07-.81l-.09-1.72a1.43,1.43,0,0,0-.75-1.35,3.16,3.16,0,0,0-1.25-.19H71.19v4.41H69.8Zm4.61,4.71a2.72,2.72,0,0,0,1.55-.39,1.59,1.59,0,0,0,.57-1.41,1.51,1.51,0,0,0-.8-1.5,2.58,2.58,0,0,0-1.14-.21h-3.4v3.51Z"/><path class="cls-4" d="M84.38,136.47a1.93,1.93,0,0,1,1.7-.65h.25l.28,0V137l-.28,0h-.16c-.39,0-.61.1-.69.3a6.06,6.06,0,0,0-.11,1.51h1.24v1H85.35v6.46H84.11v-6.46h-1v-1h1v-1.17A2.28,2.28,0,0,1,84.38,136.47Z"/><path class="cls-4" d="M93.25,139.51a3.75,3.75,0,0,1,1,2.84,4.86,4.86,0,0,1-.88,3,3.19,3.19,0,0,1-2.74,1.18,3.06,3.06,0,0,1-2.45-1,4.13,4.13,0,0,1-.91-2.81,4.47,4.47,0,0,1,1-3,3.21,3.21,0,0,1,2.58-1.12A3.37,3.37,0,0,1,93.25,139.51Zm-.78,5a4.7,4.7,0,0,0,.46-2.11,3.83,3.83,0,0,0-.33-1.71,1.9,1.9,0,0,0-1.84-1,1.8,1.8,0,0,0-1.68.88,4.2,4.2,0,0,0-.52,2.13,3.61,3.61,0,0,0,.52,2,1.86,1.86,0,0,0,1.67.8A1.74,1.74,0,0,0,92.47,144.49Z"/><path class="cls-4" d="M95.78,138.76H97v1.29a2.93,2.93,0,0,1,.72-.92,1.86,1.86,0,0,1,1.32-.54h.12l.29,0V140l-.21,0H99a1.8,1.8,0,0,0-1.47.61,2.15,2.15,0,0,0-.51,1.41v4.31H95.78Z"/><path class="cls-4" d="M25.8,151.9a3.14,3.14,0,0,1,.76.73v-3.79h1.21v10.32H26.64v-1a2.75,2.75,0,0,1-1,1,3,3,0,0,1-1.38.31,2.8,2.8,0,0,1-2.17-1.06,4.11,4.11,0,0,1-.92-2.8,4.83,4.83,0,0,1,.84-2.84,2.74,2.74,0,0,1,2.39-1.2A2.61,2.61,0,0,1,25.8,151.9ZM23,157.51a1.78,1.78,0,0,0,1.64.82,1.72,1.72,0,0,0,1.44-.76,3.51,3.51,0,0,0,.56-2.15,3.2,3.2,0,0,0-.58-2.11,1.8,1.8,0,0,0-1.43-.68,1.9,1.9,0,0,0-1.55.73,3.35,3.35,0,0,0-.59,2.14A3.7,3.7,0,0,0,23,157.51Z"/><path class="cls-4" d="M34.3,151.87a2.81,2.81,0,0,1,1.14,1,3.34,3.34,0,0,1,.51,1.32,9.17,9.17,0,0,1,.11,1.65H30.57a3.15,3.15,0,0,0,.54,1.83,1.79,1.79,0,0,0,1.56.69,2,2,0,0,0,1.57-.65,2.32,2.32,0,0,0,.48-.87H36a2.94,2.94,0,0,1-.33.92,3.21,3.21,0,0,1-.62.83,3,3,0,0,1-1.42.75,4,4,0,0,1-1,.12,3.16,3.16,0,0,1-2.37-1,4,4,0,0,1-1-2.85,4.28,4.28,0,0,1,1-2.94,3.22,3.22,0,0,1,2.56-1.12A3.39,3.39,0,0,1,34.3,151.87Zm.47,2.94a3.4,3.4,0,0,0-.36-1.31,1.85,1.85,0,0,0-1.73-.91,1.93,1.93,0,0,0-1.46.63,2.41,2.41,0,0,0-.62,1.59Z"/><path class="cls-4" d="M37.86,149.57h1.27v2.09h1.2v1h-1.2v4.89a.53.53,0,0,0,.27.53,1.14,1.14,0,0,0,.49.08h.44v1l-.45.09a4.12,4.12,0,0,1-.51,0,1.37,1.37,0,0,1-1.2-.45,2,2,0,0,1-.31-1.18v-5h-1v-1h1Z"/><path class="cls-4" d="M45.61,154.62a.69.69,0,0,0,.58-.37,1.19,1.19,0,0,0,.08-.48,1,1,0,0,0-.46-.93,2.38,2.38,0,0,0-1.31-.29,1.66,1.66,0,0,0-1.4.53,1.81,1.81,0,0,0-.3.87H41.62a2.21,2.21,0,0,1,.9-1.93,3.73,3.73,0,0,1,2-.54,4,4,0,0,1,2.15.51,1.7,1.7,0,0,1,.82,1.56v4.32a.53.53,0,0,0,.08.32c.05.08.16.12.34.12l.18,0,.23,0v.93a2.8,2.8,0,0,1-.45.11l-.42,0a1,1,0,0,1-.94-.46,1.65,1.65,0,0,1-.22-.69,3.52,3.52,0,0,1-2.7,1.24,2.37,2.37,0,0,1-1.7-.63,2.1,2.1,0,0,1-.66-1.59,2,2,0,0,1,.65-1.61,3,3,0,0,1,1.71-.71ZM43,158a1.49,1.49,0,0,0,.95.31,2.85,2.85,0,0,0,1.29-.31,1.73,1.73,0,0,0,1.05-1.67v-1a2.87,2.87,0,0,1-.6.24,4.68,4.68,0,0,1-.71.14l-.77.1a2.87,2.87,0,0,0-1,.28,1.12,1.12,0,0,0-.59,1A1.06,1.06,0,0,0,43,158Z"/><path class="cls-4" d="M49.56,148.88h1.28v1.43H49.56Zm0,2.82h1.28v7.46H49.56Z"/><path class="cls-4" d="M52.78,148.88H54v10.28H52.78Z"/><path class="cls-4" d="M60.25,148.88H65a4.72,4.72,0,0,1,1.94.34,2.43,2.43,0,0,1,1.45,2.43,2.54,2.54,0,0,1-1.45,2.46,2,2,0,0,1,.91.64,2.32,2.32,0,0,1,.34,1.29l0,1.38a3.47,3.47,0,0,0,.1.88.88.88,0,0,0,.44.63v.23h-1.7a1.22,1.22,0,0,1-.12-.34c0-.14,0-.41-.07-.82l-.08-1.71a1.43,1.43,0,0,0-.75-1.35,3,3,0,0,0-1.25-.19H61.64v4.41H60.25Zm4.61,4.71a2.72,2.72,0,0,0,1.55-.39,1.61,1.61,0,0,0,.57-1.42,1.51,1.51,0,0,0-.8-1.49,2.58,2.58,0,0,0-1.14-.21h-3.4v3.51Z"/><path class="cls-4" d="M70.56,148.88h7.5v1.26H71.92v3.12h5.67v1.19H71.92v3.48h6.24v1.23h-7.6Z"/><path class="cls-4" d="M80.16,148.88h4.75a4.72,4.72,0,0,1,1.94.34,2.43,2.43,0,0,1,1.45,2.43,2.54,2.54,0,0,1-1.45,2.46,2,2,0,0,1,.91.64A2.41,2.41,0,0,1,88.1,156l.05,1.38a3.47,3.47,0,0,0,.1.88.88.88,0,0,0,.44.63v.23H87a1.22,1.22,0,0,1-.12-.34c0-.14-.05-.41-.07-.82l-.08-1.71a1.43,1.43,0,0,0-.75-1.35,3,3,0,0,0-1.25-.19H81.55v4.41H80.16Zm4.61,4.71a2.72,2.72,0,0,0,1.55-.39,1.61,1.61,0,0,0,.57-1.42,1.51,1.51,0,0,0-.8-1.49,2.58,2.58,0,0,0-1.14-.21h-3.4v3.51Z"/><path class="cls-4" d="M93.33,148.88H94.9l3.73,10.28H97.1l-1-3.08H92l-1.12,3.08H89.46ZM95.61,155l-1.56-4.55L92.4,155Z"/><path class="cls-4" d="M103.41,148.88h1.41v10.28h-1.41Z"/><path class="cls-4" d="M106.91,151.66h1.2v1.07a3.35,3.35,0,0,1,1.12-.95,3,3,0,0,1,1.33-.28,2.17,2.17,0,0,1,2.15,1.11,3.87,3.87,0,0,1,.31,1.74v4.81h-1.28v-4.72a2.5,2.5,0,0,0-.21-1.11,1.21,1.21,0,0,0-1.21-.7,2.53,2.53,0,0,0-.74.09,2.08,2.08,0,0,0-1.32,1.38,5.45,5.45,0,0,0-.09,1.13v3.93h-1.26Z"/><path class="cls-4" d="M115.47,149.38a1.92,1.92,0,0,1,1.7-.65h.24l.29,0v1.15l-.28,0h-.17c-.38,0-.61.1-.68.29a5.56,5.56,0,0,0-.12,1.52h1.25v1h-1.26v6.47H115.2v-6.47h-1v-1h1v-1.18A2.07,2.07,0,0,1,115.47,149.38Z"/><path class="cls-4" d="M124.33,152.41a3.77,3.77,0,0,1,1,2.84,4.87,4.87,0,0,1-.88,3,3.17,3.17,0,0,1-2.73,1.18,3.12,3.12,0,0,1-2.46-1,4.13,4.13,0,0,1-.91-2.81,4.46,4.46,0,0,1,1-3,3.21,3.21,0,0,1,2.58-1.12A3.38,3.38,0,0,1,124.33,152.41Zm-.78,5a4.74,4.74,0,0,0,.47-2.11,3.69,3.69,0,0,0-.34-1.71,1.87,1.87,0,0,0-1.83-1,1.8,1.8,0,0,0-1.68.88,4.08,4.08,0,0,0-.52,2.13,3.55,3.55,0,0,0,.52,2,1.86,1.86,0,0,0,1.67.8A1.73,1.73,0,0,0,123.55,157.4Z"/><path class="cls-4" d="M126.87,151.66h1.19V153a2.84,2.84,0,0,1,.73-.92,1.86,1.86,0,0,1,1.32-.54h.12l.28,0v1.33l-.2,0h-.21a1.79,1.79,0,0,0-1.46.61,2.15,2.15,0,0,0-.51,1.41v4.31h-1.26Z"/><path class="cls-4" d="M131.61,151.66h1.24v1.07a4.37,4.37,0,0,1,.81-.81,2.49,2.49,0,0,1,1.42-.42,2.21,2.21,0,0,1,1.44.44,2.39,2.39,0,0,1,.56.74,2.74,2.74,0,0,1,1-.89,2.71,2.71,0,0,1,1.28-.29,2.09,2.09,0,0,1,2.06,1.09,3.65,3.65,0,0,1,.29,1.58v5h-1.31V154a1.22,1.22,0,0,0-.37-1,1.55,1.55,0,0,0-.92-.28,1.8,1.8,0,0,0-1.27.5,2.16,2.16,0,0,0-.54,1.66v4.36H136v-4.89a2.62,2.62,0,0,0-.18-1.12,1.11,1.11,0,0,0-1.07-.52,1.84,1.84,0,0,0-1.3.55,2.71,2.71,0,0,0-.59,2v4h-1.25Z"/><path class="cls-4" d="M147.56,154.62a.69.69,0,0,0,.58-.37,1.21,1.21,0,0,0-.37-1.41,2.42,2.42,0,0,0-1.31-.29,1.64,1.64,0,0,0-1.4.53,1.71,1.71,0,0,0-.31.87h-1.17a2.17,2.17,0,0,1,.9-1.93,3.67,3.67,0,0,1,2-.54,4,4,0,0,1,2.15.51,1.68,1.68,0,0,1,.82,1.56v4.32a.61.61,0,0,0,.08.32c.05.08.17.12.34.12l.19,0,.22,0v.93a2.51,2.51,0,0,1-.44.11l-.42,0a1,1,0,0,1-.95-.46,2,2,0,0,1-.22-.69,3.21,3.21,0,0,1-1.1.87,3.39,3.39,0,0,1-1.59.37,2.35,2.35,0,0,1-1.7-.63,2.08,2.08,0,0,1-.67-1.59,2,2,0,0,1,.65-1.61,3.1,3.1,0,0,1,1.71-.71ZM144.91,158a1.46,1.46,0,0,0,.94.31,2.79,2.79,0,0,0,1.29-.31,1.73,1.73,0,0,0,1.05-1.67v-1a2.57,2.57,0,0,1-.59.24,4.81,4.81,0,0,1-.72.14l-.76.1a2.93,2.93,0,0,0-1,.28,1.11,1.11,0,0,0-.58,1A1,1,0,0,0,144.91,158Z"/><path class="cls-4" d="M151.77,149.57H153v2.09h1.2v1H153v4.89a.53.53,0,0,0,.27.53,1.11,1.11,0,0,0,.49.08h.44v1l-.45.09a4.12,4.12,0,0,1-.51,0,1.37,1.37,0,0,1-1.2-.45,2,2,0,0,1-.31-1.18v-5h-1v-1h1Z"/><path class="cls-4" d="M155.5,148.88h1.28v1.43H155.5Zm0,2.82h1.28v7.46H155.5Z"/><path class="cls-4" d="M164.15,152.41a3.77,3.77,0,0,1,1,2.84,4.87,4.87,0,0,1-.88,3,3.18,3.18,0,0,1-2.73,1.18,3.12,3.12,0,0,1-2.46-1,4.13,4.13,0,0,1-.91-2.81,4.46,4.46,0,0,1,1-3,3.21,3.21,0,0,1,2.57-1.12A3.39,3.39,0,0,1,164.15,152.41Zm-.78,5a4.74,4.74,0,0,0,.47-2.11,3.69,3.69,0,0,0-.34-1.71,1.87,1.87,0,0,0-1.83-1,1.8,1.8,0,0,0-1.68.88,4.08,4.08,0,0,0-.53,2.13,3.55,3.55,0,0,0,.53,2,1.85,1.85,0,0,0,1.67.8A1.73,1.73,0,0,0,163.37,157.4Z"/><path class="cls-4" d="M166.65,151.66h1.2v1.07a3.28,3.28,0,0,1,1.13-.95,3,3,0,0,1,1.32-.28,2.17,2.17,0,0,1,2.15,1.11,3.87,3.87,0,0,1,.31,1.74v4.81h-1.28v-4.72a2.66,2.66,0,0,0-.2-1.11,1.23,1.23,0,0,0-1.22-.7,2.58,2.58,0,0,0-.74.09,1.86,1.86,0,0,0-.9.62,1.78,1.78,0,0,0-.41.76,4.74,4.74,0,0,0-.1,1.13v3.93h-1.26Z"/></g><path class="cls-4" d="M26.71,40.23H60.45a12.63,12.63,0,0,1,3.48.46A11.45,11.45,0,0,1,66.77,42,9.77,9.77,0,0,1,69,43.84a10.79,10.79,0,0,1,1.56,2.37,12,12,0,0,1,.93,2.68,12.18,12.18,0,0,1,.3,2.82,13.18,13.18,0,0,1-.31,2.86,12.3,12.3,0,0,1-.93,2.7A11.16,11.16,0,0,1,69,59.62a9.73,9.73,0,0,1-2.2,1.88,10.82,10.82,0,0,1-2.83,1.23,12.64,12.64,0,0,1-3.48.45H60.3L72.46,78.07H62.67L50.5,63.18H30.28V78.07h-7.9V44.57a4.77,4.77,0,0,1,.31-1.77,3.87,3.87,0,0,1,.89-1.37,4,4,0,0,1,1.37-.89A5,5,0,0,1,26.71,40.23ZM60.3,56a3.05,3.05,0,0,0,1.54-.37,3.42,3.42,0,0,0,1.11-1,4.07,4.07,0,0,0,.67-1.35,5.89,5.89,0,0,0,.23-1.56,5.76,5.76,0,0,0-.21-1.56A4.1,4.1,0,0,0,63,48.79a3.28,3.28,0,0,0-1.1-1,3.21,3.21,0,0,0-1.58-.37h-30V56Z"/><path class="cls-4" d="M75.58,73.73V44.57a5,5,0,0,1,.31-1.77,3.93,3.93,0,0,1,2.26-2.26,5,5,0,0,1,1.77-.31H124v7.23H83.49v7.66h35.59v7.23H83.49v8.49H124v7.23H79.92a4.77,4.77,0,0,1-1.77-.31,3.87,3.87,0,0,1-1.37-.89,4,4,0,0,1-.89-1.37A5,5,0,0,1,75.58,73.73Z"/><path class="cls-4" d="M132.66,40.23H166.4a12.63,12.63,0,0,1,3.48.46A11.29,11.29,0,0,1,172.72,42a9.56,9.56,0,0,1,2.2,1.89,11.21,11.21,0,0,1,1.57,2.37,12.51,12.51,0,0,1,.93,2.68,12.74,12.74,0,0,1,.29,2.82,13.18,13.18,0,0,1-.31,2.86,11.34,11.34,0,0,1-.93,2.7,10.44,10.44,0,0,1-1.56,2.35,9.9,9.9,0,0,1-2.19,1.88,10.89,10.89,0,0,1-2.84,1.23,12.64,12.64,0,0,1-3.48.45h-.14l12.16,14.89h-9.8L156.46,63.18H136.23V78.07h-7.89V44.57a4.77,4.77,0,0,1,.31-1.77,3.84,3.84,0,0,1,.88-1.37,4,4,0,0,1,1.37-.89A5,5,0,0,1,132.66,40.23ZM166.26,56a3.11,3.11,0,0,0,1.54-.37,3.28,3.28,0,0,0,1.1-1,4.07,4.07,0,0,0,.67-1.35,5.51,5.51,0,0,0,.23-1.56,5.07,5.07,0,0,0-.21-1.56,4.08,4.08,0,0,0-.65-1.36,3.22,3.22,0,0,0-1.11-1,3.17,3.17,0,0,0-1.57-.37h-30V56Z"/><path class="cls-4" d="M179.4,78.07,203,42.67q1.81-2.76,3.59-2.76t3.6,2.76l23.55,35.4h-9.62L206.55,51.53,189,78.07Z"/><g class="cls-5"><path class="cls-4" d="M27.08,95.41a5.87,5.87,0,0,0,1.53-.34A1.14,1.14,0,0,0,29.43,94a1.3,1.3,0,0,0-.63-1.25,4.11,4.11,0,0,0-1.86-.34,2.46,2.46,0,0,0-1.94.67,2.78,2.78,0,0,0-.54,1.34H20.77a5.61,5.61,0,0,1,1.08-3.15c1-1.28,2.75-1.93,5.22-1.93a9.33,9.33,0,0,1,4.28,1,3.67,3.67,0,0,1,1.88,3.6v6.7c0,.47,0,1,0,1.69a2.23,2.23,0,0,0,.23,1,1.33,1.33,0,0,0,.56.44v.57H29.89a3.86,3.86,0,0,1-.24-.84c0-.26-.08-.55-.11-.88A7.74,7.74,0,0,1,27.7,104a5.55,5.55,0,0,1-2.8.71,4.88,4.88,0,0,1-3.3-1.13,4.06,4.06,0,0,1-1.3-3.21,4.16,4.16,0,0,1,2.09-3.9,9.23,9.23,0,0,1,3.38-.94Zm2.34,1.78a5.11,5.11,0,0,1-.74.37,6.59,6.59,0,0,1-1,.26l-.87.16A5.75,5.75,0,0,0,25,98.5a1.74,1.74,0,0,0-.91,1.63,1.71,1.71,0,0,0,.55,1.41A2.12,2.12,0,0,0,26,102a4,4,0,0,0,2.31-.73,3,3,0,0,0,1.1-2.64Z"/><path class="cls-4" d="M46.79,91.25a7.75,7.75,0,0,1,1.79,5.55,8.76,8.76,0,0,1-1.75,5.89,5.65,5.65,0,0,1-4.5,2,4.72,4.72,0,0,1-2.91-.87,5.52,5.52,0,0,1-1.24-1.41v7.62H34.4V89.68h3.66v2.16a6,6,0,0,1,1.32-1.5,4.88,4.88,0,0,1,3-1A5.76,5.76,0,0,1,46.79,91.25ZM43.86,94a2.71,2.71,0,0,0-2.52-1.3,2.87,2.87,0,0,0-2.89,2A7.41,7.41,0,0,0,38,97.32a4.22,4.22,0,0,0,1.37,3.58,3.09,3.09,0,0,0,1.93.61,2.77,2.77,0,0,0,2.45-1.24A5.64,5.64,0,0,0,44.64,97,5.7,5.7,0,0,0,43.86,94Z"/><path class="cls-4" d="M61.51,91.25A7.8,7.8,0,0,1,63.3,96.8a8.81,8.81,0,0,1-1.75,5.89,5.68,5.68,0,0,1-4.5,2,4.75,4.75,0,0,1-2.92-.87,5.71,5.71,0,0,1-1.24-1.41v7.62H49.11V89.68h3.66v2.16a6.18,6.18,0,0,1,1.32-1.5,4.9,4.9,0,0,1,3-1A5.78,5.78,0,0,1,61.51,91.25ZM58.57,94a2.7,2.7,0,0,0-2.52-1.3,2.88,2.88,0,0,0-2.89,2,7.43,7.43,0,0,0-.4,2.65,4.22,4.22,0,0,0,1.36,3.58,3.13,3.13,0,0,0,1.93.61,2.8,2.8,0,0,0,2.46-1.24A6.47,6.47,0,0,0,58.57,94Z"/><path class="cls-4" d="M72.05,89.34l.33,0v3.91l-.65,0h-.45a3.17,3.17,0,0,0-3.1,1.5,5.91,5.91,0,0,0-.44,2.6v7H63.89V89.68h3.65v2.55a8,8,0,0,1,1.54-2,4.18,4.18,0,0,1,2.79-.9Z"/><path class="cls-4" d="M84.74,102.51a6.79,6.79,0,0,1-5.61,2.28,6.8,6.8,0,0,1-5.62-2.28,9.07,9.07,0,0,1,0-11,6.73,6.73,0,0,1,5.62-2.32,6.72,6.72,0,0,1,5.61,2.32,9.07,9.07,0,0,1,0,11Zm-3-2.11a5.56,5.56,0,0,0,.9-3.39,5.49,5.49,0,0,0-.9-3.38,3.39,3.39,0,0,0-5.16,0,5.49,5.49,0,0,0-.9,3.38,5.56,5.56,0,0,0,.9,3.39,3.39,3.39,0,0,0,5.16,0Z"/><path class="cls-4" d="M96.27,89.68h4.11L95.1,104.3h-4L85.83,89.68h4.29l3,10.78Z"/><path class="cls-4" d="M110,90a5.84,5.84,0,0,1,2.53,2.16,7,7,0,0,1,1.16,3,17.59,17.59,0,0,1,.13,2.9H103.18a3.51,3.51,0,0,0,1.52,3.08,3.88,3.88,0,0,0,2.11.55,3.21,3.21,0,0,0,2.12-.67,3.16,3.16,0,0,0,.79-1h3.9a4.68,4.68,0,0,1-1.42,2.64,7.1,7.1,0,0,1-5.49,2.13,8,8,0,0,1-5.15-1.8q-2.24-1.8-2.23-5.85a7.91,7.91,0,0,1,2-5.82,7.06,7.06,0,0,1,5.23-2A8.21,8.21,0,0,1,110,90Zm-5.71,3.3a4,4,0,0,0-1,2.26h6.58a3.24,3.24,0,0,0-1-2.31,3.39,3.39,0,0,0-2.27-.79A3,3,0,0,0,104.29,93.28Z"/><path class="cls-4" d="M121.44,89.92a4.55,4.55,0,0,1,1.68,1.61v-7H127V104.3h-3.71v-2a5.43,5.43,0,0,1-1.86,1.89,5.3,5.3,0,0,1-2.61.59,5.45,5.45,0,0,1-4.31-2.07,8,8,0,0,1-1.75-5.32,9.13,9.13,0,0,1,1.73-5.88,5.6,5.6,0,0,1,4.6-2.15A4.7,4.7,0,0,1,121.44,89.92Zm.94,10.41a5.38,5.38,0,0,0,.85-3.13,4.8,4.8,0,0,0-1.36-3.83,2.89,2.89,0,0,0-1.93-.7,2.67,2.67,0,0,0-2.46,1.27,6.87,6.87,0,0,0,0,6.38,2.7,2.7,0,0,0,2.42,1.21A2.82,2.82,0,0,0,122.38,100.33Z"/></g><g class="cls-5"><path class="cls-4" d="M30.37,26a2.42,2.42,0,0,1,.42,1.43,2.09,2.09,0,0,1-.43,1.38,2.3,2.3,0,0,1-.71.53,2.07,2.07,0,0,1,1.08.82,2.53,2.53,0,0,1,.36,1.38A2.8,2.8,0,0,1,30.68,33a2.6,2.6,0,0,1-.67.73,2.46,2.46,0,0,1-1.05.47,6.19,6.19,0,0,1-1.33.13H23.42V25h4.52A2.89,2.89,0,0,1,30.37,26Zm-5.09.63v2.06h2.28a1.93,1.93,0,0,0,1-.23.89.89,0,0,0,.38-.82.85.85,0,0,0-.5-.87,3.8,3.8,0,0,0-1.11-.14Zm0,3.61v2.49h2.28a2.18,2.18,0,0,0,.94-.16,1.18,1.18,0,0,0,.62-1.17,1,1,0,0,0-.6-1,2.29,2.29,0,0,0-.93-.16Z"/><path class="cls-4" d="M33.58,34.31H31.64V25h1.94Z"/><path class="cls-4" d="M34.42,34.31V25h1.95v3.57H40V25h2v9.36H40V30.13H36.37v4.18Z"/><path class="cls-4" d="M45.53,25h2.21l3.31,9.36H48.93l-.62-1.92H44.87l-.64,1.92h-2Zm-.13,5.82h2.39l-1.18-3.68Z"/><path class="cls-4" d="M57.26,25.19a2.3,2.3,0,0,1,.88.66,3.3,3.3,0,0,1,.47.79,2.68,2.68,0,0,1,.17,1,2.75,2.75,0,0,1-.34,1.31,1.86,1.86,0,0,1-1.11.91,1.74,1.74,0,0,1,.92.74A3.08,3.08,0,0,1,58.52,32v.63a5.2,5.2,0,0,0,0,.87.8.8,0,0,0,.36.54v.23H56.77c-.05-.21-.1-.37-.12-.5a5.28,5.28,0,0,1-.09-.81v-.87a1.77,1.77,0,0,0-.31-1.19,1.57,1.57,0,0,0-1.11-.3H53.22v3.67H51.31V25h4.47A4.45,4.45,0,0,1,57.26,25.19Zm-4,1.39v2.51h2.1a2.23,2.23,0,0,0,.94-.15,1.06,1.06,0,0,0,.56-1.05,1.19,1.19,0,0,0-.54-1.15,1.93,1.93,0,0,0-.9-.16Z"/></g><g class="cls-5"><path class="cls-4" d="M145.75,90.7a7.8,7.8,0,0,1,1.79,5.55,8.79,8.79,0,0,1-1.75,5.89,5.68,5.68,0,0,1-4.5,2,4.75,4.75,0,0,1-2.92-.87,5.71,5.71,0,0,1-1.24-1.41v7.62h-3.78V89.13H137v2.16a6.61,6.61,0,0,1,1.32-1.5,4.92,4.92,0,0,1,3-1A5.78,5.78,0,0,1,145.75,90.7Zm-2.93,2.75a2.72,2.72,0,0,0-2.53-1.3,2.89,2.89,0,0,0-2.89,2,7.43,7.43,0,0,0-.4,2.65,4.18,4.18,0,0,0,1.37,3.58,3.08,3.08,0,0,0,1.92.61,2.8,2.8,0,0,0,2.46-1.24,5.71,5.71,0,0,0,.84-3.28A5.79,5.79,0,0,0,142.82,93.45Z"/><path class="cls-4" d="M156.29,88.79l.33,0v3.92l-.65-.06h-.45a3.17,3.17,0,0,0-3.1,1.5,5.91,5.91,0,0,0-.44,2.6v7h-3.85V89.13h3.65v2.55a8.19,8.19,0,0,1,1.54-2,4.19,4.19,0,0,1,2.79-.9Z"/><path class="cls-4" d="M169,102a8.07,8.07,0,0,1-11.24,0,9.07,9.07,0,0,1,0-11A8,8,0,0,1,169,91a9.07,9.07,0,0,1,0,11Zm-3.06-2.11a6.82,6.82,0,0,0,0-6.77,3.39,3.39,0,0,0-5.16,0,6.82,6.82,0,0,0,0,6.77,3.39,3.39,0,0,0,5.16,0Z"/><path class="cls-4" d="M169.85,106.55l.45,0h.25a1.18,1.18,0,0,0,.85-.28,1.48,1.48,0,0,0,.29-1.06v-16h3.82v16.11a5.06,5.06,0,0,1-.88,3.28c-.58.7-1.72,1.06-3.41,1.06l-.52,0-.85,0Zm5.66-19.16h-3.82V83.86h3.82Z"/><path class="cls-4" d="M186.6,89.43a6,6,0,0,1,2.53,2.16,7.09,7.09,0,0,1,1.16,3,17.59,17.59,0,0,1,.13,2.9H179.78a3.49,3.49,0,0,0,1.52,3.09,4,4,0,0,0,2.11.55,3.21,3.21,0,0,0,2.12-.68,3.16,3.16,0,0,0,.79-1h3.9a4.75,4.75,0,0,1-1.42,2.64,7.11,7.11,0,0,1-5.5,2.13,7.94,7.94,0,0,1-5.14-1.8q-2.24-1.78-2.23-5.85a7.91,7.91,0,0,1,2-5.82,7,7,0,0,1,5.23-2A8.24,8.24,0,0,1,186.6,89.43Zm-5.71,3.3a4,4,0,0,0-1,2.26h6.58a3.21,3.21,0,0,0-1-2.31,3.36,3.36,0,0,0-2.26-.79A3,3,0,0,0,180.89,92.73Z"/><path class="cls-4" d="M199,94.37a3.33,3.33,0,0,0-.55-1.47,2.32,2.32,0,0,0-2-.89,2.64,2.64,0,0,0-2.65,1.92,8,8,0,0,0-.37,2.7,7.34,7.34,0,0,0,.37,2.58,2.56,2.56,0,0,0,2.58,1.83,2.26,2.26,0,0,0,1.91-.73,3.53,3.53,0,0,0,.69-1.87h3.9a6.36,6.36,0,0,1-1.26,3.29,6.12,6.12,0,0,1-5.33,2.51,6.27,6.27,0,0,1-5.2-2.09,10,10,0,0,1,.18-11.27,6.38,6.38,0,0,1,5.07-2.1,7.55,7.55,0,0,1,4.5,1.24q1.75,1.23,2.08,4.35Z"/><path class="cls-4" d="M202,92V89.27h2V85.19h3.78v4.08h2.37V92h-2.37v7.72a1.75,1.75,0,0,0,.23,1.12c.15.15.61.22,1.39.22h.37l.38,0v2.86l-1.81.07c-1.8.06-3-.25-3.7-.94a2.79,2.79,0,0,1-.64-2V92Z"/></g><circle class="cls-4" cx="240.07" cy="149.03" r="16.5"/><path class="cls-6" d="M236.84,156.05a1.06,1.06,0,0,1-.76-.31l-5.43-5.43a1.08,1.08,0,0,1,1.53-1.53l4.66,4.67L248,142.33a1.08,1.08,0,0,1,1.52,1.53L237.6,155.74A1.06,1.06,0,0,1,236.84,156.05Z"/></g></g></svg>