<svg xmlns="http://www.w3.org/2000/svg" viewBox="0 0 1595.96 196.68"><defs><style>.cls-1{opacity:0.4;}.cls-2{fill:none;stroke:#fff;stroke-miterlimit:10;stroke-width:2px;}</style></defs><g id="Layer_2" data-name="Layer 2"><g id="Layer_1-2" data-name="Layer 1"><g class="cls-1"><path class="cls-2" d="M70.94,126.55c0,9.15,8.6,15.33,53,15.33,41.43,0,47.61-2.69,47.61-9.68-13.32-28-170.76,16.47-167.84-71C-8.31-19.36,249.94-21,233.4,67.91H163.46c0-9.95-16.13-12.1-50.29-12.1-32.82,0-39.55,1.61-39.55,8.88s6.73,7,47.61,8.6c74.24,3,120.24,8.07,120.24,57.3,0,51.91-43,65.09-120.24,65.09S1,182.5,1,126.55Z"/><path class="cls-2" d="M407.43,159.1H327.28L314.37,193H237.44l78-188.29H419.27l78,188.29H420.35Zm-18.29-48.42L367.36,53.12l-21.79,57.56Z"/><path class="cls-2" d="M695,63.88h-80.7V193H544.35V63.88h-80.7V4.7H695Z"/><path class="cls-2" d="M966.92,4.7,888.92,193H785.09L707.09,4.7H784l53,139.87L890,4.7Z"/><path class="cls-2" d="M1049,193H979V4.7H1049Z"/><path class="cls-2" d="M1214.12,93.47,1322.52,193h-96.83l-60.25-59.71-29.06,23.94V193h-69.93V4.7h69.93V78.4L1223,4.7h99.52Z"/><path class="cls-2" d="M1504.63,159.1h-80.16L1411.56,193h-76.93l78-188.29h103.83l78,188.29h-76.93Zm-18.3-48.42-21.78-57.56-21.79,57.56Z"/></g></g></g></svg>