<svg xmlns="http://www.w3.org/2000/svg" viewBox="0 0 160.9 35.88"><defs><style>.cls-1{fill:#fdfdfd;}.cls-2{fill:#282828;}</style></defs><g id="Layer_2" data-name="Layer 2"><g id="Layer_1-2" data-name="Layer 1"><path class="cls-1" d="M32.62,0c0,.15.15.12.25.12,1,0,2,0,2.92.07,1.5.06,3,.13,4.5.24,1,.07,2.06.14,3.09.27a10.29,10.29,0,0,1,3.37.78A6.5,6.5,0,0,1,50.4,6.29,36.08,36.08,0,0,1,51,10.57c.13,1.58.2,3.17.26,4.75,0,1.31.06,2.62,0,3.92,0,1.57-.08,3.14-.19,4.7a42.65,42.65,0,0,1-.67,5.62A6.44,6.44,0,0,1,46,34.74a11.25,11.25,0,0,1-2.37.44c-1.46.19-2.93.26-4.4.37-.43,0-.87,0-1.31.06-.75.06-1.51,0-2.26.08s-1.76.07-2.63.07c-.1,0-.22,0-.26.12h-14c0-.15-.15-.12-.25-.12-.74,0-1.48,0-2.22,0-1-.06-2.05-.09-3.07-.13-1.27-.07-2.54-.15-3.81-.26A22.9,22.9,0,0,1,6,34.87a6.24,6.24,0,0,1-4.95-4.66,26.06,26.06,0,0,1-.75-5C.22,24,.11,22.7.12,21.43c0-.1,0-.22-.12-.25V14.7c.15,0,.12-.15.12-.25,0-1.38.14-2.75.25-4.12A32.33,32.33,0,0,1,1,6.15,6.49,6.49,0,0,1,4.48,1.49,10.73,10.73,0,0,1,8.31.63c.87-.1,1.75-.14,2.62-.21,1.48-.11,3-.17,4.44-.23,1,0,2-.1,3-.07.1,0,.22,0,.25-.12Zm1.27,17.94L20.57,10.27V25.61Z"/><path class="cls-1" d="M160.9,23.69h-8.11c-.31,0-.38.09-.38.39,0,1.1,0,2.2.08,3.29a5.87,5.87,0,0,0,.27,1.76,1.53,1.53,0,0,0,1.57,1.1,1.59,1.59,0,0,0,1.68-1.1,7,7,0,0,0,.36-2.4c0-.27.08-.35.34-.33l3.84.25c.12,0,.21,0,.22.17a7.75,7.75,0,0,1-.72,4.05,4.85,4.85,0,0,1-3.13,2.39,9,9,0,0,1-5.25,0,5,5,0,0,1-3.21-3.12,13.07,13.07,0,0,1-.83-3.91c-.19-2.2-.13-4.41-.1-6.61a16.81,16.81,0,0,1,.67-5,5.59,5.59,0,0,1,2.46-3.39,5.84,5.84,0,0,1,2.28-.75,10.77,10.77,0,0,1,4,.18,4.53,4.53,0,0,1,3.24,3,10.92,10.92,0,0,1,.63,3c0,.1,0,.22.13.25Zm-4.78-5a17.59,17.59,0,0,0-.19-3.4,1.61,1.61,0,0,0-1.42-1.49,1.38,1.38,0,0,0-1.7.93,6.09,6.09,0,0,0-.33,1.84c-.07,1.27-.08,2.54-.07,3.82,0,.27.09.36.36.36,1,0,2,0,3,0,.29,0,.36-.1.35-.37C156.11,19.87,156.12,19.31,156.12,18.74Z"/><path class="cls-1" d="M136,13.19c.28-.33.49-.68.76-1a4.85,4.85,0,0,1,4-1.82,3.8,3.8,0,0,1,2.82,1.16,5.21,5.21,0,0,1,1.13,2.22,19.78,19.78,0,0,1,.51,3.59c.18,2.54.12,5.08.1,7.62a17.06,17.06,0,0,1-.7,5.07,5.23,5.23,0,0,1-1.95,3,4.33,4.33,0,0,1-3.29.56,5.1,5.1,0,0,1-2.63-1.31,4,4,0,0,1-.62-.79c0-.09-.09-.24-.22-.23s-.13.19-.16.3c-.12.48-.24,1-.35,1.46a.31.31,0,0,1-.36.29c-1.21,0-2.41,0-3.61,0-.22,0-.32-.06-.3-.29a1.2,1.2,0,0,0,0-.19v-31c0-.48,0-.48.47-.48,1.37,0,2.73,0,4.09,0,.28,0,.35.08.35.35,0,3.71,0,7.42,0,11.12Zm.06,9.24c0,1.92,0,3.85,0,5.77a1.57,1.57,0,0,0,.63,1.35,1.9,1.9,0,0,0,2.62-.13,3,3,0,0,0,.53-1.2,15.58,15.58,0,0,0,.36-3.73,70,70,0,0,0-.11-7.8,5.11,5.11,0,0,0-.52-2,1.41,1.41,0,0,0-1.35-.74A2.66,2.66,0,0,0,136,16.33Z"/><path class="cls-1" d="M102.06,22.09V32.93c0,.43,0,.43-.43.43H98.42c-.25,0-.36-.07-.39-.35-.09-.72-.22-1.44-.35-2.16,0-.08,0-.22-.1-.22s-.14.11-.18.19a6,6,0,0,1-1.06,1.44,5.27,5.27,0,0,1-5.46,1.13,3.48,3.48,0,0,1-2-2.06,7.69,7.69,0,0,1-.51-2.69c-.14-5.81,0-11.62-.07-17.43,0-.3.11-.36.38-.36,1.45,0,2.89,0,4.34,0,.3,0,.38.09.38.39,0,5.45,0,10.91,0,16.36a5.79,5.79,0,0,0,.21,1.55,1.22,1.22,0,0,0,1.52.95,2.76,2.76,0,0,0,1.38-.7A1.37,1.37,0,0,0,97,28.3c0-5.66,0-11.33,0-17,0-.44,0-.44.44-.44h4.21c.43,0,.43,0,.43.45Z"/><path class="cls-1" d="M128,22.15V33c0,.41,0,.41-.41.41-1.07,0-2.14,0-3.21,0-.27,0-.37-.08-.41-.37-.08-.71-.2-1.42-.32-2.13,0-.09,0-.22-.12-.23s-.13.12-.17.2a5.38,5.38,0,0,1-2.5,2.42,5.09,5.09,0,0,1-4.2.07,3.59,3.59,0,0,1-2-2.36,9.48,9.48,0,0,1-.39-2.85q0-8.43,0-16.86c0-.3.07-.4.38-.4,1.44,0,2.87,0,4.31,0,.3,0,.36.1.36.38q0,8.17,0,16.36a4.15,4.15,0,0,0,.35,1.9,1.19,1.19,0,0,0,1.28.63A2.55,2.55,0,0,0,122.81,29a1,1,0,0,0,.13-.6V11.31c0-.44,0-.44.44-.44h4.3c.28,0,.35.09.35.36C128,14.86,128,18.51,128,22.15Z"/><path class="cls-1" d="M71.71,22.52c0-1.43,0-2.48,0-3.52a15.21,15.21,0,0,1,.79-4.64A5.61,5.61,0,0,1,75,11.23a6.45,6.45,0,0,1,2.38-.72,9.78,9.78,0,0,1,3.77.22,5,5,0,0,1,3.46,3,12.17,12.17,0,0,1,.89,3.67,55.1,55.1,0,0,1,.17,6.92A19.19,19.19,0,0,1,85.17,29,7.85,7.85,0,0,1,84,31.63a5,5,0,0,1-3.19,1.9,10,10,0,0,1-5-.23,5.1,5.1,0,0,1-3.49-3.76,17.06,17.06,0,0,1-.58-3.64C71.67,24.65,71.75,23.39,71.71,22.52Zm8.86-1c0-1.34.1-3.16-.06-5a4.39,4.39,0,0,0-.59-2.09,1.47,1.47,0,0,0-2.49.12,5.53,5.53,0,0,0-.55,2.58c0,3.23,0,6.45,0,9.68a6.26,6.26,0,0,0,.38,2.18,1.6,1.6,0,0,0,.69.94,1.51,1.51,0,0,0,2.25-.93,7.39,7.39,0,0,0,.38-2.37C80.59,25.15,80.57,23.59,80.57,21.56Z"/><path class="cls-1" d="M62.16,28.26c0-1.08,0-2.16,0-3.24a10.13,10.13,0,0,0-.48-3.36c-.73-2.53-1.41-5.07-2.11-7.61Q58.28,9.36,57,4.66c-.17-.61-.33-1.22-.5-1.82-.07-.22,0-.33.23-.33,1.48,0,3,0,4.46,0,.19,0,.27.07.31.27C62.37,7,63.3,11.12,64.14,15.3c.16.78.27,1.57.41,2.35,0,.08,0,.2.09.21s.09-.14.11-.21c.3-1.79.66-3.57,1-5.35S66.57,8.82,67,7.07c.31-1.39.63-2.79.93-4.19a.39.39,0,0,1,.46-.37h4.3c.35,0,.36,0,.26.36l-2.58,9.23c-.87,3.08-1.73,6.16-2.6,9.24l-.36,1.3a3.82,3.82,0,0,0-.18,1.17c0,3,0,6.05,0,9.08,0,.4,0,.4-.41.4H62.49c-.26,0-.33-.08-.33-.34C62.17,31.4,62.16,29.83,62.16,28.26Z"/><path class="cls-1" d="M105.84,20V7c0-.41,0-.41-.42-.41h-4.27c-.25,0-.35-.07-.34-.34q0-1.72,0-3.45c0-.23.07-.31.3-.31q7.22,0,14.42,0c.24,0,.31.08.3.31,0,1.16,0,2.32,0,3.49,0,.24-.08.3-.31.3h-4.27c-.45,0-.45,0-.45.44V32.83c0,.47,0,.47-.47.47-1.37,0-2.74,0-4.11,0-.31,0-.39-.1-.39-.39Q105.85,26.42,105.84,20Z"/><path class="cls-2" d="M33.89,17.94,20.57,25.61V10.27Z"/></g></g></svg>